<svg width="37" height="36" viewBox="0 0 37 36" fill="none" xmlns="http://www.w3.org/2000/svg">
<circle cx="18.5" cy="18.2537" r="17.2721" transform="rotate(-1.01736 18.5 18.2537)" fill="#2EB92B"/>
<path d="M16.8062 12.5259L16.7038 12.533C16.3355 12.5848 16.0517 12.9122 16.0517 13.3083V21.331L13.7829 18.9775L13.6983 18.9018C13.403 18.6745 12.9838 18.6998 12.7159 18.9775C12.4213 19.2831 12.4213 19.7785 12.7159 20.0841L16.2727 23.7726L16.3573 23.8483C16.6527 24.0756 17.2928 23.9987 17.5607 23.7209V21.3289V13.3083L17.5538 13.2022C17.5038 12.8202 17.1882 12.5259 16.8062 12.5259Z" fill="white"/>
<path d="M20.1939 23.9819L20.2963 23.9748C20.6645 23.923 20.9484 23.5956 20.9484 23.1995V15.1768L23.2171 17.5303L23.3017 17.606C23.5971 17.8333 24.0163 17.8081 24.2841 17.5303C24.5788 17.2247 24.5788 16.7293 24.2841 16.4237L20.7274 12.7353L20.6428 12.6595C20.3474 12.4322 19.7072 12.5091 19.4394 12.7869V15.1789V23.1995L19.4463 23.3057C19.4962 23.6876 19.8119 23.9819 20.1939 23.9819Z" fill="white"/>
</svg>
