<svg width="26" height="22" viewBox="0 0 26 22" fill="none" xmlns="http://www.w3.org/2000/svg">
<path fill-rule="evenodd" clip-rule="evenodd" d="M10.2717 3.61887C10.907 2.97059 11.7924 2.56836 12.7717 2.56836C14.7047 2.56836 16.2717 4.13536 16.2717 6.06836C16.2717 6.60516 16.1509 7.11373 15.9349 7.56836H18.2717C19.3763 7.56836 20.2717 8.46379 20.2717 9.56836V11.5684C20.2717 12.3154 19.8621 12.9668 19.2552 13.3102C19.2661 13.3947 19.2717 13.4809 19.2717 13.5684V19.5684C19.2717 20.6729 18.3763 21.5684 17.2717 21.5684H10.2717H3.27173C2.16716 21.5684 1.27173 20.6729 1.27173 19.5684V13.5684C1.27173 13.4809 1.27735 13.3947 1.28823 13.3102C0.681342 12.9668 0.271729 12.3154 0.271729 11.5684V9.56836C0.271729 8.46379 1.16716 7.56836 2.27173 7.56836H4.60854C4.39257 7.11373 4.27173 6.60516 4.27173 6.06836C4.27173 4.13536 5.83873 2.56836 7.77173 2.56836C8.75107 2.56836 9.63647 2.97059 10.2717 3.61887ZM11.2717 6.06836V7.56836H12.7717C13.6002 7.56836 14.2717 6.89679 14.2717 6.06836C14.2717 5.23993 13.6002 4.56836 12.7717 4.56836C11.9433 4.56836 11.2717 5.23993 11.2717 6.06836ZM9.27173 9.56836H7.77173H2.27173V11.5684H3.27173H9.27173V9.56836ZM7.77173 7.56836H9.27173V6.06836C9.27173 5.23993 8.60016 4.56836 7.77173 4.56836C6.9433 4.56836 6.27173 5.23993 6.27173 6.06836C6.27173 6.89679 6.9433 7.56836 7.77173 7.56836ZM11.2717 11.5684V9.56836H12.7717H18.2717V11.5684H17.2717H11.2717ZM3.27173 13.5684V19.5684H9.27173V13.5684H3.27173ZM17.2717 13.5684V19.5684H11.2717V13.5684H17.2717Z" fill="#121619"/>
<circle cx="19.2717" cy="6.56836" r="5.9" fill="#FF4B4B" stroke="white" stroke-width="0.2"/>
<path d="M17.7087 5.37441L16.6121 8.28258H15.8431L17.2806 4.854H17.7721L17.7087 5.37441ZM18.6256 8.28258L17.5237 5.37441L17.4577 4.854H17.9518L19.3972 8.28258H18.6256ZM18.5754 7.00864V7.51962H16.5117V7.00864H18.5754Z" fill="white"/>
<path d="M20.9431 8.28258H20.1133L20.1186 7.77394H20.9431C21.1668 7.77394 21.3544 7.72999 21.5059 7.64207C21.6574 7.55259 21.7719 7.42465 21.8494 7.25824C21.9269 7.09027 21.9657 6.88933 21.9657 6.65542V6.47881C21.9657 6.29827 21.9437 6.13893 21.8996 6.00079C21.8556 5.86264 21.7904 5.74647 21.7041 5.65228C21.6195 5.55809 21.5147 5.48666 21.3896 5.43799C21.2646 5.38933 21.121 5.36499 20.9589 5.36499H20.0975V4.854H20.9589C21.2161 4.854 21.4504 4.89247 21.6618 4.96939C21.875 5.04631 22.0591 5.15699 22.2141 5.30141C22.3709 5.44427 22.4906 5.61539 22.5734 5.81476C22.658 6.01413 22.7003 6.23705 22.7003 6.48352V6.65542C22.7003 6.90032 22.658 7.12323 22.5734 7.32418C22.4906 7.52355 22.3709 7.69466 22.2141 7.83752C22.0591 7.98038 21.8741 8.09027 21.6592 8.16719C21.4442 8.24411 21.2055 8.28258 20.9431 8.28258ZM20.5203 4.854V8.28258H19.7936V4.854H20.5203Z" fill="white"/>
</svg>
