<svg width="21" height="19" viewBox="0 0 21 19" fill="none" xmlns="http://www.w3.org/2000/svg">
<path d="M12.6354 6.75009H18.4535C18.9358 6.75009 19.3982 6.94165 19.7392 7.28262C20.0802 7.6236 20.2717 8.08606 20.2717 8.56827V10.481C20.272 10.7186 20.2256 10.9539 20.1354 11.1737L17.3217 18.0055C17.2531 18.1721 17.1365 18.3145 16.9868 18.4147C16.8371 18.5149 16.661 18.5683 16.4808 18.5683H1.18082C0.939713 18.5683 0.708483 18.4725 0.537995 18.302C0.367507 18.1315 0.271729 17.9003 0.271729 17.6592V8.56827C0.271729 8.32716 0.367507 8.09593 0.537995 7.92545C0.708483 7.75496 0.939713 7.65918 1.18082 7.65918H4.34627C4.49182 7.65922 4.63524 7.62431 4.76449 7.55739C4.89373 7.49048 5.00502 7.3935 5.089 7.27463L10.0463 0.25009C10.1089 0.161284 10.2014 0.0978723 10.3068 0.0713539C10.4122 0.0448355 10.5236 0.0569655 10.6208 0.105545L12.2699 0.93009C12.734 1.16206 13.1048 1.54583 13.3206 2.01765C13.5364 2.48947 13.5843 3.02093 13.4563 3.52373L12.6354 6.75009ZM5.72627 9.10282V16.7501H15.8717L18.4535 10.481V8.56827H12.6354C12.3585 8.56823 12.0852 8.50494 11.8365 8.38323C11.5878 8.26152 11.3701 8.08461 11.2002 7.86599C11.0302 7.64736 10.9124 7.39281 10.8558 7.12175C10.7992 6.85068 10.8053 6.57027 10.8735 6.30191L11.6945 3.07645C11.7201 2.97584 11.7106 2.86947 11.6674 2.77502C11.6243 2.68058 11.5501 2.60377 11.4572 2.55736L10.8563 2.25736L6.57446 8.32282C6.34718 8.64463 6.05627 8.90827 5.72627 9.10282ZM3.90809 9.47736H2.08991V16.7501H3.90809V9.47736Z" fill="#121619"/>
</svg>
