<svg width="36" height="36" viewBox="0 0 36 36" fill="none" xmlns="http://www.w3.org/2000/svg">
<circle cx="17.7875" cy="18.2537" r="17.2721" transform="rotate(-1.01736 17.7875 18.2537)" fill="#2C2E37"/>
<path d="M12.7026 23.1998H21.7566C22.1733 23.1998 22.5111 23.5501 22.5111 23.9822C22.5111 24.3783 22.2273 24.7057 21.859 24.7575L21.7566 24.7647H12.7026C12.2859 24.7647 11.9481 24.4144 11.9481 23.9822C11.9481 23.5861 12.232 23.2587 12.6002 23.2069L12.7026 23.1998ZM17.1272 10.6878L17.2296 10.6807C17.6116 10.6807 17.9273 10.975 17.9772 11.3569L17.9841 11.4631V19.4837L20.2529 17.1323C20.5207 16.8545 20.9399 16.8293 21.2353 17.0566L21.3199 17.1323C21.5877 17.4101 21.6121 17.8448 21.3929 18.1511L21.3199 18.2389L17.7631 21.9273C17.4953 22.2051 17.0761 22.2304 16.7807 22.0031L16.6961 21.9273L13.1394 18.2389C12.8447 17.9333 12.8447 17.4379 13.1394 17.1323C13.4072 16.8545 13.8264 16.8293 14.1218 17.0566L14.2064 17.1323L16.4751 19.4858V11.4631C16.4751 11.067 16.759 10.7396 17.1272 10.6878Z" fill="white"/>
</svg>
