<svg width="36" height="36" viewBox="0 0 36 36" fill="none" xmlns="http://www.w3.org/2000/svg">
<circle cx="17.7876" cy="18.2537" r="17.2721" transform="rotate(-1.01736 17.7876 18.2537)" fill="#2C2E37"/>
<path d="M22.3141 12.7763L13.2601 12.7763C12.8434 12.7763 12.5056 12.426 12.5056 11.9939C12.5056 11.5977 12.7895 11.2704 13.1577 11.2186L13.2601 11.2114L22.3141 11.2114C22.7308 11.2114 23.0686 11.5617 23.0686 11.9939C23.0686 12.39 22.7848 12.7173 22.4165 12.7692L22.3141 12.7763ZM17.8895 25.2883L17.7871 25.2954C17.4051 25.2954 17.0895 25.0011 17.0395 24.6191L17.0326 24.513L17.0326 16.4924L14.7639 18.8438C14.496 19.1215 14.0768 19.1468 13.7815 18.9195L13.6968 18.8438C13.429 18.566 13.4046 18.1313 13.6238 17.825L13.6968 17.7372L17.2536 14.0487C17.5215 13.7709 17.9406 13.7457 18.236 13.973L18.3206 14.0487L21.8774 17.7372C22.172 18.0428 22.172 18.5382 21.8774 18.8438C21.6095 19.1215 21.1903 19.1468 20.895 18.9195L20.8103 18.8438L18.5416 16.4903L18.5416 24.513C18.5416 24.9091 18.2578 25.2365 17.8895 25.2883Z" fill="white"/>
</svg>
