<svg width="21" height="15" viewBox="0 0 21 15" fill="none" xmlns="http://www.w3.org/2000/svg">
<path d="M20.2717 3.73664C20.0279 4.52936 19.7788 5.32364 19.5365 6.11844C18.79 8.569 18.0452 11.0203 17.3019 13.4722C17.1588 13.9448 16.9061 14.1338 16.4178 14.1338C12.3143 14.1338 8.21058 14.1338 4.10671 14.1338C3.63202 14.1338 3.37561 13.9401 3.23409 13.4821C2.26435 10.2904 1.30191 7.09654 0.319634 3.90845C0.152005 3.36483 0.443921 2.88283 0.889889 2.82486C1.0949 2.80651 1.30103 2.84423 1.48625 2.934C2.81319 3.56588 4.13177 4.21498 5.45505 4.85835C5.51876 4.88968 5.58352 4.91892 5.68587 4.96644C5.70939 4.92338 5.73591 4.88202 5.76524 4.84268C7.05336 3.35543 8.34148 1.86904 9.6296 0.383526C10.0066 -0.051475 10.5273 -0.0509529 10.9064 0.386659L14.7603 4.82963C14.7937 4.86879 14.8303 4.90535 14.8752 4.95443C14.9514 4.91788 15.0266 4.88289 15.1013 4.84634C16.4114 4.20889 17.7213 3.57092 19.031 2.93244C19.2398 2.82799 19.4487 2.75906 19.6869 2.82277C20.0049 2.9105 20.1673 3.13662 20.2717 3.42384V3.73664ZM2.31813 5.07141C2.34216 5.16071 2.35208 5.20301 2.36461 5.24478C3.09257 7.63407 3.81792 10.0241 4.54066 12.4147C4.58766 12.5714 4.67069 12.5714 4.79498 12.5714C8.44314 12.5714 12.0911 12.5724 15.7389 12.5745C15.9003 12.5745 15.9609 12.5249 16.0058 12.3761C16.7202 10.0087 17.4377 7.64417 18.1583 5.28238C18.1756 5.22546 18.1855 5.16645 18.2059 5.07976C18.0967 5.13199 18.0205 5.16697 17.9448 5.20405L15.1374 6.56963C14.6543 6.80463 14.3462 6.74039 13.9963 6.33673L10.5534 2.36584C10.461 2.26139 10.3675 2.15695 10.2688 2.04363C10.2223 2.09585 10.191 2.1251 10.1612 2.15904L6.52611 6.35135C6.19346 6.73465 5.87387 6.80149 5.41536 6.57903C5.10517 6.42811 4.79602 6.27563 4.48583 6.12471L2.31813 5.07141Z" fill="#121619"/>
</svg>
