<svg width="5" height="21" viewBox="0 0 5 21" fill="none" xmlns="http://www.w3.org/2000/svg">
<path d="M2.68767 5.04951C2.23143 5.04849 1.78573 4.91223 1.40691 4.65795C1.0281 4.40367 0.733157 4.04279 0.559411 3.62092C0.385665 3.19905 0.340893 2.73514 0.430758 2.28783C0.520623 1.84053 0.741104 1.4299 1.0643 1.10788C1.3875 0.785846 1.79892 0.566876 2.24655 0.47863C2.69417 0.390384 3.15791 0.436826 3.57915 0.612097C4.00038 0.787368 4.3602 1.0836 4.61311 1.46333C4.86601 1.84306 5.00067 2.28924 5.00004 2.74549C4.99783 3.35732 4.75321 3.94333 4.3198 4.37518C3.88638 4.80703 3.29951 5.04951 2.68767 5.04951Z" fill="white"/>
<path d="M2.68696 12.7419C2.23069 12.7409 1.78497 12.6046 1.40614 12.3503C1.02731 12.096 0.732393 11.735 0.558666 11.3131C0.384939 10.8912 0.340221 10.4273 0.430138 9.97998C0.520055 9.53266 0.740577 9.12203 1.06384 8.80002C1.3871 8.47802 1.79857 8.25911 2.24624 8.17093C2.69391 8.08276 3.15768 8.1293 3.5789 8.30467C4.00013 8.48004 4.35988 8.77637 4.61271 9.15619C4.86554 9.536 5.00009 9.98224 4.99932 10.4385C4.99695 11.0502 4.75229 11.6361 4.31889 12.0678C3.8855 12.4995 3.29868 12.7419 2.68696 12.7419Z" fill="white"/>
<path d="M2.69469 15.8206C3.15096 15.8216 3.59669 15.9579 3.97551 16.2122C4.35434 16.4665 4.64926 16.8274 4.82299 17.2493C4.99671 17.6712 5.04143 18.1351 4.95151 18.5825C4.8616 19.0298 4.64108 19.4404 4.31781 19.7624C3.99455 20.0844 3.58308 20.3033 3.13541 20.3915C2.68774 20.4797 2.22397 20.4331 1.80275 20.2578C1.38152 20.0824 1.02178 19.7861 0.768945 19.4063C0.516114 19.0265 0.381566 18.5802 0.382327 18.1239C0.384706 17.5122 0.629363 16.9264 1.06276 16.4947C1.49615 16.0629 2.08297 15.8206 2.69469 15.8206Z" fill="white"/>
</svg>
