<svg width="21" height="21" viewBox="0 0 21 21" fill="none" xmlns="http://www.w3.org/2000/svg">
<path fill-rule="evenodd" clip-rule="evenodd" d="M14.8583 2.60493C14.8096 2.55617 14.7305 2.55617 14.6818 2.60493L11.6848 5.60186L14.77 8.68708L17.767 5.69015C17.8157 5.64139 17.8157 5.56234 17.767 5.51358L14.8583 2.60493ZM13.3558 10.1013L10.2706 7.01607L2.27173 15.015V18.1002H5.35695L13.3558 10.1013ZM9.56142 4.89684L0.564622 13.8936C0.377085 14.0812 0.271729 14.3355 0.271729 14.6007V19.1002L1.27173 20.1002L5.77393 20.1002H19.2695C19.8218 20.1002 20.2695 19.6525 20.2695 19.1002C20.2695 18.5479 19.8218 18.1002 19.2695 18.1002H8.18538L15.4772 10.8084L19.1812 7.10437C20.011 6.27456 20.011 4.92917 19.1812 4.09936L16.2725 1.19072C15.4427 0.360907 14.0973 0.360907 13.2675 1.19072L9.56559 4.89266C9.56489 4.89336 9.5642 4.89405 9.5635 4.89475C9.56281 4.89544 9.56211 4.89614 9.56142 4.89684Z" fill="#121619"/>
</svg>
