<svg width="36" height="36" viewBox="0 0 36 36" fill="none" xmlns="http://www.w3.org/2000/svg">
<circle cx="18.2057" cy="18.2537" r="17.2721" transform="rotate(-1.01736 18.2057 18.2537)" fill="#3A89FF"/>
<path d="M13.121 23.1998H22.175C22.5917 23.1998 22.9295 23.5501 22.9295 23.9822C22.9295 24.3783 22.6456 24.7057 22.2773 24.7575L22.175 24.7647H13.121C12.7043 24.7647 12.3665 24.4144 12.3665 23.9822C12.3665 23.5861 12.6503 23.2587 13.0186 23.2069L13.121 23.1998ZM17.5456 10.6878L17.648 10.6807C18.0299 10.6807 18.3456 10.975 18.3956 11.3569L18.4025 11.4631V19.4837L20.6712 17.1323C20.9391 16.8545 21.3582 16.8293 21.6536 17.0566L21.7382 17.1323C22.0061 17.4101 22.0304 17.8448 21.8113 18.1511L21.7382 18.2389L18.1815 21.9273C17.9136 22.2051 17.4944 22.2304 17.1991 22.0031L17.1144 21.9273L13.5577 18.2389C13.263 17.9333 13.263 17.4379 13.5577 17.1323C13.8256 16.8545 14.2447 16.8293 14.5401 17.0566L14.6247 17.1323L16.8935 19.4858V11.4631C16.8935 11.067 17.1773 10.7396 17.5456 10.6878Z" fill="white"/>
</svg>
