<svg width="36" height="36" viewBox="0 0 36 36" fill="none" xmlns="http://www.w3.org/2000/svg">
<circle cx="18.2892" cy="17.6092" r="17.2721" transform="rotate(-1.01736 18.2892 17.6092)" fill="#FFA620"/>
<path d="M22.6034 12.1318L13.5494 12.1318C13.1327 12.1318 12.7949 11.7815 12.7949 11.3493C12.7949 10.9532 13.0788 10.6258 13.447 10.574L13.5494 10.5669L22.6034 10.5669C23.0201 10.5669 23.3579 10.9172 23.3579 11.3493C23.3579 11.7454 23.0741 12.0728 22.7058 12.1246L22.6034 12.1318ZM18.1788 24.6437L18.0764 24.6509C17.6944 24.6509 17.3788 24.3565 17.3288 23.9746L17.3219 23.8684L17.3219 15.8479L15.0532 18.1992C14.7853 18.477 14.3661 18.5023 14.0708 18.275L13.9862 18.1992C13.7183 17.9214 13.6939 17.4867 13.9131 17.1804L13.9862 17.0927L17.5429 13.4042C17.8108 13.1264 18.2299 13.1012 18.5253 13.3284L18.6099 13.4042L22.1667 17.0927C22.4613 17.3982 22.4613 17.8937 22.1667 18.1992C21.8988 18.477 21.4796 18.5023 21.1843 18.275L21.0996 18.1992L18.8309 15.8458L18.8309 23.8684C18.8309 24.2646 18.5471 24.5919 18.1788 24.6437Z" fill="white"/>
</svg>
