<svg width="21" height="18" viewBox="0 0 21 18" fill="none" xmlns="http://www.w3.org/2000/svg">
<path fill-rule="evenodd" clip-rule="evenodd" d="M12.2717 1.1001C12.2717 0.547813 12.7194 0.100098 13.2717 0.100098C16.0332 0.100098 18.2717 2.33867 18.2717 5.1001C18.2717 7.86152 16.0332 10.1001 13.2717 10.1001C12.7194 10.1001 12.2717 9.65238 12.2717 9.1001C12.2717 8.54781 12.7194 8.1001 13.2717 8.1001C14.9286 8.1001 16.2717 6.75695 16.2717 5.1001C16.2717 3.44324 14.9286 2.1001 13.2717 2.1001C12.7194 2.1001 12.2717 1.65238 12.2717 1.1001ZM2.27173 16.1001C2.27173 15.4339 2.67678 14.7084 3.58379 14.1037C4.4838 13.5037 5.78476 13.1001 7.27173 13.1001C8.75869 13.1001 10.0597 13.5037 10.9597 14.1037C11.8667 14.7084 12.2717 15.4339 12.2717 16.1001C12.2717 16.6524 12.7194 17.1001 13.2717 17.1001C13.824 17.1001 14.2717 16.6524 14.2717 16.1001C14.2717 14.5571 13.3336 13.2827 12.0691 12.4396C10.7975 11.5919 9.09847 11.1001 7.27173 11.1001C5.44499 11.1001 3.74595 11.5919 2.47439 12.4396C1.20982 13.2827 0.271729 14.5571 0.271729 16.1001C0.271729 16.6524 0.719444 17.1001 1.27173 17.1001C1.82401 17.1001 2.27173 16.6524 2.27173 16.1001ZM15.5011 11.3544C14.9635 11.2277 14.4251 11.5608 14.2984 12.0983C14.1717 12.6359 14.5048 13.1744 15.0424 13.301C17.1993 13.8093 18.2717 15.0575 18.2717 16.1001C18.2717 16.6524 18.7194 17.1001 19.2717 17.1001C19.824 17.1001 20.2717 16.6524 20.2717 16.1001C20.2717 13.6595 18.0049 11.9443 15.5011 11.3544ZM4.27173 5.1001C4.27173 3.44324 5.61487 2.1001 7.27173 2.1001C8.92858 2.1001 10.2717 3.44324 10.2717 5.1001C10.2717 6.75695 8.92858 8.1001 7.27173 8.1001C5.61487 8.1001 4.27173 6.75695 4.27173 5.1001ZM7.27173 0.100098C4.5103 0.100098 2.27173 2.33867 2.27173 5.1001C2.27173 7.86152 4.5103 10.1001 7.27173 10.1001C10.0332 10.1001 12.2717 7.86152 12.2717 5.1001C12.2717 2.33867 10.0332 0.100098 7.27173 0.100098Z" fill="#121619"/>
</svg>
