<svg width="268" height="203" viewBox="0 0 268 203" fill="none" xmlns="http://www.w3.org/2000/svg">
<path d="M121.239 126.637C115.715 123.438 115.684 118.22 121.178 115.06C126.671 111.9 135.631 111.869 141.163 115.06C146.695 118.251 146.71 123.477 141.224 126.637C135.738 129.797 126.771 129.827 121.239 126.637ZM141.592 114.808C135.823 111.479 126.473 111.479 120.742 114.808C115.011 118.136 115.041 123.561 120.803 126.889C126.564 130.217 135.93 130.217 141.661 126.889C147.391 123.561 147.361 118.144 141.592 114.815" fill="url(#paint0_linear_192_4401)"/>
<g opacity="0.6">
<path d="M162.556 102.627C179.963 112.673 180.055 129.024 162.763 139.078C145.471 149.132 117.237 149.124 99.8305 139.078C82.4236 129.032 82.3394 112.665 99.6239 102.627C116.908 92.588 145.15 92.5727 162.556 102.627ZM98.4762 139.866C116.633 150.348 146.083 150.348 164.133 139.866C182.182 129.383 182.09 112.321 163.926 101.831C145.762 91.3409 116.312 91.3409 98.2619 101.831C80.2123 112.321 80.3118 129.376 98.4762 139.858" fill="url(#paint1_linear_192_4401)"/>
</g>
<g opacity="0.4">
<path d="M186.276 88.8389C216.881 106.498 217.011 135.206 186.635 152.866C156.259 170.525 106.686 170.517 76.1036 152.866C45.5211 135.214 45.3911 106.483 75.744 88.8389C106.097 71.1948 155.701 71.1872 186.276 88.8389ZM73.7241 154.289C105.615 172.652 157.346 172.652 189.03 154.289C220.714 135.925 220.577 105.894 188.678 87.4846C156.78 69.0754 105.056 69.0677 73.3492 87.4846C41.6419 105.901 41.8255 135.864 73.7241 154.281" fill="url(#paint2_linear_192_4401)"/>
</g>
<g opacity="0.1">
<path d="M213.912 72.771C259.821 99.2906 260.088 142.398 214.456 168.941C168.823 195.484 94.3291 195.461 48.4209 168.941C2.5127 142.421 2.28317 99.2677 47.8853 72.771C93.4875 46.2743 168.012 46.2513 213.92 72.771M44.8248 171.022C92.7377 198.69 170.445 198.69 218.044 171.022C265.643 143.355 265.429 98.3342 217.516 70.6668C169.603 42.9995 91.896 43.0071 44.2586 70.6668C-3.37886 98.3265 -3.08809 143.355 44.8248 170.999" fill="url(#paint3_linear_192_4401)"/>
</g>
<path d="M112.34 77.2549H104.375L59.9974 51.4927C59.0444 50.9398 57.9622 50.6486 56.8604 50.6486C55.7586 50.6486 54.6764 50.9398 53.7233 51.4927L8.03699 76.7422H0.00305359V83.7279C-0.000954087 84.4505 0.186719 85.1612 0.546948 85.7875C0.907177 86.4139 1.42707 86.9335 2.05361 87.2935L53.3637 116.797C54.3175 117.348 55.3994 117.638 56.5008 117.638C57.6021 117.638 58.684 117.348 59.6378 116.797L110.29 87.7755C110.916 87.4168 111.435 86.8985 111.796 86.2735C112.156 85.6484 112.344 84.939 112.34 84.2176V77.2549Z" fill="url(#paint4_linear_192_4401)"/>
<path d="M53.3637 109.827L2.05364 80.3229C1.42923 79.9622 0.910753 79.4436 0.550269 78.8191C0.189785 78.1945 0 77.4861 0 76.765C0 76.0439 0.189785 75.3355 0.550269 74.711C0.910753 74.0865 1.42923 73.5678 2.05364 73.2072L53.6927 44.4916C54.6465 43.9409 55.7285 43.651 56.8298 43.651C57.9312 43.651 59.0131 43.9409 59.9669 44.4916L110.298 73.6892C110.922 74.0499 111.44 74.5685 111.801 75.1931C112.161 75.8176 112.351 76.526 112.351 77.2471C112.351 77.9682 112.161 78.6766 111.801 79.3011C111.44 79.9256 110.922 80.4443 110.298 80.805L59.6455 109.827C58.6916 110.381 57.6079 110.673 56.5046 110.673C55.4013 110.673 54.3177 110.381 53.3637 109.827Z" fill="url(#paint5_linear_192_4401)"/>
<path d="M53.8381 104.325L11.1511 79.7874C10.6315 79.4881 10.1998 79.0572 9.89968 78.538C9.59955 78.0189 9.44153 77.4298 9.44153 76.8301C9.44153 76.2304 9.59955 75.6413 9.89968 75.1222C10.1998 74.603 10.6315 74.1721 11.1511 73.8729L54.083 50.0006C54.876 49.5418 55.7759 49.3003 56.6921 49.3003C57.6082 49.3003 58.5082 49.5418 59.3012 50.0006L101.147 74.2784C101.666 74.5787 102.097 75.0104 102.397 75.5301C102.697 76.0499 102.855 76.6394 102.855 77.2395C102.855 77.8395 102.697 78.429 102.397 78.9488C102.097 79.4685 101.666 79.9002 101.147 80.2005L59.064 104.333C58.2691 104.791 57.3675 105.032 56.45 105.03C55.5325 105.029 54.6316 104.786 53.8381 104.325Z" fill="url(#paint6_linear_192_4401)"/>
<path d="M11.1511 77.6603L54.083 53.788C54.8767 53.3315 55.7764 53.0913 56.6921 53.0913C57.6078 53.0913 58.5074 53.3315 59.3012 53.788L101.147 78.0658C101.591 78.3301 101.969 78.6942 102.248 79.1294C102.511 78.743 102.692 78.3067 102.779 77.8475C102.866 77.3883 102.858 76.9162 102.754 76.4604C102.651 76.0046 102.455 75.575 102.178 75.1983C101.902 74.8216 101.55 74.5058 101.147 74.2707L59.3548 50.0006C58.5617 49.5418 57.6618 49.3003 56.7456 49.3003C55.8295 49.3003 54.9295 49.5418 54.1365 50.0006L11.1511 73.8729C10.7458 74.1065 10.393 74.4214 10.115 74.7977C9.83699 75.1741 9.63972 75.6038 9.53556 76.0599C9.4314 76.5161 9.4226 76.9888 9.50969 77.4486C9.59678 77.9083 9.77789 78.345 10.0417 78.7315C10.3243 78.2939 10.7039 77.9274 11.1511 77.6603Z" fill="url(#paint7_linear_192_4401)"/>
<path d="M110.29 79.5884L59.6378 108.61C58.6841 109.161 57.6021 109.451 56.5008 109.451C55.3994 109.451 54.3175 109.161 53.3637 108.61L2.05363 79.0987C1.52222 78.7902 1.0682 78.3645 0.726124 77.854C0.384045 77.3435 0.162925 76.7618 0.0795828 76.153C-0.0519604 76.9661 0.0663054 77.8001 0.418767 78.5446C0.771228 79.2892 1.34129 79.9093 2.05363 80.3229L53.3637 109.827C54.3167 110.38 55.399 110.671 56.5008 110.671C57.6026 110.671 58.6848 110.38 59.6378 109.827L110.29 80.8356C111.004 80.4235 111.575 79.8037 111.928 79.0587C112.28 78.3137 112.398 77.4789 112.264 76.6656C112.179 77.2709 111.957 77.8487 111.615 78.3552C111.273 78.8617 110.82 79.2835 110.29 79.5884Z" fill="white"/>
<g style="mix-blend-mode:overlay" opacity="0.8">
<path d="M53.9988 97.3244L14.0663 74.3703C13.5801 74.0896 13.1764 73.6859 12.8957 73.1997C12.615 72.7135 12.4672 72.1619 12.4672 71.6005C12.4672 71.0391 12.615 70.4876 12.8957 70.0014C13.1764 69.5152 13.5801 69.1114 14.0663 68.8307L54.259 46.4887C55.0011 46.0603 55.8429 45.8347 56.6998 45.8347C57.5566 45.8347 58.3984 46.0603 59.1405 46.4887L98.3155 69.2133C98.7998 69.4955 99.2016 69.8998 99.4809 70.3858C99.7602 70.8718 99.9071 71.4226 99.9071 71.9831C99.9071 72.5436 99.7602 73.0943 99.4809 73.5803C99.2016 74.0663 98.7998 74.4706 98.3155 74.7529L58.8804 97.3474C58.137 97.7746 57.2939 97.9975 56.4365 97.9935C55.5791 97.9894 54.7381 97.7586 53.9988 97.3244Z" fill="#00E3F8"/>
</g>
<g style="mix-blend-mode:overlay" opacity="0.6">
<path d="M54.4961 87.2627L23.8906 69.6646C23.519 69.4485 23.2107 69.1387 22.9963 68.7661C22.782 68.3935 22.6691 67.9712 22.6691 67.5413C22.6691 67.1114 22.782 66.6891 22.9963 66.3165C23.2107 65.9439 23.519 65.6341 23.8906 65.4181L54.6644 48.3096C55.2337 47.9827 55.8787 47.8107 56.5352 47.8107C57.1917 47.8107 57.8367 47.9827 58.406 48.3096L88.4299 65.7241C88.8016 65.9402 89.1099 66.25 89.3243 66.6226C89.5387 66.9952 89.6515 67.4175 89.6515 67.8474C89.6515 68.2772 89.5387 68.6995 89.3243 69.0721C89.1099 69.4447 88.8016 69.7545 88.4299 69.9706L58.2453 87.2627C57.6764 87.5948 57.0295 87.7698 56.3707 87.7698C55.712 87.7698 55.065 87.5948 54.4961 87.2627Z" fill="#00E3F8"/>
</g>
<path d="M42.1621 38.9443V57.958" stroke="url(#paint8_linear_192_4401)" stroke-width="0.75" stroke-linecap="round" stroke-linejoin="round"/>
<path d="M42.1621 41.0714C43.3369 41.0714 44.2892 40.1191 44.2892 38.9443C44.2892 37.7696 43.3369 36.8173 42.1621 36.8173C40.9874 36.8173 40.035 37.7696 40.035 38.9443C40.035 40.1191 40.9874 41.0714 42.1621 41.0714Z" fill="url(#paint9_radial_192_4401)"/>
<path d="M37.3647 35.241C37.995 34.6102 38.7435 34.1097 39.5673 33.7682C40.3911 33.4267 41.2742 33.251 42.166 33.251C43.0578 33.251 43.9408 33.4267 44.7646 33.7682C45.5885 34.1097 46.3369 34.6102 46.9672 35.241" stroke="url(#paint10_linear_192_4401)" stroke-width="2" stroke-linecap="round" stroke-linejoin="round"/>
<path d="M35.1841 31.7428C37.0376 29.8916 39.5502 28.8518 42.1698 28.8518C44.7894 28.8518 47.3019 29.8916 49.1555 31.7428" stroke="url(#paint11_linear_192_4401)" stroke-width="2" stroke-linecap="round" stroke-linejoin="round"/>
<path d="M32.881 28.1294C34.1004 26.9088 35.5484 25.9405 37.1423 25.2799C38.7361 24.6192 40.4445 24.2792 42.1698 24.2792C43.8951 24.2792 45.6036 24.6192 47.1974 25.2799C48.7912 25.9405 50.2392 26.9088 51.4586 28.1294" stroke="url(#paint12_linear_192_4401)" stroke-width="2" stroke-linecap="round" stroke-linejoin="round"/>
<path d="M265.773 72.8551H257.801L213.423 47.0929C212.47 46.5422 211.39 46.2522 210.289 46.2522C209.189 46.2522 208.109 46.5422 207.156 47.0929L161.462 72.3424H153.467V79.3358C153.462 80.0566 153.648 80.7658 154.007 81.3909C154.366 82.0161 154.884 82.5346 155.509 82.8937L206.82 112.397C207.773 112.95 208.855 113.242 209.957 113.242C211.058 113.242 212.141 112.95 213.094 112.397L263.746 83.3757C264.374 83.0186 264.895 82.5009 265.257 81.8756C265.619 81.2504 265.807 80.5402 265.804 79.8178L265.773 72.8551Z" fill="url(#paint13_linear_192_4401)"/>
<path d="M206.789 105.435L155.479 75.9234C154.855 75.5627 154.336 75.0441 153.976 74.4196C153.615 73.795 153.425 73.0866 153.425 72.3655C153.425 71.6444 153.615 70.936 153.976 70.3115C154.336 69.687 154.855 69.1683 155.479 68.8076L207.118 40.0997C208.07 39.5475 209.151 39.2566 210.251 39.2566C211.352 39.2566 212.433 39.5475 213.384 40.0997L263.715 69.2973C264.34 69.658 264.858 70.1767 265.219 70.8012C265.579 71.4257 265.769 72.1341 265.769 72.8552C265.769 73.5763 265.579 74.2847 265.219 74.9092C264.858 75.5338 264.34 76.0524 263.715 76.4131L213.063 105.435C212.11 105.988 211.028 106.279 209.926 106.279C208.824 106.279 207.742 105.988 206.789 105.435Z" fill="url(#paint14_linear_192_4401)"/>
<path d="M207.263 99.9639L164.599 75.4336C164.08 75.1333 163.648 74.7016 163.349 74.1819C163.049 73.6621 162.891 73.0726 162.891 72.4726C162.891 71.8725 163.049 71.283 163.349 70.7632C163.648 70.2435 164.08 69.8118 164.599 69.5115L207.539 45.6392C208.331 45.179 209.231 44.9365 210.148 44.9365C211.064 44.9365 211.965 45.179 212.757 45.6392L254.602 69.9094C255.122 70.2097 255.553 70.6414 255.853 71.1611C256.153 71.6809 256.311 72.2704 256.311 72.8704C256.311 73.4705 256.153 74.06 255.853 74.5798C255.553 75.0995 255.122 75.5312 254.602 75.8315L212.52 99.9639C211.722 100.43 210.815 100.675 209.892 100.675C208.968 100.675 208.061 100.43 207.263 99.9639Z" fill="url(#paint15_linear_192_4401)"/>
<path d="M164.607 73.2683L207.539 49.396C208.332 48.9373 209.232 48.6957 210.148 48.6957C211.064 48.6957 211.964 48.9373 212.757 49.396L254.602 73.6738C255.047 73.9381 255.424 74.3022 255.704 74.7374C255.967 74.351 256.148 73.9147 256.235 73.4555C256.322 72.9964 256.313 72.5242 256.21 72.0684C256.107 71.6126 255.911 71.183 255.634 70.8063C255.357 70.4296 255.006 70.1138 254.602 69.8787L212.757 45.6392C211.965 45.179 211.064 44.9365 210.148 44.9365C209.231 44.9365 208.331 45.179 207.539 45.6392L164.607 69.5115C164.202 69.7459 163.851 70.0612 163.573 70.4376C163.296 70.814 163.099 71.2435 162.995 71.6994C162.891 72.1552 162.882 72.6276 162.968 73.087C163.055 73.5465 163.235 73.9833 163.498 74.3701C163.773 73.919 164.154 73.5411 164.607 73.2683Z" fill="url(#paint16_linear_192_4401)"/>
<path d="M263.715 75.1888L213.063 104.218C212.109 104.769 211.027 105.059 209.926 105.059C208.825 105.059 207.743 104.769 206.789 104.218L155.479 74.7145C154.947 74.4068 154.492 73.9813 154.15 73.4707C153.808 72.9601 153.587 72.3778 153.505 71.7687C153.373 72.5819 153.492 73.4158 153.844 74.1604C154.196 74.9049 154.767 75.525 155.479 75.9387L206.789 105.45C207.742 106.003 208.824 106.294 209.926 106.294C211.028 106.294 212.11 106.003 213.063 105.45L263.715 76.4284C264.43 76.0166 265.002 75.3971 265.356 74.6522C265.71 73.9074 265.829 73.0724 265.697 72.2584C265.612 72.8655 265.389 73.4451 265.045 73.953C264.702 74.4609 264.247 74.8836 263.715 75.1888Z" fill="white"/>
<g style="mix-blend-mode:overlay" opacity="0.8">
<path d="M207.416 92.9324L167.476 69.9783C166.992 69.696 166.59 69.2917 166.311 68.8057C166.032 68.3197 165.885 67.769 165.885 67.2085C165.885 66.648 166.032 66.0972 166.311 65.6112C166.59 65.1252 166.992 64.7209 167.476 64.4387L207.669 42.089C208.412 41.6607 209.255 41.4352 210.113 41.4352C210.972 41.4352 211.815 41.6607 212.558 42.089L251.725 64.8213C252.212 65.102 252.615 65.5057 252.896 65.9919C253.177 66.4781 253.325 67.0296 253.325 67.591C253.325 68.1525 253.177 68.704 252.896 69.1902C252.615 69.6764 252.212 70.0801 251.725 70.3608L212.298 92.9477C211.555 93.3738 210.712 93.5967 209.855 93.594C208.998 93.5914 208.157 93.3632 207.416 92.9324Z" fill="#00E3F8"/>
</g>
<g style="mix-blend-mode:overlay" opacity="0.6">
<path d="M207.929 82.8633L177.324 65.2652C176.952 65.0491 176.644 64.7393 176.429 64.3667C176.215 63.9941 176.102 63.5718 176.102 63.1419C176.102 62.7121 176.215 62.2897 176.429 61.9172C176.644 61.5446 176.952 61.2347 177.324 61.0187L208.097 43.9102C208.664 43.581 209.309 43.4076 209.964 43.4076C210.62 43.4076 211.264 43.581 211.831 43.9102L241.825 61.3094C242.196 61.5244 242.505 61.8335 242.72 62.2055C242.934 62.5775 243.047 62.9994 243.047 63.4289C243.047 63.8583 242.934 64.2802 242.72 64.6522C242.505 65.0242 242.196 65.3333 241.825 65.5483L211.632 82.848C211.07 83.1739 210.432 83.3468 209.783 83.3495C209.133 83.3522 208.494 83.1845 207.929 82.8633Z" fill="#00E3F8"/>
</g>
<path d="M188.135 117.715H180.109L135.409 91.7769C134.45 91.2222 133.361 90.9301 132.253 90.9301C131.145 90.9301 130.056 91.2222 129.097 91.7769L83.074 117.218H75.0401V124.257C75.0325 124.983 75.2194 125.698 75.5813 126.328C75.9432 126.957 76.467 127.479 77.0983 127.838L128.753 157.548C129.712 158.104 130.8 158.397 131.909 158.397C133.017 158.397 134.106 158.104 135.065 157.548L186.054 128.335C186.686 127.976 187.211 127.455 187.575 126.825C187.94 126.196 188.13 125.481 188.127 124.754L188.135 117.715Z" fill="url(#paint17_linear_192_4401)"/>
<path d="M128.76 150.509L77.1059 120.799C76.4785 120.435 75.9577 119.913 75.5957 119.284C75.2337 118.656 75.0431 117.943 75.0431 117.218C75.0431 116.493 75.2337 115.78 75.5957 115.152C75.9577 114.523 76.4785 114.001 77.1059 113.637L129.089 84.7379C130.048 84.1817 131.137 83.8887 132.246 83.8887C133.354 83.8887 134.443 84.1817 135.402 84.7379L186.061 114.135C186.689 114.498 187.21 115.021 187.572 115.649C187.934 116.278 188.124 116.99 188.124 117.715C188.124 118.441 187.934 119.153 187.572 119.782C187.21 120.41 186.689 120.932 186.061 121.296L135.103 150.517C134.14 151.076 133.045 151.37 131.931 151.369C130.817 151.367 129.723 151.071 128.76 150.509Z" fill="url(#paint18_linear_192_4401)"/>
<path d="M129.235 144.97L86.2876 120.263C85.7648 119.962 85.3306 119.528 85.0286 119.006C84.7267 118.483 84.5678 117.89 84.5678 117.287C84.5678 116.683 84.7267 116.091 85.0286 115.568C85.3306 115.046 85.7648 114.612 86.2876 114.311L129.503 90.2776C130.301 89.8155 131.208 89.5721 132.131 89.5721C133.054 89.5721 133.96 89.8155 134.759 90.2776L176.88 114.716C177.401 115.019 177.833 115.453 178.133 115.976C178.434 116.498 178.592 117.09 178.592 117.692C178.592 118.295 178.434 118.887 178.133 119.409C177.833 119.932 177.401 120.366 176.88 120.669L134.476 144.962C133.68 145.424 132.777 145.668 131.856 145.669C130.936 145.67 130.032 145.429 129.235 144.97Z" fill="url(#paint19_linear_192_4401)"/>
<path d="M86.2952 118.128L129.51 94.0954C130.309 93.6333 131.216 93.39 132.138 93.39C133.061 93.39 133.968 93.6333 134.767 94.0954L176.887 118.534C177.335 118.803 177.717 119.169 178.005 119.605C178.268 119.216 178.449 118.777 178.536 118.316C178.623 117.854 178.614 117.379 178.509 116.921C178.404 116.463 178.206 116.032 177.927 115.653C177.648 115.275 177.294 114.959 176.887 114.723L134.767 90.285C133.968 89.8229 133.061 89.5796 132.138 89.5796C131.216 89.5796 130.309 89.8229 129.51 90.285L86.2952 114.318C85.8874 114.553 85.5325 114.87 85.2528 115.249C84.9732 115.627 84.7747 116.06 84.6698 116.519C84.5649 116.978 84.5559 117.453 84.6434 117.916C84.7309 118.379 84.9129 118.818 85.1781 119.207C85.4583 118.763 85.8415 118.393 86.2952 118.128Z" fill="url(#paint20_linear_192_4401)"/>
<path d="M186.061 120.064L135.103 149.285C134.144 149.839 133.055 150.131 131.947 150.131C130.839 150.131 129.75 149.839 128.791 149.285L77.1059 119.574C76.5707 119.264 76.1137 118.835 75.7701 118.32C75.4266 117.806 75.2056 117.219 75.1242 116.606C74.9895 117.423 75.107 118.262 75.461 119.011C75.815 119.76 76.3888 120.384 77.1059 120.799L128.76 150.509C129.72 151.064 130.808 151.356 131.917 151.356C133.025 151.356 134.113 151.064 135.073 150.509L186.061 121.288C186.78 120.872 187.355 120.248 187.711 119.498C188.068 118.748 188.189 117.908 188.058 117.088C187.976 117.704 187.753 118.292 187.407 118.808C187.06 119.324 186.6 119.754 186.061 120.064Z" fill="white"/>
<path opacity="0.5" d="M188.395 35.8303C188.668 35.1271 188.75 34.3642 188.632 33.6191V33.2748H188.533C188.401 32.7277 188.158 32.2134 187.82 31.7634C187.482 31.3134 187.055 30.9373 186.566 30.658L135.409 0.978364C134.44 0.416036 133.339 0.119873 132.219 0.119873C131.098 0.119873 129.997 0.416036 129.028 0.978364L76.5397 30.1683C75.9748 30.4876 75.4936 30.9363 75.1358 31.4776C74.778 32.019 74.5537 32.6376 74.4815 33.2825V33.3513C74.4262 33.9398 74.4913 34.5333 74.6728 35.0958L83.4336 115.894C83.2958 116.609 83.3848 117.348 83.688 118.009C83.9911 118.671 84.4934 119.221 85.1246 119.582L129.143 144.901C129.957 145.371 130.881 145.618 131.821 145.618C132.761 145.618 133.685 145.371 134.499 144.901L177.959 119.995C178.609 119.62 179.122 119.046 179.423 118.357C179.723 117.669 179.794 116.902 179.627 116.17L188.395 35.8303Z" fill="url(#paint21_linear_192_4401)"/>
<path d="M131.591 135.505L94.6505 114.188L103.541 101.525L159.282 102.52L167.882 114.777L131.591 135.505Z" fill="url(#paint22_linear_192_4401)"/>
<path d="M129.395 119.093L103.993 103.958C103.744 103.812 103.537 103.602 103.394 103.351C103.25 103.101 103.175 102.816 103.175 102.527C103.175 102.238 103.25 101.954 103.394 101.703C103.537 101.452 103.744 101.243 103.993 101.097L129.77 86.3677C130.278 86.0727 130.855 85.9174 131.442 85.9174C132.029 85.9174 132.606 86.0727 133.114 86.3677L158.509 101.502C158.76 101.647 158.968 101.856 159.113 102.107C159.258 102.358 159.334 102.643 159.334 102.933C159.334 103.223 159.258 103.508 159.113 103.759C158.968 104.01 158.76 104.219 158.509 104.364L132.724 119.093C132.218 119.386 131.644 119.541 131.06 119.541C130.475 119.541 129.901 119.386 129.395 119.093Z" fill="url(#paint23_linear_192_4401)"/>
<path d="M131.346 70.4908V115.167" stroke="url(#paint24_linear_192_4401)" stroke-width="0.75" stroke-linecap="round" stroke-linejoin="round"/>
<path d="M131.109 115.167L109.999 102.581L131.423 90.3463L152.533 102.925L131.109 115.167Z" stroke="url(#paint25_linear_192_4401)" stroke-width="0.75" stroke-linecap="round" stroke-linejoin="round"/>
<path d="M131.148 100.798L114.896 91.1189L131.385 81.7001L147.636 91.379L131.148 100.798Z" stroke="url(#paint26_linear_192_4401)" stroke-width="0.75" stroke-linecap="round" stroke-linejoin="round"/>
<path d="M137.284 79.6954L142.854 107.738" stroke="url(#paint27_linear_192_4401)" stroke-width="0.75" stroke-linecap="round" stroke-linejoin="round"/>
<path d="M125.248 79.6954L119.678 107.738" stroke="url(#paint28_linear_192_4401)" stroke-width="0.75" stroke-linecap="round" stroke-linejoin="round"/>
<path d="M131.186 83.8654L119.801 77.0863L131.346 70.4908L142.732 77.27L131.186 83.8654Z" stroke="url(#paint29_linear_192_4401)" stroke-width="0.75" stroke-linecap="round" stroke-linejoin="round"/>
<path d="M142.732 77.2703L152.533 102.925" stroke="url(#paint30_linear_192_4401)" stroke-width="0.75" stroke-linecap="round" stroke-linejoin="round"/>
<path d="M119.801 77.0867L109.999 102.589" stroke="url(#paint31_linear_192_4401)" stroke-width="0.75" stroke-linecap="round" stroke-linejoin="round"/>
<path d="M131.4 86.2681L116.151 77.469L119.824 72.2432L142.831 72.6563L146.381 77.7139L131.4 86.2681Z" fill="url(#paint32_linear_192_4401)"/>
<path d="M130.513 79.4966L120.03 73.2531C119.927 73.1922 119.842 73.1055 119.782 73.0015C119.723 72.8975 119.692 72.7799 119.692 72.6601C119.692 72.5404 119.723 72.4227 119.782 72.3187C119.842 72.2147 119.927 72.128 120.03 72.0671L130.673 65.992C130.882 65.8696 131.12 65.8051 131.362 65.8051C131.604 65.8051 131.842 65.8696 132.05 65.992L142.533 72.2355C142.636 72.2953 142.722 72.3813 142.781 72.4847C142.841 72.5881 142.872 72.7053 142.872 72.8246C142.872 72.944 142.841 73.0612 142.781 73.1646C142.722 73.268 142.636 73.354 142.533 73.4138L131.897 79.5349C131.684 79.653 131.443 79.7117 131.2 79.705C130.956 79.6983 130.719 79.6263 130.513 79.4966Z" fill="url(#paint33_linear_192_4401)"/>
<path d="M131.346 54.3696V72.7559" stroke="url(#paint34_linear_192_4401)" stroke-width="0.75" stroke-linecap="round" stroke-linejoin="round"/>
<path d="M134.338 54.3617C134.34 54.9586 134.164 55.5425 133.833 56.0394C133.503 56.5364 133.032 56.924 132.481 57.1531C131.93 57.3822 131.323 57.4425 130.737 57.3265C130.152 57.2104 129.614 56.9231 129.192 56.501C128.77 56.079 128.483 55.5411 128.366 54.9556C128.25 54.3701 128.311 53.7634 128.54 53.2122C128.769 52.661 129.157 52.1903 129.653 51.8596C130.15 51.5289 130.734 51.3532 131.331 51.3547C132.128 51.3568 132.892 51.6742 133.455 52.2377C134.019 52.8012 134.336 53.5648 134.338 54.3617Z" fill="url(#paint35_radial_192_4401)"/>
<path d="M124.56 49.1206C125.451 48.2288 126.51 47.5213 127.675 47.0386C128.84 46.5559 130.089 46.3075 131.35 46.3075C132.611 46.3075 133.86 46.5559 135.025 47.0386C136.191 47.5213 137.249 48.2288 138.141 49.1206" stroke="url(#paint36_linear_192_4401)" stroke-width="2" stroke-linecap="round" stroke-linejoin="round"/>
<path d="M121.461 46.0295C124.084 43.4069 127.641 41.9336 131.35 41.9336C135.059 41.9336 138.617 43.4069 141.24 46.0295" stroke="url(#paint37_linear_192_4401)" stroke-width="2" stroke-linecap="round" stroke-linejoin="round"/>
<path d="M118.201 42.7624C121.689 39.2764 126.419 37.3181 131.35 37.3181C136.282 37.3181 141.011 39.2764 144.499 42.7624" stroke="url(#paint38_linear_192_4401)" stroke-width="2" stroke-linecap="round" stroke-linejoin="round"/>
<path d="M267.969 161.756H259.997L215.619 135.994C214.665 135.443 213.583 135.154 212.482 135.154C211.38 135.154 210.298 135.443 209.345 135.994L163.658 161.244H155.632V168.237C155.628 168.959 155.815 169.668 156.176 170.293C156.536 170.919 157.056 171.437 157.683 171.795L208.947 201.306C209.9 201.859 210.982 202.15 212.084 202.15C213.186 202.15 214.268 201.859 215.221 201.306L265.942 172.308C266.57 171.95 267.091 171.433 267.453 170.807C267.815 170.182 268.003 169.472 268 168.75L267.969 161.756Z" fill="url(#paint39_linear_192_4401)"/>
<path d="M208.985 194.336L157.721 164.825C157.096 164.464 156.578 163.945 156.217 163.321C155.857 162.696 155.667 161.988 155.667 161.267C155.667 160.546 155.857 159.837 156.217 159.213C156.578 158.588 157.096 158.07 157.721 157.709L209.322 129.039C210.275 128.486 211.357 128.195 212.459 128.195C213.56 128.195 214.643 128.486 215.596 129.039L265.942 158.199C266.566 158.559 267.085 159.078 267.445 159.702C267.806 160.327 267.995 161.035 267.995 161.756C267.995 162.478 267.806 163.186 267.445 163.81C267.085 164.435 266.566 164.954 265.942 165.314L215.29 194.344C214.332 194.899 213.244 195.191 212.136 195.189C211.029 195.188 209.942 194.894 208.985 194.336Z" fill="url(#paint40_linear_192_4401)"/>
<path d="M209.459 188.835L166.803 164.297C166.283 163.997 165.852 163.565 165.552 163.045C165.252 162.525 165.094 161.936 165.094 161.336C165.094 160.736 165.252 160.146 165.552 159.626C165.852 159.107 166.283 158.675 166.803 158.375L209.742 134.502C210.534 134.044 211.433 133.802 212.348 133.802C213.263 133.802 214.161 134.044 214.953 134.502L256.798 158.78C257.318 159.08 257.75 159.51 258.05 160.03C258.35 160.549 258.508 161.138 258.508 161.738C258.508 162.337 258.35 162.926 258.05 163.445C257.75 163.965 257.318 164.396 256.798 164.695L214.716 188.827C213.919 189.294 213.012 189.541 212.089 189.542C211.165 189.544 210.258 189.3 209.459 188.835Z" fill="url(#paint41_linear_192_4401)"/>
<path d="M166.803 162.17L209.742 138.297C210.534 137.839 211.433 137.597 212.348 137.597C213.263 137.597 214.161 137.839 214.953 138.297L256.798 162.575C257.247 162.837 257.627 163.202 257.908 163.639C258.169 163.252 258.348 162.816 258.434 162.357C258.52 161.899 258.51 161.427 258.406 160.972C258.302 160.518 258.106 160.089 257.829 159.713C257.553 159.337 257.202 159.022 256.798 158.788L214.953 134.51C214.161 134.051 213.263 133.81 212.348 133.81C211.433 133.81 210.534 134.051 209.742 134.51L166.803 158.382C166.399 158.618 166.048 158.933 165.771 159.31C165.495 159.686 165.298 160.115 165.194 160.571C165.09 161.026 165.081 161.498 165.167 161.958C165.253 162.417 165.432 162.854 165.693 163.241C165.975 162.803 166.355 162.436 166.803 162.17Z" fill="url(#paint42_linear_192_4401)"/>
<path d="M265.942 164.09L215.29 193.119C214.336 193.67 213.254 193.96 212.153 193.96C211.051 193.96 209.969 193.67 209.016 193.119L157.751 163.608C157.219 163.303 156.764 162.879 156.422 162.369C156.079 161.86 155.859 161.278 155.777 160.67C155.645 161.482 155.763 162.315 156.116 163.059C156.468 163.802 157.039 164.421 157.751 164.832L209.016 194.344C209.969 194.894 211.051 195.184 212.153 195.184C213.254 195.184 214.336 194.894 215.29 194.344L265.942 165.314C266.658 164.904 267.231 164.285 267.585 163.54C267.94 162.794 268.058 161.959 267.923 161.144C267.841 161.754 267.619 162.337 267.276 162.848C266.932 163.359 266.476 163.784 265.942 164.09Z" fill="white"/>
<g style="mix-blend-mode:overlay" opacity="0.8">
<path d="M209.612 181.834L169.672 158.88C169.186 158.599 168.782 158.195 168.502 157.709C168.221 157.223 168.073 156.671 168.073 156.11C168.073 155.548 168.221 154.997 168.502 154.511C168.782 154.024 169.186 153.621 169.672 153.34L209.865 130.99C210.606 130.56 211.448 130.333 212.306 130.333C213.163 130.333 214.005 130.56 214.746 130.99L253.921 153.715C254.408 153.996 254.811 154.399 255.092 154.886C255.373 155.372 255.521 155.923 255.521 156.485C255.521 157.046 255.373 157.598 255.092 158.084C254.811 158.57 254.408 158.974 253.921 159.254L214.494 181.834C213.752 182.262 212.91 182.488 212.053 182.488C211.196 182.488 210.354 182.262 209.612 181.834Z" fill="#00E3F8"/>
</g>
<g style="mix-blend-mode:overlay" opacity="0.6">
<path d="M210.125 171.765L179.52 154.167C179.148 153.952 178.839 153.643 178.625 153.271C178.41 152.898 178.297 152.477 178.297 152.047C178.297 151.618 178.41 151.196 178.625 150.824C178.839 150.452 179.148 150.143 179.52 149.928L210.324 132.865C210.891 132.536 211.535 132.363 212.191 132.363C212.847 132.363 213.491 132.536 214.058 132.865L244.059 150.234C244.431 150.449 244.739 150.758 244.954 151.13C245.168 151.502 245.281 151.924 245.281 152.353C245.281 152.783 245.168 153.205 244.954 153.577C244.739 153.949 244.431 154.258 244.059 154.473L213.867 171.772C213.298 172.102 212.652 172.275 211.995 172.273C211.337 172.272 210.692 172.097 210.125 171.765Z" fill="#00E3F8"/>
</g>
<path d="M112.34 160.349H104.375L59.9974 134.586C59.0437 134.036 57.9617 133.746 56.8604 133.746C55.759 133.746 54.6771 134.036 53.7233 134.586L8.037 159.836H0.00306075V166.829C-0.00117153 167.551 0.186496 168.261 0.546815 168.886C0.907134 169.511 1.42715 170.029 2.05362 170.387L53.3637 199.898C54.3167 200.451 55.399 200.743 56.5008 200.743C57.6026 200.743 58.6848 200.451 59.6378 199.898L110.29 170.877C110.917 170.519 111.437 170.001 111.798 169.376C112.158 168.751 112.345 168.041 112.34 167.319V160.349Z" fill="url(#paint43_linear_192_4401)"/>
<path d="M53.3637 192.928L2.05364 163.417C1.42923 163.056 0.910753 162.538 0.550269 161.913C0.189785 161.288 0 160.58 0 159.859C0 159.138 0.189785 158.429 0.550269 157.805C0.910753 157.18 1.42923 156.662 2.05364 156.301L53.6851 127.593C54.6381 127.04 55.7203 126.749 56.8222 126.749C57.924 126.749 59.0062 127.04 59.9592 127.593L110.29 156.791C110.914 157.151 111.433 157.67 111.793 158.295C112.154 158.919 112.344 159.628 112.344 160.349C112.344 161.07 112.154 161.778 111.793 162.403C111.433 163.027 110.914 163.546 110.29 163.907L59.6379 192.936C58.6834 193.485 57.6011 193.774 56.4998 193.773C55.3984 193.771 54.3169 193.48 53.3637 192.928Z" fill="url(#paint44_linear_192_4401)"/>
<path d="M53.8381 187.427L11.1511 162.889C10.6316 162.588 10.2002 162.157 9.90035 161.637C9.60044 161.117 9.44257 160.528 9.44257 159.928C9.44257 159.328 9.60044 158.738 9.90035 158.218C10.2002 157.699 10.6316 157.267 11.1511 156.967L54.083 133.094C54.876 132.636 55.7759 132.394 56.6921 132.394C57.6082 132.394 58.5082 132.636 59.3012 133.094L101.177 157.349C101.697 157.648 102.128 158.079 102.429 158.599C102.729 159.118 102.887 159.707 102.887 160.306C102.887 160.906 102.729 161.495 102.429 162.014C102.128 162.534 101.697 162.964 101.177 163.264L59.0946 187.396C58.3003 187.868 57.3945 188.12 56.4705 188.125C55.5466 188.131 54.6379 187.89 53.8381 187.427Z" fill="url(#paint45_linear_192_4401)"/>
<path d="M11.1511 160.762L54.083 136.89C54.876 136.431 55.7759 136.189 56.6921 136.189C57.6082 136.189 58.5082 136.431 59.3012 136.89L101.177 161.175C101.622 161.439 101.999 161.803 102.279 162.239C102.542 161.853 102.722 161.417 102.809 160.958C102.896 160.5 102.888 160.028 102.784 159.573C102.681 159.118 102.485 158.689 102.208 158.313C101.932 157.937 101.581 157.622 101.177 157.388L59.3548 133.102C58.5617 132.643 57.6618 132.402 56.7456 132.402C55.8295 132.402 54.9295 132.643 54.1365 133.102L11.1511 156.967C10.7458 157.2 10.393 157.515 10.115 157.892C9.83699 158.268 9.63972 158.698 9.53556 159.154C9.4314 159.61 9.4226 160.083 9.50969 160.542C9.59678 161.002 9.77789 161.439 10.0417 161.825C10.3223 161.388 10.7025 161.024 11.1511 160.762Z" fill="url(#paint46_linear_192_4401)"/>
<path d="M110.29 162.705L59.6378 191.735C58.684 192.285 57.6021 192.575 56.5007 192.575C55.3994 192.575 54.3175 192.285 53.3637 191.735L2.0536 162.223C1.52239 161.916 1.06838 161.492 0.726243 160.983C0.384105 160.474 0.162905 159.893 0.0795608 159.285C-0.0514293 160.097 0.0671493 160.93 0.419632 161.673C0.772115 162.416 1.34189 163.035 2.0536 163.448L53.3637 192.959C54.3175 193.51 55.3994 193.799 56.5007 193.799C57.6021 193.799 58.684 193.51 59.6378 192.959L110.29 163.93C111.005 163.519 111.578 162.899 111.931 162.154C112.284 161.409 112.4 160.573 112.264 159.76C112.183 160.369 111.963 160.952 111.621 161.463C111.279 161.974 110.823 162.399 110.29 162.705Z" fill="white"/>
<g style="mix-blend-mode:overlay" opacity="0.8">
<path d="M53.9988 180.426L14.0663 157.472C13.5801 157.191 13.1764 156.787 12.8957 156.301C12.615 155.815 12.4672 155.263 12.4672 154.702C12.4672 154.14 12.615 153.589 12.8957 153.103C13.1764 152.616 13.5801 152.213 14.0663 151.932L54.259 129.582C55.0003 129.152 55.8424 128.925 56.6998 128.925C57.5571 128.925 58.3992 129.152 59.1405 129.582L98.3155 152.307C98.7998 152.589 99.2016 152.993 99.4809 153.479C99.7602 153.965 99.9071 154.516 99.9071 155.077C99.9071 155.637 99.7602 156.188 99.4809 156.674C99.2016 157.16 98.7998 157.564 98.3155 157.847L58.8804 180.433C58.1376 180.861 57.2955 181.085 56.4386 181.084C55.5817 181.082 54.7402 180.855 53.9988 180.426Z" fill="#00E3F8"/>
</g>
<g style="mix-blend-mode:overlay" opacity="0.6">
<path d="M54.4961 170.356L23.8907 152.758C23.5189 152.543 23.2103 152.234 22.9957 151.862C22.7811 151.49 22.6682 151.068 22.6682 150.639C22.6682 150.209 22.7811 149.788 22.9957 149.415C23.2103 149.043 23.5189 148.734 23.8907 148.519L54.6645 131.403C55.233 131.074 55.8783 130.901 56.5352 130.901C57.1922 130.901 57.8375 131.074 58.406 131.403L88.43 148.825C88.8017 149.041 89.1104 149.35 89.325 149.722C89.5395 150.094 89.6525 150.515 89.6525 150.945C89.6525 151.374 89.5395 151.796 89.325 152.168C89.1104 152.54 88.8017 152.849 88.43 153.064L58.2377 170.356C57.6692 170.686 57.0238 170.859 56.3669 170.859C55.71 170.859 55.0647 170.686 54.4961 170.356Z" fill="#00E3F8"/>
</g>
<path d="M49.6528 111.854L69.1868 100.79L69.6306 141.733L50.0966 152.797L49.6528 111.854Z" fill="url(#paint47_linear_192_4401)"/>
<path d="M49.6528 111.854L69.1867 100.79L67.6718 99.8798L48.1378 110.944L49.6528 111.854Z" fill="url(#paint48_linear_192_4401)"/>
<path d="M49.6528 111.854L48.1149 110.921L48.5586 151.856L50.0966 152.797L49.6528 111.854Z" fill="url(#paint49_linear_192_4401)"/>
<path d="M51.3285 114.165L67.6106 104.968L67.9549 136.293L51.6728 145.49L51.3285 114.165Z" fill="url(#paint50_linear_192_4401)"/>
<path d="M59.8138 126.055C58.4206 126.922 57.2723 128.131 56.4778 129.567C56.3171 129.858 56.3171 130.171 56.4778 130.263C56.5223 130.292 56.5741 130.307 56.627 130.307C56.6799 130.307 56.7317 130.292 56.7762 130.263C56.9053 130.189 57.0113 130.08 57.0823 129.949C57.7284 128.768 58.6695 127.774 59.8138 127.065C60.2055 126.781 60.6652 126.606 61.1463 126.558C61.6274 126.51 62.1127 126.589 62.553 126.789C62.5986 126.815 62.65 126.828 62.7022 126.828C62.7544 126.828 62.8058 126.815 62.8514 126.789C62.979 126.71 63.0843 126.599 63.1575 126.468C63.3258 126.185 63.3258 125.871 63.1575 125.772C62.2316 125.244 61.0227 125.42 59.8062 126.116" fill="white"/>
<path d="M59.8138 123.806C57.8403 125.032 56.2147 126.744 55.0929 128.779C54.9246 129.07 54.9246 129.376 55.0929 129.475C55.1399 129.501 55.1925 129.514 55.246 129.514C55.2994 129.514 55.352 129.501 55.399 129.475C55.5242 129.395 55.6269 129.285 55.6974 129.154C56.6778 127.381 58.0947 125.888 59.8138 124.816C61.3058 123.959 62.7978 123.752 63.9379 124.403C63.9844 124.429 64.0372 124.444 64.0909 124.444C64.1447 124.444 64.1975 124.429 64.244 124.403C64.3689 124.326 64.4717 124.217 64.5424 124.089C64.7107 123.798 64.7107 123.484 64.5424 123.393C63.234 122.627 61.5201 122.888 59.8138 123.875" fill="white"/>
<path d="M59.8062 121.434C57.2212 123.036 55.0942 125.279 53.6315 127.945C53.4632 128.236 53.4632 128.542 53.6315 128.641C53.6785 128.667 53.7311 128.68 53.7845 128.68C53.838 128.68 53.8906 128.667 53.9376 128.641C54.0628 128.561 54.1655 128.451 54.236 128.32C55.5606 125.918 57.4783 123.895 59.8062 122.444C61.9103 121.227 63.8997 121.028 65.3917 121.885C65.4415 121.906 65.4961 121.914 65.5499 121.907C65.6036 121.901 65.6547 121.88 65.6977 121.847C65.8226 121.77 65.9254 121.662 65.9961 121.533C66.1644 121.242 66.1644 120.929 65.9961 120.837C64.3358 119.888 62.1704 120.11 59.8062 121.464" fill="white"/>
<path d="M59.8291 129.139C59.4403 129.389 59.1158 129.727 58.8818 130.126C58.6479 130.524 58.5111 130.973 58.4825 131.434C58.4825 132.291 59.087 132.635 59.8368 132.199C60.2234 131.947 60.5458 131.609 60.7782 131.21C61.0107 130.812 61.1469 130.364 61.1758 129.904C61.1758 129.047 60.5713 128.702 59.8291 129.139Z" fill="white"/>
<mask id="mask0_192_4401" style="mask-type:luminance" maskUnits="userSpaceOnUse" x="51" y="104" width="17" height="42">
<path d="M51.3285 114.157L67.6106 104.96L67.9626 136.285L51.6804 145.482L51.3285 114.157Z" fill="white"/>
</mask>
<g mask="url(#mask0_192_4401)">
<g opacity="0.7">
<g style="mix-blend-mode:overlay" opacity="0.8">
<path d="M78.1083 145.635L85.4154 142.95L50.3491 110.072L43.0344 112.757L78.1083 145.635Z" fill="#00E3F8"/>
</g>
<g style="mix-blend-mode:overlay" opacity="0.8">
<path d="M68.9343 143.852L75.3614 146.354L40.2875 113.469L33.868 110.967L68.9343 143.852Z" fill="#00E3F8"/>
</g>
</g>
</g>
<path d="M67.5417 135.994L67.205 105.19L67.6106 104.968L67.9549 136.293L51.6728 145.49L51.6651 144.969L67.5417 135.994Z" fill="white"/>
<path d="M59.0793 143.493C58.6814 144.671 59.0793 145.727 59.9363 145.849C60.7932 145.972 61.8261 145.084 62.2317 143.929C62.6372 142.773 62.2317 141.694 61.3824 141.58C60.5331 141.465 59.4772 142.314 59.0793 143.493Z" fill="url(#paint51_linear_192_4401)"/>
<path d="M61.8262 141.771C61.9805 142.057 62.0701 142.373 62.0886 142.697C62.1071 143.021 62.0541 143.345 61.9333 143.646C61.5354 144.824 60.5101 145.681 59.6379 145.559C59.4705 145.537 59.3121 145.471 59.1788 145.367C59.2626 145.499 59.3748 145.611 59.5071 145.694C59.6394 145.778 59.7886 145.831 59.9439 145.849C60.8085 145.972 61.8338 145.084 62.2393 143.929C62.405 143.571 62.4543 143.171 62.3802 142.784C62.3061 142.396 62.1123 142.042 61.8262 141.771Z" fill="white"/>
<path d="M42.4452 34.8205L61.9791 23.7566L62.4229 64.6991L42.889 75.7629L42.4452 34.8205Z" fill="url(#paint52_linear_192_4401)"/>
<path d="M42.4452 34.8202L61.9792 23.7563L60.4642 22.8458L40.9302 33.9097L42.4452 34.8202Z" fill="url(#paint53_linear_192_4401)"/>
<path d="M42.4452 34.8203L40.9073 33.8868L41.3511 74.8217L42.889 75.7628L42.4452 34.8203Z" fill="url(#paint54_linear_192_4401)"/>
<path d="M44.1208 37.131L60.403 27.9341L60.7473 59.2511L44.4652 68.4557L44.1208 37.131Z" fill="url(#paint55_linear_192_4401)"/>
<path d="M52.6062 49.0211C51.213 49.8882 50.0647 51.0972 49.2702 52.5331C49.1019 52.8238 49.1019 53.1375 49.2702 53.2293C49.3159 53.2587 49.369 53.2743 49.4232 53.2743C49.4775 53.2743 49.5306 53.2587 49.5763 53.2293C49.7038 53.1531 49.8092 53.045 49.8823 52.9156C50.5285 51.7344 51.4696 50.7406 52.6139 50.0311C53.0062 49.7489 53.4658 49.5749 53.9466 49.5266C54.4274 49.4782 54.9124 49.5572 55.3531 49.7556C55.3987 49.7811 55.45 49.7944 55.5023 49.7944C55.5545 49.7944 55.6059 49.7811 55.6515 49.7556C55.7791 49.6761 55.8844 49.5656 55.9575 49.4343C56.1182 49.1512 56.1182 48.8375 55.9575 48.738C55.0394 48.21 53.8228 48.386 52.6139 49.0823" fill="white"/>
<path d="M52.5986 46.7717C50.6226 48.0016 48.9967 49.7196 47.8777 51.7604C47.7093 52.0511 47.7093 52.3572 47.8777 52.4566C47.9233 52.4821 47.9746 52.4955 48.0269 52.4955C48.0791 52.4955 48.1305 52.4821 48.1761 52.4566C48.3055 52.3794 48.4113 52.2683 48.4821 52.1353C49.4625 50.3623 50.8794 48.869 52.5986 47.797C54.0906 46.94 55.5826 46.7334 56.7226 47.3838C56.7711 47.4052 56.8246 47.413 56.8772 47.4063C56.9298 47.3995 56.9795 47.3785 57.021 47.3455C57.1502 47.2713 57.2561 47.1627 57.3271 47.0318C57.4954 46.7411 57.4954 46.4274 57.3271 46.3356C56.0187 45.5704 54.3048 45.8306 52.5909 46.8176" fill="white"/>
<path d="M52.5909 44.3997C50.0095 46.0061 47.8834 48.248 46.4163 50.911C46.2556 51.2018 46.2556 51.5078 46.4163 51.6073C46.4619 51.6328 46.5133 51.6461 46.5655 51.6461C46.6177 51.6461 46.6691 51.6328 46.7147 51.6073C46.8441 51.5301 46.9499 51.419 47.0208 51.2859C48.3421 48.8814 50.2604 46.8576 52.5909 45.4097C54.6951 44.1931 56.6768 43.9942 58.1764 44.8511C58.2249 44.8726 58.2784 44.8803 58.331 44.8736C58.3836 44.8669 58.4333 44.8459 58.4749 44.8129C58.604 44.7387 58.7099 44.6301 58.7809 44.4992C58.9492 44.2084 58.9492 43.8947 58.7809 43.8029C57.1206 42.8541 54.9552 43.076 52.5833 44.4303" fill="white"/>
<path d="M52.6139 52.1046C52.2273 52.3565 51.9049 52.6952 51.6724 53.0937C51.44 53.4922 51.3038 53.9396 51.2749 54.4C51.2749 55.257 51.8794 55.6013 52.6216 55.1652C53.01 54.9146 53.3342 54.5764 53.568 54.1777C53.8019 53.7791 53.939 53.3311 53.9682 52.8698C53.9682 52.0128 53.3561 51.6685 52.6139 52.1046Z" fill="white"/>
<mask id="mask1_192_4401" style="mask-type:luminance" maskUnits="userSpaceOnUse" x="44" y="27" width="17" height="42">
<path d="M44.1208 37.1233L60.403 27.9264L60.7473 59.2511L44.4652 68.448L44.1208 37.1233Z" fill="white"/>
</mask>
<g mask="url(#mask1_192_4401)">
<g opacity="0.7">
<g style="mix-blend-mode:overlay" opacity="0.8">
<path d="M70.8929 68.601L78.2077 65.9154L43.1414 33.0375L35.8267 35.7155L70.8929 68.601Z" fill="#00E3F8"/>
</g>
<g style="mix-blend-mode:overlay" opacity="0.8">
<path d="M61.7266 66.8183L68.1461 69.3203L33.0799 36.4347L26.6604 33.9327L61.7266 66.8183Z" fill="#00E3F8"/>
</g>
</g>
</g>
<path d="M60.3341 58.968L59.9975 28.156L60.403 27.9341L60.7473 59.2511L44.4652 68.4557L44.4575 67.9354L60.3341 58.968Z" fill="white"/>
<path d="M51.8717 66.4586C51.4738 67.6369 51.8717 68.6928 52.721 68.8152C53.5703 68.9377 54.6109 68.0501 55.0164 66.8947C55.4219 65.7394 55.0164 64.6606 54.1594 64.5458C53.3025 64.431 52.2619 65.2803 51.8717 66.4586Z" fill="url(#paint56_linear_192_4401)"/>
<path d="M54.6109 64.7677C54.7688 65.0519 54.8605 65.3681 54.8791 65.6927C54.8976 66.0173 54.8426 66.3419 54.718 66.6423C54.3278 67.8206 53.3025 68.6775 52.4226 68.5551C52.2534 68.5319 52.0928 68.4661 51.9559 68.3638C52.0405 68.4951 52.1529 68.6063 52.2851 68.6896C52.4173 68.7728 52.566 68.8262 52.721 68.8459C53.5933 68.9683 54.6109 68.0807 55.0164 66.9254C55.1842 66.5688 55.2354 66.1683 55.1626 65.781C55.0898 65.3936 54.8967 65.0391 54.6109 64.7677Z" fill="white"/>
<path d="M203.468 28.7298L223.002 17.6659L223.446 58.6084L203.904 69.6722L203.468 28.7298Z" fill="url(#paint57_linear_192_4401)"/>
<path d="M203.468 28.7299L223.002 17.666L221.487 16.7555L201.953 27.8194L203.468 28.7299Z" fill="url(#paint58_linear_192_4401)"/>
<path d="M203.468 28.7299L201.93 27.7888L202.374 68.7313L203.904 69.6724L203.468 28.7299Z" fill="url(#paint59_linear_192_4401)"/>
<path d="M205.136 31.0407L221.418 21.8438L221.77 53.1608L205.488 62.3577L205.136 31.0407Z" fill="url(#paint60_linear_192_4401)"/>
<path d="M213.629 42.931C212.236 43.7981 211.088 45.0071 210.293 46.443C210.125 46.7337 210.125 47.0474 210.293 47.1392C210.339 47.1686 210.392 47.1842 210.446 47.1842C210.501 47.1842 210.554 47.1686 210.599 47.1392C210.724 47.0622 210.827 46.9541 210.898 46.8255C211.546 45.6459 212.487 44.6527 213.629 43.941C214.021 43.6574 214.481 43.4825 214.962 43.4341C215.443 43.3857 215.928 43.4656 216.369 43.6655C216.416 43.691 216.468 43.7043 216.522 43.7043C216.575 43.7043 216.628 43.691 216.675 43.6655C216.798 43.5834 216.9 43.4733 216.973 43.3442C217.141 43.0534 217.141 42.7473 216.973 42.6479C216.047 42.1199 214.838 42.2883 213.629 42.9922" fill="white"/>
<path d="M213.622 40.6811C211.648 41.9073 210.023 43.6198 208.901 45.6545C208.74 45.9376 208.74 46.2513 208.901 46.3508C208.946 46.3762 208.998 46.3896 209.05 46.3896C209.102 46.3896 209.154 46.3762 209.199 46.3508C209.327 46.2713 209.432 46.1607 209.505 46.0294C210.483 44.2569 211.897 42.7636 213.614 41.6911C215.144 40.8341 216.606 40.6275 217.746 41.2779C217.791 41.3049 217.842 41.3191 217.895 41.3191C217.948 41.3191 217.999 41.3049 218.044 41.2779C218.172 41.2016 218.277 41.0935 218.35 40.9642C218.511 40.6734 218.511 40.3597 218.35 40.2679C217.049 39.5028 215.336 39.7629 213.622 40.75" fill="white"/>
<path d="M213.614 38.3094C211.031 39.9136 208.904 42.156 207.439 44.8207C207.271 45.1114 207.271 45.4175 207.439 45.517C207.486 45.5424 207.539 45.5557 207.592 45.5557C207.646 45.5557 207.698 45.5424 207.745 45.517C207.872 45.439 207.975 45.3279 208.044 45.1956C209.369 42.7935 211.286 40.7705 213.614 39.3194C215.726 38.1028 217.707 37.9039 219.2 38.7608C219.249 38.7821 219.304 38.7898 219.358 38.7831C219.412 38.7763 219.463 38.7555 219.506 38.7226C219.633 38.6463 219.739 38.5382 219.812 38.4089C219.972 38.1181 219.972 37.8044 219.812 37.7126C218.159 36.7638 215.986 36.9857 213.622 38.34" fill="white"/>
<path d="M213.637 46.0143C213.249 46.2648 212.926 46.6032 212.693 47.002C212.46 47.4008 212.325 47.8488 212.298 48.3097C212.298 49.1667 212.902 49.511 213.645 49.0748C214.032 48.8234 214.356 48.485 214.59 48.0865C214.823 47.688 214.961 47.2404 214.991 46.7794C214.991 45.9225 214.379 45.5782 213.637 46.0143Z" fill="white"/>
<mask id="mask2_192_4401" style="mask-type:luminance" maskUnits="userSpaceOnUse" x="205" y="21" width="17" height="42">
<path d="M205.136 31.033L221.418 21.8361L221.77 53.1608L205.488 62.3577L205.136 31.033Z" fill="white"/>
</mask>
<g mask="url(#mask2_192_4401)">
<g opacity="0.7">
<g style="mix-blend-mode:overlay" opacity="0.8">
<path d="M231.916 62.5105L239.231 59.8249L204.157 26.9393L196.85 29.625L231.916 62.5105Z" fill="#00E3F8"/>
</g>
<g style="mix-blend-mode:overlay" opacity="0.8">
<path d="M222.75 60.728L229.169 63.23L194.103 30.3444L187.676 27.8424L222.75 60.728Z" fill="#00E3F8"/>
</g>
</g>
</g>
<path d="M221.357 52.8701L221.021 22.0656L221.418 21.8438L221.77 53.1608L205.488 62.3577L205.473 61.8451L221.357 52.8701Z" fill="white"/>
<path d="M212.887 60.3683C212.497 61.5466 212.887 62.6025 213.744 62.7249C214.601 62.8473 215.634 61.9598 216.04 60.8044C216.445 59.6491 216.039 58.5702 215.183 58.4555C214.326 58.3407 213.285 59.19 212.887 60.3683Z" fill="url(#paint61_linear_192_4401)"/>
<path d="M215.634 58.6466C215.79 58.9314 215.881 59.2475 215.9 59.5718C215.918 59.8961 215.864 60.2205 215.741 60.5212C215.343 61.6995 214.326 62.5565 213.446 62.434C213.279 62.4108 213.121 62.3449 212.987 62.2427C213.071 62.374 213.184 62.4852 213.316 62.5685C213.448 62.6517 213.597 62.7051 213.752 62.7248C214.616 62.8472 215.642 61.9597 216.047 60.8043C216.214 60.4469 216.264 60.046 216.19 59.6586C216.116 59.2712 215.921 58.9171 215.634 58.6466Z" fill="white"/>
<path d="M203.774 119.33L223.308 108.266L223.752 149.208L204.218 160.272L203.774 119.33Z" fill="url(#paint62_linear_192_4401)"/>
<path d="M203.774 119.33L223.308 108.266L221.793 107.348L202.259 118.412L203.774 119.33Z" fill="url(#paint63_linear_192_4401)"/>
<path d="M203.774 119.33L202.236 118.389L202.68 159.331L204.218 160.272L203.774 119.33Z" fill="url(#paint64_linear_192_4401)"/>
<path d="M205.45 121.633L221.732 112.436L222.076 143.76L205.794 152.957L205.45 121.633Z" fill="url(#paint65_linear_192_4401)"/>
<path d="M213.912 133.523C212.519 134.393 211.371 135.605 210.576 137.043C210.408 137.333 210.408 137.639 210.576 137.739C210.623 137.764 210.676 137.778 210.729 137.778C210.783 137.778 210.835 137.764 210.882 137.739C211.01 137.659 211.115 137.549 211.189 137.418C211.837 136.24 212.778 135.249 213.92 134.541C214.312 134.258 214.771 134.083 215.252 134.033C215.733 133.984 216.218 134.061 216.659 134.258C216.704 134.286 216.756 134.301 216.808 134.301C216.861 134.301 216.913 134.286 216.958 134.258C217.085 134.181 217.191 134.073 217.264 133.944C217.424 133.653 217.424 133.339 217.264 133.248C216.346 132.72 215.129 132.888 213.92 133.584" fill="white"/>
<path d="M213.912 131.273C211.941 132.5 210.318 134.213 209.199 136.247C209.031 136.538 209.031 136.851 209.199 136.943C209.245 136.972 209.298 136.988 209.352 136.988C209.406 136.988 209.46 136.972 209.505 136.943C209.63 136.866 209.733 136.758 209.804 136.629C210.78 134.853 212.197 133.359 213.92 132.291C215.45 131.426 216.904 131.22 218.044 131.87C218.09 131.896 218.141 131.909 218.193 131.909C218.246 131.909 218.297 131.896 218.343 131.87C218.472 131.793 218.578 131.682 218.649 131.549C218.817 131.266 218.817 130.952 218.649 130.853C217.34 130.088 215.588 130.348 213.912 131.335" fill="white"/>
<path d="M213.912 128.902C211.333 130.51 209.207 132.752 207.738 135.413C207.577 135.704 207.577 136.017 207.738 136.117C207.783 136.142 207.835 136.156 207.887 136.156C207.939 136.156 207.991 136.142 208.036 136.117C208.164 136.037 208.269 135.927 208.342 135.796C209.661 133.389 211.58 131.365 213.912 129.919C216.017 128.703 217.998 128.496 219.498 129.353C219.544 129.379 219.595 129.392 219.647 129.392C219.699 129.392 219.751 129.379 219.796 129.353C219.926 129.276 220.032 129.165 220.102 129.032C220.271 128.749 220.271 128.435 220.102 128.335C218.442 127.394 216.277 127.616 213.905 128.963" fill="white"/>
<path d="M213.912 136.607C213.526 136.858 213.203 137.197 212.971 137.596C212.738 137.994 212.602 138.442 212.573 138.902C212.573 139.759 213.178 140.103 213.92 139.667C214.307 139.415 214.63 139.077 214.864 138.678C215.098 138.28 215.236 137.833 215.267 137.372C215.267 136.515 214.655 136.17 213.912 136.607Z" fill="white"/>
<mask id="mask3_192_4401" style="mask-type:luminance" maskUnits="userSpaceOnUse" x="205" y="112" width="18" height="41">
<path d="M205.45 121.633L221.732 112.436L222.076 143.76L205.794 152.95L205.45 121.633Z" fill="white"/>
</mask>
<g mask="url(#mask3_192_4401)">
<g opacity="0.7">
<g style="mix-blend-mode:overlay" opacity="0.8">
<path d="M232.222 153.11L239.537 150.425L204.471 117.539L197.156 120.225L232.222 153.11Z" fill="#00E3F8"/>
</g>
<g style="mix-blend-mode:overlay" opacity="0.8">
<path d="M223.056 151.32L229.475 153.822L194.409 120.936L187.99 118.434L223.056 151.32Z" fill="#00E3F8"/>
</g>
</g>
</g>
<path d="M221.663 143.47L221.327 112.665L221.732 112.436L222.076 143.76L205.794 152.957L205.787 152.437L221.663 143.47Z" fill="white"/>
<path d="M213.201 150.968C212.803 152.146 213.201 153.202 214.05 153.317C214.899 153.432 215.94 152.552 216.345 151.404C216.751 150.256 216.345 149.17 215.489 149.048C214.632 148.925 213.591 149.782 213.201 150.968Z" fill="url(#paint66_linear_192_4401)"/>
<path d="M215.94 149.239C216.098 149.523 216.19 149.839 216.208 150.164C216.227 150.489 216.172 150.813 216.047 151.114C215.657 152.3 214.632 153.157 213.752 153.034C213.583 153.007 213.424 152.942 213.285 152.843C213.369 152.974 213.481 153.085 213.614 153.167C213.746 153.249 213.895 153.3 214.05 153.317C214.922 153.44 215.94 152.552 216.346 151.404C216.514 151.047 216.565 150.645 216.493 150.256C216.42 149.867 216.227 149.512 215.94 149.239Z" fill="white"/>
<defs>
<linearGradient id="paint0_linear_192_4401" x1="116.465" y1="120.844" x2="145.938" y2="120.844" gradientUnits="userSpaceOnUse">
<stop stop-color="#47F4FF"/>
<stop offset="0.17" stop-color="#41DDFB"/>
<stop offset="0.74" stop-color="#2F94F0"/>
<stop offset="1" stop-color="#2877EB"/>
</linearGradient>
<linearGradient id="paint1_linear_192_4401" x1="177.503" y1="120.727" x2="84.6628" y2="120.727" gradientUnits="userSpaceOnUse">
<stop stop-color="#47F4FF"/>
<stop offset="0.17" stop-color="#41DDFB"/>
<stop offset="0.74" stop-color="#2F94F0"/>
<stop offset="1" stop-color="#2877EB"/>
</linearGradient>
<linearGradient id="paint2_linear_192_4401" x1="212.619" y1="120.727" x2="49.5465" y2="120.727" gradientUnits="userSpaceOnUse">
<stop stop-color="#47F4FF"/>
<stop offset="0.17" stop-color="#41DDFB"/>
<stop offset="0.74" stop-color="#2F94F0"/>
<stop offset="1" stop-color="#2877EB"/>
</linearGradient>
<linearGradient id="paint3_linear_192_4401" x1="253.568" y1="120.727" x2="8.59746" y2="120.727" gradientUnits="userSpaceOnUse">
<stop stop-color="#47F4FF"/>
<stop offset="0.17" stop-color="#41DDFB"/>
<stop offset="0.74" stop-color="#2F94F0"/>
<stop offset="1" stop-color="#2877EB"/>
</linearGradient>
<linearGradient id="paint4_linear_192_4401" x1="0.00305359" y1="84.1564" x2="112.34" y2="84.1564" gradientUnits="userSpaceOnUse">
<stop stop-color="#E5E7FD"/>
<stop offset="0.83" stop-color="#EDEFFF"/>
<stop offset="1" stop-color="#EFF1FF"/>
</linearGradient>
<linearGradient id="paint5_linear_192_4401" x1="37.2117" y1="52.3113" x2="75.8511" y2="102.642" gradientUnits="userSpaceOnUse">
<stop stop-color="#E8ECFF"/>
<stop offset="0.4" stop-color="#F2F5FF"/>
<stop offset="1" stop-color="#FEFEFE"/>
</linearGradient>
<linearGradient id="paint6_linear_192_4401" x1="78.2766" y1="96.5745" x2="38.7114" y2="61.5924" gradientUnits="userSpaceOnUse">
<stop stop-color="#1A4DB6"/>
<stop offset="0.28" stop-color="#2156C2"/>
<stop offset="0.78" stop-color="#356FE0"/>
<stop offset="1" stop-color="#3F7CF0"/>
</linearGradient>
<linearGradient id="paint7_linear_192_4401" x1="78.2842" y1="96.4903" x2="38.742" y2="61.5389" gradientUnits="userSpaceOnUse">
<stop stop-color="#3F7CF0"/>
<stop offset="0.22" stop-color="#356FE0"/>
<stop offset="0.72" stop-color="#2156C2"/>
<stop offset="1" stop-color="#1A4DB6"/>
</linearGradient>
<linearGradient id="paint8_linear_192_4401" x1="-nan" y1="-nan" x2="-nan" y2="-nan" gradientUnits="userSpaceOnUse">
<stop stop-color="#47F4FF"/>
<stop offset="0.17" stop-color="#41DDFB"/>
<stop offset="0.74" stop-color="#2F94F0"/>
<stop offset="1" stop-color="#2877EB"/>
</linearGradient>
<radialGradient id="paint9_radial_192_4401" cx="0" cy="0" r="1" gradientUnits="userSpaceOnUse" gradientTransform="translate(42.7207 38.2328) scale(3.66501)">
<stop stop-color="#47F4FF"/>
<stop offset="0.17" stop-color="#41DDFB"/>
<stop offset="0.74" stop-color="#2F94F0"/>
<stop offset="1" stop-color="#2877EB"/>
</radialGradient>
<linearGradient id="paint10_linear_192_4401" x1="39.5677" y1="37.8417" x2="44.7725" y2="32.6369" gradientUnits="userSpaceOnUse">
<stop stop-color="#47F4FF"/>
<stop offset="0.17" stop-color="#41DDFB"/>
<stop offset="0.74" stop-color="#2F94F0"/>
<stop offset="1" stop-color="#2877EB"/>
</linearGradient>
<linearGradient id="paint11_linear_192_4401" x1="38.4748" y1="35.4388" x2="45.8653" y2="28.0483" gradientUnits="userSpaceOnUse">
<stop stop-color="#47F4FF"/>
<stop offset="0.17" stop-color="#41DDFB"/>
<stop offset="0.74" stop-color="#2F94F0"/>
<stop offset="1" stop-color="#2877EB"/>
</linearGradient>
<linearGradient id="paint12_linear_192_4401" x1="37.3224" y1="32.9761" x2="47.0177" y2="23.2807" gradientUnits="userSpaceOnUse">
<stop stop-color="#47F4FF"/>
<stop offset="0.17" stop-color="#41DDFB"/>
<stop offset="0.74" stop-color="#2F94F0"/>
<stop offset="1" stop-color="#2877EB"/>
</linearGradient>
<linearGradient id="paint13_linear_192_4401" x1="153.436" y1="79.7566" x2="265.773" y2="79.7566" gradientUnits="userSpaceOnUse">
<stop stop-color="#E5E7FD"/>
<stop offset="0.83" stop-color="#EDEFFF"/>
<stop offset="1" stop-color="#EFF1FF"/>
</linearGradient>
<linearGradient id="paint14_linear_192_4401" x1="190.637" y1="47.9118" x2="229.276" y2="98.2425" gradientUnits="userSpaceOnUse">
<stop stop-color="#E8ECFF"/>
<stop offset="0.4" stop-color="#F2F5FF"/>
<stop offset="1" stop-color="#FEFEFE"/>
</linearGradient>
<linearGradient id="paint15_linear_192_4401" x1="231.702" y1="92.1748" x2="192.137" y2="57.2004" gradientUnits="userSpaceOnUse">
<stop stop-color="#1A4DB6"/>
<stop offset="0.28" stop-color="#2156C2"/>
<stop offset="0.78" stop-color="#356FE0"/>
<stop offset="1" stop-color="#3F7CF0"/>
</linearGradient>
<linearGradient id="paint16_linear_192_4401" x1="231.709" y1="92.0907" x2="192.175" y2="57.1392" gradientUnits="userSpaceOnUse">
<stop stop-color="#3F7CF0"/>
<stop offset="0.22" stop-color="#356FE0"/>
<stop offset="0.72" stop-color="#2156C2"/>
<stop offset="1" stop-color="#1A4DB6"/>
</linearGradient>
<linearGradient id="paint17_linear_192_4401" x1="75.0401" y1="124.663" x2="188.135" y2="124.663" gradientUnits="userSpaceOnUse">
<stop stop-color="#E5E7FD"/>
<stop offset="0.83" stop-color="#EDEFFF"/>
<stop offset="1" stop-color="#EFF1FF"/>
</linearGradient>
<linearGradient id="paint18_linear_192_4401" x1="112.501" y1="92.6035" x2="151.401" y2="143.271" gradientUnits="userSpaceOnUse">
<stop stop-color="#E8ECFF"/>
<stop offset="0.4" stop-color="#F2F5FF"/>
<stop offset="1" stop-color="#FEFEFE"/>
</linearGradient>
<linearGradient id="paint19_linear_192_4401" x1="153.842" y1="137.165" x2="114.008" y2="101.954" gradientUnits="userSpaceOnUse">
<stop stop-color="#1A4DB6"/>
<stop offset="0.28" stop-color="#2156C2"/>
<stop offset="0.78" stop-color="#356FE0"/>
<stop offset="1" stop-color="#3F7CF0"/>
</linearGradient>
<linearGradient id="paint20_linear_192_4401" x1="153.849" y1="137.081" x2="114.047" y2="101.892" gradientUnits="userSpaceOnUse">
<stop stop-color="#3F7CF0"/>
<stop offset="0.22" stop-color="#356FE0"/>
<stop offset="0.72" stop-color="#2156C2"/>
<stop offset="1" stop-color="#1A4DB6"/>
</linearGradient>
<linearGradient id="paint21_linear_192_4401" x1="131.591" y1="125.657" x2="131.591" y2="29.6251" gradientUnits="userSpaceOnUse">
<stop stop-color="#0681EE"/>
<stop offset="1" stop-color="white" stop-opacity="0"/>
</linearGradient>
<linearGradient id="paint22_linear_192_4401" x1="104.452" y1="97.0718" x2="142.992" y2="117.7" gradientUnits="userSpaceOnUse">
<stop stop-color="#E5E7FD"/>
<stop offset="0.83" stop-color="#EDEFFF"/>
<stop offset="1" stop-color="#EFF1FF"/>
</linearGradient>
<linearGradient id="paint23_linear_192_4401" x1="145.088" y1="112.696" x2="112.448" y2="89.214" gradientUnits="userSpaceOnUse">
<stop stop-color="#FEFEFE"/>
<stop offset="0.6" stop-color="#F2F5FF"/>
<stop offset="1" stop-color="#E8ECFF"/>
</linearGradient>
<linearGradient id="paint24_linear_192_4401" x1="-nan" y1="-nan" x2="-nan" y2="-nan" gradientUnits="userSpaceOnUse">
<stop stop-color="#47F4FF"/>
<stop offset="0.17" stop-color="#41DDFB"/>
<stop offset="0.74" stop-color="#2F94F0"/>
<stop offset="1" stop-color="#2877EB"/>
</linearGradient>
<linearGradient id="paint25_linear_192_4401" x1="145.601" y1="113.063" x2="116.931" y2="92.4504" gradientUnits="userSpaceOnUse">
<stop stop-color="#47F4FF"/>
<stop offset="0.17" stop-color="#41DDFB"/>
<stop offset="0.74" stop-color="#2F94F0"/>
<stop offset="1" stop-color="#2877EB"/>
</linearGradient>
<linearGradient id="paint26_linear_192_4401" x1="142.349" y1="99.2217" x2="120.183" y2="83.2763" gradientUnits="userSpaceOnUse">
<stop stop-color="#47F4FF"/>
<stop offset="0.17" stop-color="#41DDFB"/>
<stop offset="0.74" stop-color="#2F94F0"/>
<stop offset="1" stop-color="#2877EB"/>
</linearGradient>
<linearGradient id="paint27_linear_192_4401" x1="148.784" y1="99.9792" x2="131.354" y2="87.4463" gradientUnits="userSpaceOnUse">
<stop stop-color="#47F4FF"/>
<stop offset="0.17" stop-color="#41DDFB"/>
<stop offset="0.74" stop-color="#2F94F0"/>
<stop offset="1" stop-color="#2877EB"/>
</linearGradient>
<linearGradient id="paint28_linear_192_4401" x1="113.748" y1="99.9792" x2="131.178" y2="87.4386" gradientUnits="userSpaceOnUse">
<stop stop-color="#47F4FF"/>
<stop offset="0.17" stop-color="#41DDFB"/>
<stop offset="0.74" stop-color="#2F94F0"/>
<stop offset="1" stop-color="#2877EB"/>
</linearGradient>
<linearGradient id="paint29_linear_192_4401" x1="139.097" y1="82.8095" x2="123.435" y2="71.5467" gradientUnits="userSpaceOnUse">
<stop stop-color="#47F4FF"/>
<stop offset="0.17" stop-color="#41DDFB"/>
<stop offset="0.74" stop-color="#2F94F0"/>
<stop offset="1" stop-color="#2877EB"/>
</linearGradient>
<linearGradient id="paint30_linear_192_4401" x1="157.177" y1="96.9649" x2="138.087" y2="83.2307" gradientUnits="userSpaceOnUse">
<stop stop-color="#47F4FF"/>
<stop offset="0.17" stop-color="#41DDFB"/>
<stop offset="0.74" stop-color="#2F94F0"/>
<stop offset="1" stop-color="#2877EB"/>
</linearGradient>
<linearGradient id="paint31_linear_192_4401" x1="117.941" y1="92.0298" x2="111.851" y2="87.6456" gradientUnits="userSpaceOnUse">
<stop stop-color="#47F4FF"/>
<stop offset="0.17" stop-color="#41DDFB"/>
<stop offset="0.74" stop-color="#2F94F0"/>
<stop offset="1" stop-color="#2877EB"/>
</linearGradient>
<linearGradient id="paint32_linear_192_4401" x1="120.198" y1="70.4068" x2="136.106" y2="78.9228" gradientUnits="userSpaceOnUse">
<stop stop-color="#E5E7FD"/>
<stop offset="0.83" stop-color="#EDEFFF"/>
<stop offset="1" stop-color="#EFF1FF"/>
</linearGradient>
<linearGradient id="paint33_linear_192_4401" x1="136.97" y1="76.8493" x2="123.504" y2="67.1626" gradientUnits="userSpaceOnUse">
<stop stop-color="#FEFEFE"/>
<stop offset="0.6" stop-color="#F2F5FF"/>
<stop offset="1" stop-color="#E8ECFF"/>
</linearGradient>
<linearGradient id="paint34_linear_192_4401" x1="-nan" y1="-nan" x2="-nan" y2="-nan" gradientUnits="userSpaceOnUse">
<stop stop-color="#47F4FF"/>
<stop offset="0.17" stop-color="#41DDFB"/>
<stop offset="0.74" stop-color="#2F94F0"/>
<stop offset="1" stop-color="#2877EB"/>
</linearGradient>
<radialGradient id="paint35_radial_192_4401" cx="0" cy="0" r="1" gradientUnits="userSpaceOnUse" gradientTransform="translate(132.142 53.3594) scale(5.18762 5.18763)">
<stop stop-color="#47F4FF"/>
<stop offset="0.17" stop-color="#41DDFB"/>
<stop offset="0.74" stop-color="#2F94F0"/>
<stop offset="1" stop-color="#2877EB"/>
</radialGradient>
<linearGradient id="paint36_linear_192_4401" x1="127.756" y1="52.7201" x2="134.952" y2="45.5243" gradientUnits="userSpaceOnUse">
<stop stop-color="#47F4FF"/>
<stop offset="0.17" stop-color="#41DDFB"/>
<stop offset="0.74" stop-color="#2F94F0"/>
<stop offset="1" stop-color="#2877EB"/>
</linearGradient>
<linearGradient id="paint37_linear_192_4401" x1="126.209" y1="51.1727" x2="136.499" y2="40.8823" gradientUnits="userSpaceOnUse">
<stop stop-color="#47F4FF"/>
<stop offset="0.17" stop-color="#41DDFB"/>
<stop offset="0.74" stop-color="#2F94F0"/>
<stop offset="1" stop-color="#2877EB"/>
</linearGradient>
<linearGradient id="paint38_linear_192_4401" x1="124.58" y1="49.5443" x2="138.133" y2="35.9914" gradientUnits="userSpaceOnUse">
<stop stop-color="#47F4FF"/>
<stop offset="0.17" stop-color="#41DDFB"/>
<stop offset="0.74" stop-color="#2F94F0"/>
<stop offset="1" stop-color="#2877EB"/>
</linearGradient>
<linearGradient id="paint39_linear_192_4401" x1="155.632" y1="168.658" x2="267.969" y2="168.658" gradientUnits="userSpaceOnUse">
<stop stop-color="#E5E7FD"/>
<stop offset="0.83" stop-color="#EDEFFF"/>
<stop offset="1" stop-color="#EFF1FF"/>
</linearGradient>
<linearGradient id="paint40_linear_192_4401" x1="192.841" y1="136.813" x2="231.48" y2="187.144" gradientUnits="userSpaceOnUse">
<stop stop-color="#E8ECFF"/>
<stop offset="0.4" stop-color="#F2F5FF"/>
<stop offset="1" stop-color="#FEFEFE"/>
</linearGradient>
<linearGradient id="paint41_linear_192_4401" x1="233.905" y1="181.076" x2="194.333" y2="146.102" gradientUnits="userSpaceOnUse">
<stop stop-color="#1A4DB6"/>
<stop offset="0.28" stop-color="#2156C2"/>
<stop offset="0.78" stop-color="#356FE0"/>
<stop offset="1" stop-color="#3F7CF0"/>
</linearGradient>
<linearGradient id="paint42_linear_192_4401" x1="233.913" y1="180.992" x2="194.371" y2="146.048" gradientUnits="userSpaceOnUse">
<stop stop-color="#3F7CF0"/>
<stop offset="0.22" stop-color="#356FE0"/>
<stop offset="0.72" stop-color="#2156C2"/>
<stop offset="1" stop-color="#1A4DB6"/>
</linearGradient>
<linearGradient id="paint43_linear_192_4401" x1="0.00306076" y1="167.25" x2="112.34" y2="167.25" gradientUnits="userSpaceOnUse">
<stop stop-color="#E5E7FD"/>
<stop offset="0.83" stop-color="#EDEFFF"/>
<stop offset="1" stop-color="#EFF1FF"/>
</linearGradient>
<linearGradient id="paint44_linear_192_4401" x1="37.2117" y1="135.405" x2="75.8511" y2="185.744" gradientUnits="userSpaceOnUse">
<stop stop-color="#E8ECFF"/>
<stop offset="0.4" stop-color="#F2F5FF"/>
<stop offset="1" stop-color="#FEFEFE"/>
</linearGradient>
<linearGradient id="paint45_linear_192_4401" x1="78.2766" y1="179.668" x2="38.7114" y2="144.694" gradientUnits="userSpaceOnUse">
<stop stop-color="#1A4DB6"/>
<stop offset="0.28" stop-color="#2156C2"/>
<stop offset="0.78" stop-color="#356FE0"/>
<stop offset="1" stop-color="#3F7CF0"/>
</linearGradient>
<linearGradient id="paint46_linear_192_4401" x1="78.2842" y1="179.584" x2="38.742" y2="144.64" gradientUnits="userSpaceOnUse">
<stop stop-color="#3F7CF0"/>
<stop offset="0.22" stop-color="#356FE0"/>
<stop offset="0.72" stop-color="#2156C2"/>
<stop offset="1" stop-color="#1A4DB6"/>
</linearGradient>
<linearGradient id="paint47_linear_192_4401" x1="52.2759" y1="136.13" x2="75.7145" y2="112.287" gradientUnits="userSpaceOnUse">
<stop stop-color="#E8ECFF"/>
<stop offset="0.4" stop-color="#F2F5FF"/>
<stop offset="1" stop-color="#FEFEFE"/>
</linearGradient>
<linearGradient id="paint48_linear_192_4401" x1="54.995" y1="110.119" x2="65.1744" y2="99.7691" gradientUnits="userSpaceOnUse">
<stop stop-color="#FEFEFE"/>
<stop offset="0.6" stop-color="#F2F5FF"/>
<stop offset="1" stop-color="#E8ECFF"/>
</linearGradient>
<linearGradient id="paint49_linear_192_4401" x1="49.8649" y1="113.486" x2="43.4034" y2="150.799" gradientUnits="userSpaceOnUse">
<stop stop-color="#E8ECFF"/>
<stop offset="0.48" stop-color="#F5F7FE"/>
<stop offset="1" stop-color="#FEFEFE"/>
</linearGradient>
<linearGradient id="paint50_linear_192_4401" x1="46.8686" y1="140.276" x2="66.0016" y2="122.801" gradientUnits="userSpaceOnUse">
<stop stop-color="#47F4FF"/>
<stop offset="0.17" stop-color="#41DDFB"/>
<stop offset="0.74" stop-color="#2F94F0"/>
<stop offset="1" stop-color="#2877EB"/>
</linearGradient>
<linearGradient id="paint51_linear_192_4401" x1="58.8115" y1="144.801" x2="62.5071" y2="142.613" gradientUnits="userSpaceOnUse">
<stop stop-color="#54EDC8"/>
<stop offset="1" stop-color="#55DFEA"/>
</linearGradient>
<linearGradient id="paint52_linear_192_4401" x1="45.3824" y1="58.8727" x2="68.8211" y2="35.03" gradientUnits="userSpaceOnUse">
<stop stop-color="#E8ECFF"/>
<stop offset="0.4" stop-color="#F2F5FF"/>
<stop offset="1" stop-color="#FEFEFE"/>
</linearGradient>
<linearGradient id="paint53_linear_192_4401" x1="48.1016" y1="32.8618" x2="58.2754" y2="22.503" gradientUnits="userSpaceOnUse">
<stop stop-color="#FEFEFE"/>
<stop offset="0.6" stop-color="#F2F5FF"/>
<stop offset="1" stop-color="#E8ECFF"/>
</linearGradient>
<linearGradient id="paint54_linear_192_4401" x1="42.9715" y1="36.2291" x2="36.5099" y2="73.5418" gradientUnits="userSpaceOnUse">
<stop stop-color="#E8ECFF"/>
<stop offset="0.48" stop-color="#F5F7FE"/>
<stop offset="1" stop-color="#FEFEFE"/>
</linearGradient>
<linearGradient id="paint55_linear_192_4401" x1="39.9751" y1="63.0185" x2="59.1082" y2="45.5439" gradientUnits="userSpaceOnUse">
<stop stop-color="#47F4FF"/>
<stop offset="0.17" stop-color="#41DDFB"/>
<stop offset="0.74" stop-color="#2F94F0"/>
<stop offset="1" stop-color="#2877EB"/>
</linearGradient>
<linearGradient id="paint56_linear_192_4401" x1="51.6039" y1="67.767" x2="55.2995" y2="65.5787" gradientUnits="userSpaceOnUse">
<stop stop-color="#54EDC8"/>
<stop offset="1" stop-color="#55DFEA"/>
</linearGradient>
<linearGradient id="paint57_linear_192_4401" x1="206.651" y1="53.3122" x2="230.083" y2="29.4684" gradientUnits="userSpaceOnUse">
<stop stop-color="#E8ECFF"/>
<stop offset="0.4" stop-color="#F2F5FF"/>
<stop offset="1" stop-color="#FEFEFE"/>
</linearGradient>
<linearGradient id="paint58_linear_192_4401" x1="209.37" y1="27.3017" x2="219.544" y2="16.9429" gradientUnits="userSpaceOnUse">
<stop stop-color="#FEFEFE"/>
<stop offset="0.6" stop-color="#F2F5FF"/>
<stop offset="1" stop-color="#E8ECFF"/>
</linearGradient>
<linearGradient id="paint59_linear_192_4401" x1="204.24" y1="30.6689" x2="197.769" y2="67.9804" gradientUnits="userSpaceOnUse">
<stop stop-color="#E8ECFF"/>
<stop offset="0.48" stop-color="#F5F7FE"/>
<stop offset="1" stop-color="#FEFEFE"/>
</linearGradient>
<linearGradient id="paint60_linear_192_4401" x1="201.236" y1="57.4583" x2="220.376" y2="39.9846" gradientUnits="userSpaceOnUse">
<stop stop-color="#47F4FF"/>
<stop offset="0.17" stop-color="#41DDFB"/>
<stop offset="0.74" stop-color="#2F94F0"/>
<stop offset="1" stop-color="#2877EB"/>
</linearGradient>
<linearGradient id="paint61_linear_192_4401" x1="212.627" y1="61.6767" x2="216.323" y2="59.4884" gradientUnits="userSpaceOnUse">
<stop stop-color="#54EDC8"/>
<stop offset="1" stop-color="#55DFEA"/>
</linearGradient>
<linearGradient id="paint62_linear_192_4401" x1="206.576" y1="144.148" x2="230.015" y2="120.305" gradientUnits="userSpaceOnUse">
<stop stop-color="#E8ECFF"/>
<stop offset="0.4" stop-color="#F2F5FF"/>
<stop offset="1" stop-color="#FEFEFE"/>
</linearGradient>
<linearGradient id="paint63_linear_192_4401" x1="209.295" y1="118.137" x2="219.476" y2="107.78" gradientUnits="userSpaceOnUse">
<stop stop-color="#FEFEFE"/>
<stop offset="0.6" stop-color="#F2F5FF"/>
<stop offset="1" stop-color="#E8ECFF"/>
</linearGradient>
<linearGradient id="paint64_linear_192_4401" x1="204.165" y1="121.504" x2="197.703" y2="158.817" gradientUnits="userSpaceOnUse">
<stop stop-color="#E8ECFF"/>
<stop offset="0.48" stop-color="#F5F7FE"/>
<stop offset="1" stop-color="#FEFEFE"/>
</linearGradient>
<linearGradient id="paint65_linear_192_4401" x1="201.169" y1="148.294" x2="220.302" y2="130.819" gradientUnits="userSpaceOnUse">
<stop stop-color="#47F4FF"/>
<stop offset="0.17" stop-color="#41DDFB"/>
<stop offset="0.74" stop-color="#2F94F0"/>
<stop offset="1" stop-color="#2877EB"/>
</linearGradient>
<linearGradient id="paint66_linear_192_4401" x1="212.933" y1="152.269" x2="216.629" y2="150.08" gradientUnits="userSpaceOnUse">
<stop stop-color="#54EDC8"/>
<stop offset="1" stop-color="#55DFEA"/>
</linearGradient>
</defs>
</svg>
