<svg width="21" height="21" viewBox="0 0 21 21" fill="none" xmlns="http://www.w3.org/2000/svg">
<path fill-rule="evenodd" clip-rule="evenodd" d="M14.2717 4.56836C14.2717 3.46379 15.1672 2.56836 16.2717 2.56836C17.3763 2.56836 18.2717 3.46379 18.2717 4.56836C18.2717 5.67293 17.3763 6.56836 16.2717 6.56836C15.1672 6.56836 14.2717 5.67293 14.2717 4.56836ZM16.2717 0.568359C14.0626 0.568359 12.2717 2.35922 12.2717 4.56836C12.2717 4.85578 12.302 5.13613 12.3597 5.40636L7.28867 7.94185C6.55536 7.10025 5.47566 6.56836 4.27173 6.56836C2.06259 6.56836 0.271729 8.35922 0.271729 10.5684C0.271729 12.7775 2.06259 14.5684 4.27173 14.5684C5.47566 14.5684 6.55536 14.0365 7.28867 13.1949L12.3597 15.7304C12.302 16.0006 12.2717 16.2809 12.2717 16.5684C12.2717 18.7775 14.0626 20.5684 16.2717 20.5684C18.4809 20.5684 20.2717 18.7775 20.2717 16.5684C20.2717 14.3592 18.4809 12.5684 16.2717 12.5684C15.0678 12.5684 13.9881 13.1002 13.2548 13.9419L8.18381 11.4064C8.24141 11.1361 8.27173 10.8558 8.27173 10.5684C8.27173 10.2809 8.24141 10.0006 8.18381 9.73035L13.2548 7.19486C13.9881 8.03647 15.0678 8.56836 16.2717 8.56836C18.4809 8.56836 20.2717 6.7775 20.2717 4.56836C20.2717 2.35922 18.4809 0.568359 16.2717 0.568359ZM2.27173 10.5684C2.27173 9.46379 3.16716 8.56836 4.27173 8.56836C5.3763 8.56836 6.27173 9.46379 6.27173 10.5684C6.27173 11.6729 5.3763 12.5684 4.27173 12.5684C3.16716 12.5684 2.27173 11.6729 2.27173 10.5684ZM16.2717 14.5684C15.1672 14.5684 14.2717 15.4638 14.2717 16.5684C14.2717 17.6729 15.1672 18.5684 16.2717 18.5684C17.3763 18.5684 18.2717 17.6729 18.2717 16.5684C18.2717 15.4638 17.3763 14.5684 16.2717 14.5684Z" fill="#121619"/>
</svg>
