<svg width="264" height="267" viewBox="0 0 264 267" fill="none" xmlns="http://www.w3.org/2000/svg">
<path d="M99.3823 9.6944C99.6881 7.45192 96.5282 5.61117 94.1538 5.4193C93.0206 5.32936 91.8454 5.50325 90.7722 5.1255C88.4458 4.31605 87.5223 1.31208 85.2499 0.358731C83.553 -0.360781 81.6044 0.280784 79.9555 1.10822C78.3066 1.93566 76.6877 2.97296 74.8529 3.09287C73.252 3.19481 71.5192 2.60121 70.1222 3.38069C69.0789 3.98028 68.5332 5.17947 67.5739 5.875C66.5748 6.48987 65.419 6.80225 64.2461 6.77439C63.0759 6.7477 61.9109 6.93881 60.8105 7.33799C59.7492 7.82366 58.8738 8.94491 59.0897 10.0901L99.3823 9.6944Z" fill="#343945"/>
<path d="M258.58 142.031C259.096 138.308 253.837 135.244 249.886 134.926C248.003 134.776 246.049 135.064 244.262 134.44C240.401 133.091 238.866 128.097 235.082 126.508C232.258 125.309 229.014 126.376 226.28 127.755C223.546 129.134 220.842 130.861 217.79 131.053C215.134 131.227 212.25 130.237 209.923 131.538C208.19 132.504 207.285 134.5 205.684 135.682C204.083 136.863 202.086 137.073 200.15 137.181C198.213 137.288 196.204 137.306 194.442 138.116C192.679 138.925 191.216 140.79 191.582 142.691L258.58 142.031Z" fill="#343945"/>
<path d="M58.6698 51.1503C59.0655 48.3022 55.0722 45.9578 52.0202 45.718C50.5812 45.598 49.0823 45.8199 47.7212 45.3462C44.7652 44.3149 43.584 40.4955 40.6939 39.2783C38.5354 38.367 36.0531 39.1764 33.9605 40.2317C31.8679 41.287 29.8053 42.6301 27.4669 42.756C25.4343 42.8879 23.2278 42.1564 21.471 43.1277C20.1459 43.8652 19.4564 45.3942 18.2332 46.2936C17.01 47.193 15.4811 47.3608 13.9941 47.4388C12.5071 47.5167 10.9961 47.5347 9.629 48.1583C8.26193 48.7819 7.1647 50.2029 7.44051 51.6599L58.6698 51.1503Z" fill="#343945"/>
<path d="M217.844 206.361L204.509 264.276L210.145 264.264L223.516 206.907L217.844 206.361Z" fill="#343945"/>
<path d="M242.181 206.361L255.564 264.276H260.924L247.973 206.361H242.181Z" fill="#343945"/>
<path d="M208.844 162.86L216.435 202.733H225.069L216.956 162.86H208.844Z" fill="#343945"/>
<path d="M76.5556 206.361L65.673 264.276H71.2132L82.5755 206.361H76.5556Z" fill="#343945"/>
<path d="M99.43 206.361L111.872 263.958H117.346L105.33 206.361H99.43Z" fill="#343945"/>
<path d="M67.5495 162.86L75.1463 202.733H83.7745L75.662 162.86H67.5495Z" fill="#343945"/>
<path d="M50.4617 159.234L52.0146 166.483H225.327L223.3 159.234H50.4617Z" fill="#343945"/>
<path d="M53.7712 173.312L55.6 180.561H227.743L226.178 173.312H53.7712Z" fill="#343945"/>
<path d="M57.1887 187.887L58.8976 195.137H230.507L228.882 187.887H57.1887Z" fill="#343945"/>
<path d="M255.366 202.734H70.3139V209.983H255.366V202.734Z" fill="#343945"/>
<path d="M180.382 112.95C178.952 112.952 177.547 112.578 176.308 111.864C175.069 111.151 174.039 110.125 173.322 108.888C172.605 107.651 172.226 106.247 172.223 104.817C172.221 103.388 172.594 101.982 173.306 100.743L196.691 59.9702C197.396 58.7219 198.421 57.684 199.66 56.9632C200.899 56.2424 202.308 55.8647 203.742 55.869C205.171 55.8617 206.577 56.2336 207.815 56.9467C209.054 57.6598 210.082 58.6886 210.793 59.9283L234.417 100.557C235.137 101.794 235.519 103.2 235.523 104.632C235.528 106.064 235.155 107.472 234.443 108.714C233.731 109.956 232.704 110.989 231.466 111.709C230.228 112.428 228.822 112.809 227.39 112.812L180.388 112.956L180.382 112.95ZM203.766 58.2974C202.76 58.2955 201.772 58.5611 200.903 59.0668C200.034 59.5725 199.315 60.3002 198.819 61.1754L175.435 101.948C174.937 102.818 174.676 103.803 174.679 104.806C174.682 105.808 174.948 106.792 175.451 107.659C175.953 108.526 176.675 109.246 177.544 109.746C178.412 110.247 179.397 110.51 180.4 110.51L227.402 110.366C228.406 110.365 229.393 110.099 230.261 109.595C231.13 109.091 231.851 108.366 232.351 107.495C232.85 106.624 233.112 105.636 233.108 104.632C233.105 103.627 232.836 102.642 232.33 101.774L208.706 61.1394C208.206 60.271 207.485 59.5505 206.616 59.0512C205.748 58.552 204.762 58.2919 203.76 58.2974H203.766Z" fill="#343945"/>
<path d="M199.173 75.9435L200.264 91.1492C200.308 91.7501 200.57 92.3142 201.001 92.7359C201.431 93.1575 202.001 93.4077 202.602 93.4396C203.235 93.4706 203.856 93.2579 204.336 92.8452C204.817 92.4325 205.121 91.8513 205.187 91.2211L206.745 75.9135C206.773 75.6405 206.742 75.3648 206.654 75.1046C206.567 74.8445 206.425 74.6059 206.239 74.4047C206.052 74.2034 205.825 74.0441 205.572 73.9373C205.32 73.8304 205.047 73.7785 204.773 73.785L201.061 73.8629C200.799 73.8695 200.54 73.9294 200.301 74.0387C200.063 74.1481 199.848 74.3047 199.672 74.4992C199.495 74.6937 199.36 74.922 199.274 75.1702C199.189 75.4184 199.154 75.6815 199.173 75.9435Z" fill="#343945"/>
<path d="M206.709 101.96C206.484 102.659 206.057 103.275 205.482 103.731C204.907 104.187 204.21 104.462 203.478 104.522C202.747 104.582 202.014 104.423 201.373 104.067C200.731 103.71 200.21 103.171 199.875 102.518C199.539 101.865 199.405 101.128 199.489 100.398C199.573 99.6693 199.871 98.9814 200.346 98.4217C200.821 97.8621 201.451 97.4557 202.157 97.2541C202.862 97.0525 203.612 97.0646 204.311 97.289C204.776 97.4374 205.206 97.6761 205.579 97.9914C205.951 98.3067 206.257 98.6924 206.48 99.1263C206.703 99.5603 206.838 100.034 206.877 100.52C206.917 101.006 206.859 101.496 206.709 101.96Z" fill="#343945"/>
<path d="M263.982 264.204C263.982 264.287 204.97 264.359 132.191 264.359C59.4129 264.359 0.388916 264.287 0.388916 264.204C0.388916 264.12 59.3889 264.048 132.191 264.048C204.994 264.048 263.982 264.12 263.982 264.204Z" fill="#263238"/>
<path d="M172.67 199.879L112.112 199.843C104.832 199.843 98.9205 193.632 98.9205 185.981L98.9504 26.4889C98.9504 18.8321 104.862 12.6263 112.141 12.6323L172.67 12.6683C179.95 12.6683 185.861 18.8801 185.861 26.5309V186.023C185.861 193.679 179.955 199.885 172.67 199.879Z" fill="#263238"/>
<path d="M172.653 18.3226H160.913C160.12 18.3615 159.376 18.7127 158.842 19.2993C158.308 19.8859 158.029 20.6602 158.065 21.4525V23.689C158.1 24.4823 157.82 25.2574 157.285 25.8442C156.75 26.431 156.004 26.7816 155.211 26.8189H132.336C131.544 26.78 130.799 26.4288 130.265 25.8422C129.732 25.2556 129.452 24.4813 129.488 23.689V21.4525C129.525 20.6592 129.247 19.8834 128.713 19.2954C128.179 18.7075 127.433 18.3555 126.64 18.3167H112.25C107.147 18.3167 103.01 22.6577 103.01 28.0181V183.684C103.01 189.045 107.141 193.392 112.238 193.392L172.653 193.428C177.755 193.428 181.892 189.087 181.892 183.726L181.922 28.06C181.88 22.6697 177.755 18.3286 172.653 18.3226Z" fill="#343945"/>
<path d="M119.475 178.708V182.522C119.474 182.596 119.454 182.669 119.416 182.734C119.377 182.798 119.323 182.851 119.257 182.887C119.192 182.923 119.118 182.941 119.044 182.939C118.969 182.937 118.896 182.915 118.833 182.875L115.835 180.969C115.776 180.931 115.727 180.878 115.693 180.817C115.659 180.755 115.641 180.685 115.641 180.615C115.641 180.544 115.659 180.475 115.693 180.413C115.727 180.351 115.776 180.299 115.835 180.261L118.833 178.354C118.896 178.315 118.969 178.293 119.044 178.291C119.118 178.289 119.192 178.307 119.257 178.343C119.323 178.379 119.377 178.432 119.416 178.496C119.454 178.56 119.474 178.634 119.475 178.708Z" fill="#E0E0E0"/>
<path d="M144.094 180.578C144.093 181.097 143.938 181.605 143.649 182.036C143.359 182.467 142.949 182.802 142.469 183C141.989 183.198 141.461 183.249 140.952 183.147C140.443 183.045 139.975 182.795 139.609 182.427C139.242 182.06 138.993 181.592 138.892 181.082C138.791 180.573 138.843 180.045 139.042 179.566C139.241 179.086 139.578 178.677 140.009 178.388C140.441 178.1 140.949 177.946 141.468 177.946C142.165 177.948 142.833 178.226 143.325 178.719C143.818 179.213 144.094 179.881 144.094 180.578Z" fill="#E0E0E0"/>
<path d="M166.675 178.288H164.073C163.453 178.288 162.951 178.79 162.951 179.409V182.023C162.951 182.643 163.453 183.145 164.073 183.145H166.675C167.294 183.145 167.796 182.643 167.796 182.023V179.409C167.796 178.79 167.294 178.288 166.675 178.288Z" fill="#E0E0E0"/>
<path d="M171.667 94.1231C175.534 78.1124 165.69 61.9978 149.679 58.1303C133.669 54.2629 117.554 64.107 113.687 80.1177C109.819 96.1284 119.663 112.243 135.674 116.11C151.685 119.978 167.799 110.134 171.667 94.1231Z" fill="#424753"/>
<path d="M143.98 100.233C143.978 100.72 143.831 101.196 143.558 101.6C143.285 102.004 142.899 102.318 142.448 102.502C141.996 102.687 141.501 102.733 141.023 102.636C140.546 102.538 140.108 102.301 139.765 101.955C139.422 101.609 139.189 101.168 139.096 100.69C139.004 100.211 139.055 99.7162 139.243 99.2668C139.432 98.8174 139.75 98.4341 140.156 98.1653C140.563 97.8965 141.04 97.7543 141.528 97.7566C141.851 97.7582 142.171 97.8235 142.47 97.9488C142.768 98.0741 143.039 98.2569 143.267 98.4869C143.494 98.7168 143.675 98.9894 143.797 99.289C143.919 99.5886 143.982 99.9093 143.98 100.233Z" fill="white"/>
<path d="M136.593 97.061C137.222 96.3842 137.981 95.8419 138.826 95.4671C139.67 95.0923 140.582 94.8926 141.505 94.8803C142.429 94.868 143.346 95.0432 144.2 95.3954C145.054 95.7475 145.828 96.2693 146.474 96.9291C147.727 98.1942 149.7 96.2456 148.441 94.9744C147.536 94.0622 146.457 93.3403 145.269 92.8511C144.081 92.362 142.807 92.1154 141.522 92.1261C140.237 92.1367 138.967 92.4042 137.787 92.913C136.607 93.4217 135.54 94.1613 134.65 95.0883C133.451 96.3835 135.37 98.3561 136.605 97.061H136.593Z" fill="white"/>
<path d="M128.223 85.5906C131.97 82.3528 136.443 80.3142 141.45 80.3022C146.441 80.2449 151.267 82.0909 154.947 85.4647C156.248 86.6639 158.22 84.7392 156.919 83.516C152.717 79.6234 147.19 77.4792 141.462 77.5201C135.7 77.5201 130.573 79.8885 126.268 83.612C124.919 84.8112 126.868 86.7419 128.223 85.5786V85.5906Z" fill="white"/>
<path d="M131.527 91.9527C132.776 90.5587 134.301 89.4386 136.004 88.663C137.708 87.8873 139.554 87.4729 141.426 87.4459C143.298 87.4189 145.155 87.7798 146.88 88.5059C148.605 89.232 150.162 90.3076 151.451 91.6649C152.692 92.948 154.665 90.9933 153.418 89.7162C151.872 88.1011 150.011 86.8206 147.95 85.9539C145.89 85.0872 143.673 84.6528 141.438 84.6775C139.202 84.7022 136.996 85.1856 134.955 86.0977C132.914 87.0098 131.081 88.3312 129.572 89.98C128.373 91.2871 130.309 93.2658 131.527 91.9527Z" fill="white"/>
<path d="M164.819 80.3983C165.547 76.2864 162.803 72.3634 158.691 71.6362C154.579 70.9089 150.656 73.6527 149.929 77.7647C149.202 81.8766 151.945 85.7995 156.057 86.5268C160.169 87.2541 164.092 84.5102 164.819 80.3983Z" fill="#10A9FF"/>
<path d="M160.471 76.9552L159.398 75.8826L154.595 80.6862L155.668 81.7589L160.471 76.9552Z" fill="white"/>
<path d="M155.664 75.8807L154.592 76.9534L159.395 81.757L160.468 80.6843L155.664 75.8807Z" fill="white"/>
<path d="M140.646 34.9737C141.02 34.7476 141.424 34.5741 141.845 34.4581L142.091 33.2589L144.088 33.2229L144.376 34.3921C144.794 34.4995 145.197 34.6607 145.575 34.8718L146.588 34.2122L148.027 35.5973L147.428 36.6286C147.654 37.0035 147.829 37.4067 147.949 37.8278L149.148 38.0736L149.184 40.0703L147.985 40.3581C147.882 40.7774 147.723 41.1809 147.511 41.5572L148.171 42.5706L146.786 44.0036L145.749 43.404C145.373 43.6295 144.97 43.8049 144.549 43.9256L144.304 45.1248L142.307 45.1608L142.019 43.9616C141.6 43.8565 141.196 43.6952 140.82 43.4819L139.807 44.1475L138.368 42.7564L138.967 41.7251C138.742 41.3499 138.566 40.9467 138.446 40.5259L137.246 40.2801L137.21 38.2775L138.41 37.9897C138.514 37.5709 138.674 37.1677 138.883 36.7905L138.224 35.7832L139.609 34.3441L140.646 34.9437V34.9737ZM141.707 37.6359C141.412 37.9408 141.213 38.3264 141.137 38.7441C141.06 39.1618 141.11 39.5928 141.278 39.9825C141.447 40.3722 141.727 40.7032 142.084 40.9335C142.441 41.1639 142.858 41.2832 143.282 41.2765C143.707 41.2698 144.12 41.1373 144.469 40.8958C144.818 40.6543 145.088 40.3147 145.244 39.9198C145.401 39.5249 145.436 39.0926 145.347 38.6775C145.257 38.2625 145.046 37.8833 144.741 37.5879C144.332 37.1922 143.783 36.975 143.214 36.984C142.646 36.993 142.103 37.2275 141.707 37.6359Z" fill="#E0E0E0"/>
<path d="M115.29 39.4523C114.69 39.4523 113.857 39.4523 113.059 39.4523C112.106 39.4523 111.152 39.4164 110.487 39.4223C110.407 39.4223 110.331 39.3908 110.275 39.3345C110.219 39.2783 110.187 39.2021 110.187 39.1226C110.187 39.043 110.219 38.9668 110.275 38.9106C110.331 38.8543 110.407 38.8228 110.487 38.8228C111.152 38.8228 112.118 38.8228 113.077 38.8527C114.036 38.8827 114.984 38.8827 115.649 38.8527C115.729 38.8527 115.805 38.8843 115.861 38.9405C115.918 38.9968 115.949 39.073 115.949 39.1525C115.949 39.2321 115.918 39.3083 115.861 39.3645C115.805 39.4207 115.729 39.4523 115.649 39.4523H115.29Z" fill="#263238"/>
<path d="M112.31 41.4547C112.267 41.455 112.226 41.4461 112.187 41.4285C112.149 41.4108 112.115 41.385 112.088 41.3528L110.289 39.2962C110.238 39.2417 110.21 39.1699 110.21 39.0953C110.21 39.0207 110.238 38.9489 110.289 38.8945L112.088 37.0237C112.115 36.995 112.148 36.9719 112.184 36.9557C112.22 36.9396 112.259 36.9307 112.298 36.9296C112.338 36.9284 112.377 36.9351 112.414 36.9492C112.451 36.9633 112.485 36.9846 112.514 37.0117C112.542 37.0389 112.565 37.0715 112.582 37.1075C112.598 37.1436 112.607 37.1826 112.608 37.2221C112.609 37.2616 112.602 37.301 112.588 37.338C112.574 37.3749 112.553 37.4087 112.526 37.4374L110.931 39.1043L112.58 40.9571C112.635 41.0141 112.666 41.0905 112.666 41.1699C112.666 41.2494 112.635 41.3257 112.58 41.3828C112.544 41.4158 112.501 41.4395 112.454 41.4521C112.406 41.4646 112.357 41.4655 112.31 41.4547Z" fill="#263238"/>
<path d="M174.109 37.7015C174.623 37.7015 175.039 37.2854 175.039 36.7721C175.039 36.2589 174.623 35.8428 174.109 35.8428C173.596 35.8428 173.18 36.2589 173.18 36.7721C173.18 37.2854 173.596 37.7015 174.109 37.7015Z" fill="#263238"/>
<path d="M175.045 39.7043C175.046 39.8898 174.992 40.0714 174.89 40.2262C174.787 40.3809 174.641 40.5017 174.47 40.5733C174.299 40.6448 174.11 40.6638 173.928 40.6279C173.746 40.592 173.579 40.5028 173.448 40.3717C173.317 40.2405 173.228 40.0733 173.192 39.8913C173.156 39.7093 173.175 39.5207 173.246 39.3496C173.318 39.1784 173.439 39.0324 173.593 38.9301C173.748 38.8277 173.93 38.7737 174.115 38.7749C174.361 38.7765 174.597 38.8749 174.771 39.0489C174.945 39.2228 175.043 39.4583 175.045 39.7043Z" fill="#263238"/>
<path d="M174.109 43.5716C174.623 43.5716 175.039 43.1555 175.039 42.6423C175.039 42.129 174.623 41.7129 174.109 41.7129C173.596 41.7129 173.18 42.129 173.18 42.6423C173.18 43.1555 173.596 43.5716 174.109 43.5716Z" fill="#263238"/>
<path d="M122.443 128.114C119.612 128.322 116.771 128.322 113.94 128.114C116.771 127.906 119.612 127.906 122.443 128.114Z" fill="#263238"/>
<path d="M137.72 138.067C137.72 138.157 132.492 138.223 126.046 138.223C119.601 138.223 114.366 138.157 114.366 138.067C114.366 137.977 119.595 137.911 126.046 137.911C132.498 137.911 137.72 137.983 137.72 138.067Z" fill="#263238"/>
<path d="M137.72 147.954C137.72 148.044 132.492 148.11 126.046 148.11C119.601 148.11 114.366 148.044 114.366 147.954C114.366 147.865 119.595 147.799 126.046 147.799C132.498 147.799 137.72 147.871 137.72 147.954Z" fill="#263238"/>
<path d="M168.582 134.338H160.043C157.98 134.338 156.308 136.009 156.308 138.07C156.308 140.132 157.98 141.803 160.043 141.803H168.582C170.645 141.803 172.317 140.132 172.317 138.07C172.317 136.009 170.645 134.338 168.582 134.338Z" fill="#3A3F4B"/>
<path d="M163.125 138.068C163.126 138.687 162.944 139.293 162.601 139.808C162.258 140.324 161.769 140.726 161.197 140.964C160.626 141.201 159.996 141.264 159.389 141.144C158.781 141.024 158.223 140.726 157.784 140.289C157.346 139.852 157.047 139.294 156.926 138.687C156.805 138.079 156.867 137.45 157.103 136.877C157.34 136.305 157.741 135.816 158.256 135.472C158.771 135.128 159.376 134.944 159.995 134.944C160.824 134.944 161.62 135.273 162.207 135.858C162.793 136.444 163.124 137.239 163.125 138.068Z" fill="#404552"/>
<path d="M168.588 151.69H160.043C159.053 151.69 158.103 151.296 157.402 150.596C156.701 149.895 156.308 148.945 156.308 147.955C156.31 146.965 156.704 146.016 157.404 145.317C158.104 144.618 159.054 144.225 160.043 144.225H168.588C169.577 144.225 170.526 144.618 171.227 145.317C171.927 146.016 172.321 146.965 172.323 147.955C172.323 148.945 171.929 149.895 171.229 150.596C170.528 151.296 169.578 151.69 168.588 151.69Z" fill="#3A3F4B"/>
<path d="M159.995 151.085C161.724 151.085 163.125 149.683 163.125 147.955C163.125 146.226 161.724 144.825 159.995 144.825C158.267 144.825 156.866 146.226 156.866 147.955C156.866 149.683 158.267 151.085 159.995 151.085Z" fill="#404552"/>
<path d="M137.72 157.914C137.72 157.998 132.492 158.07 126.046 158.07C119.601 158.07 114.366 157.998 114.366 157.914C114.366 157.83 119.595 157.758 126.046 157.758C132.498 157.758 137.72 157.824 137.72 157.914Z" fill="#263238"/>
<path d="M168.588 162.753H160.043C159.053 162.753 158.103 162.359 157.402 161.659C156.701 160.958 156.308 160.008 156.308 159.017C156.308 158.027 156.701 157.077 157.402 156.376C158.103 155.676 159.053 155.282 160.043 155.282H168.588C169.578 155.282 170.528 155.676 171.229 156.376C171.929 157.077 172.323 158.027 172.323 159.017C172.323 160.008 171.929 160.958 171.229 161.659C170.528 162.359 169.578 162.753 168.588 162.753Z" fill="#3A3F4B"/>
<path d="M159.995 162.147C161.724 162.147 163.125 160.746 163.125 159.018C163.125 157.289 161.724 155.888 159.995 155.888C158.267 155.888 156.866 157.289 156.866 159.018C156.866 160.746 158.267 162.147 159.995 162.147Z" fill="#404552"/>
<path d="M239.909 28.8028C240.769 23.4741 237.146 18.457 231.818 17.5968C226.489 16.7366 221.472 20.3591 220.612 25.6878C219.751 31.0165 223.374 36.0335 228.703 36.8937C234.031 37.7539 239.048 34.1315 239.909 28.8028Z" fill="#10A9FF"/>
<path d="M228.876 49.0937C228.822 49.0937 228.774 47.2949 228.774 45.0644C228.774 42.8339 228.822 41.0352 228.876 41.0352C228.93 41.0352 228.978 42.8339 228.978 45.0644C228.978 47.2949 228.93 49.0937 228.876 49.0937Z" fill="#10A9FF"/>
<path d="M223.246 38.7687C223.294 38.7687 222.376 40.4775 221.195 42.5282C220.014 44.5788 219.013 46.2097 218.959 46.1857C218.905 46.1617 219.828 44.4708 221.015 42.4262C222.202 40.3816 223.198 38.7387 223.246 38.7687Z" fill="#10A9FF"/>
<path d="M217.466 35.1653C216.75 35.8671 215.987 36.5182 215.181 37.114C214.426 37.7706 213.625 38.3718 212.783 38.9127C213.503 38.2177 214.266 37.5689 215.067 36.9701C215.825 36.315 216.626 35.712 217.466 35.1653Z" fill="#10A9FF"/>
<path d="M238.626 45.1304C238.508 44.8076 238.422 44.4743 238.368 44.1351C238.224 43.5355 238.026 42.6721 237.768 41.7367C237.51 40.8014 237.264 39.9739 237.073 39.3743C236.951 39.054 236.861 38.7227 236.803 38.385C236.971 38.6836 237.108 38.9991 237.21 39.3264C237.438 39.926 237.714 40.7534 237.966 41.6828C238.218 42.6121 238.392 43.4816 238.5 44.0811C238.579 44.4254 238.621 44.7772 238.626 45.1304Z" fill="#10A9FF"/>
<path d="M248.537 38.097C246.568 36.5555 244.685 34.9082 242.895 33.1624C243.901 33.908 244.866 34.7087 245.785 35.5607C246.746 36.3573 247.665 37.2039 248.537 38.097Z" fill="#10A9FF"/>
<path d="M252.332 28.4318C251.929 28.4064 251.528 28.3503 251.133 28.2639C250.413 28.138 249.412 27.9881 248.297 27.8561C247.181 27.7242 246.18 27.6523 245.443 27.6103C245.041 27.6057 244.64 27.5717 244.243 27.5084C244.64 27.4503 245.043 27.4362 245.443 27.4664C246.403 27.4803 247.361 27.5423 248.315 27.6523C249.436 27.7842 250.437 27.9581 251.157 28.12C251.558 28.1838 251.952 28.2883 252.332 28.4318Z" fill="#10A9FF"/>
<path d="M252.344 18.9285C252.344 18.9824 250.24 19.528 247.619 20.1816C244.999 20.8352 242.859 21.2968 242.823 21.2429C242.787 21.1889 244.921 20.6433 247.547 19.9837C250.174 19.3242 252.332 18.8745 252.344 18.9285Z" fill="#10A9FF"/>
<path d="M241.312 7.85418C241.36 7.85418 240.352 9.49707 239.051 11.4517C237.75 13.4064 236.653 14.9773 236.653 14.9474C236.653 14.9174 237.618 13.2985 238.913 11.3498C240.208 9.40112 241.258 7.8242 241.312 7.85418Z" fill="#10A9FF"/>
<path d="M230.345 5.53931C230.376 5.98645 230.376 6.43526 230.345 6.88241C230.345 7.70985 230.345 8.84906 230.345 10.1142C230.345 11.3793 230.345 12.5126 230.345 13.346C230.374 13.7933 230.374 14.2419 230.345 14.6891C230.261 14.2482 230.214 13.8009 230.207 13.352C230.159 12.5246 230.117 11.3793 230.111 10.1142C230.105 8.84906 230.153 7.71584 230.201 6.87641C230.209 6.4273 230.257 5.9798 230.345 5.53931Z" fill="#10A9FF"/>
<path d="M222.046 15.8761C221.998 15.8761 220.967 14.3112 219.744 12.2786C218.521 10.2459 217.573 8.63904 217.621 8.60906C217.669 8.57908 218.7 10.174 219.924 12.1706C221.147 14.1673 222.124 15.8461 222.046 15.8761Z" fill="#10A9FF"/>
<path d="M217.088 20.0915C216.738 20.0691 216.391 20.0129 216.051 19.9236C215.415 19.7917 214.54 19.5759 213.593 19.324C212.645 19.0722 211.794 18.7244 211.194 18.5146C210.859 18.4045 210.536 18.262 210.229 18.0889C210.575 18.1519 210.915 18.2482 211.242 18.3767C211.842 18.5745 212.711 18.8443 213.641 19.1262C214.57 19.408 215.439 19.6358 216.069 19.8037C216.417 19.8683 216.758 19.9646 217.088 20.0915Z" fill="#10A9FF"/>
<path d="M214.929 27.5987C213.9 27.7974 212.858 27.9316 211.812 28.0005C210.77 28.1344 209.72 28.2005 208.67 28.1983C209.701 27.9959 210.745 27.8617 211.794 27.7966C212.833 27.6591 213.881 27.593 214.929 27.5987Z" fill="#10A9FF"/>
<path d="M208.263 201.774L217.005 264.054L219.283 264.126C217.832 242.978 216.285 221.399 208.263 201.774Z" fill="#455A64"/>
<path d="M232.552 198.86C226.442 205.552 223.984 214.756 222.437 223.683C220.242 236.347 220.038 251.295 220.698 264.126L223.894 264.198C222.63 242.068 225.567 219.898 232.552 198.86Z" fill="#455A64"/>
<path d="M209.87 238.619C209.168 235.537 208.365 232.396 206.602 229.769C204.203 226.22 200.348 223.971 196.445 222.226C192.541 220.482 188.44 219.079 184.92 216.656C188.848 223.108 197.776 224.823 202.309 230.855C204.569 233.853 205.504 237.618 206.392 241.27C208.329 249.226 209.516 256.115 211.446 264.054H214.031C213.18 255.497 211.791 247.002 209.87 238.619Z" fill="#455A64"/>
<path d="M226.221 264.126C226.221 264.126 228.415 239.392 230.04 234.854C231.665 230.315 247.015 217.765 246.865 218.353C246.715 218.94 235.352 232.671 233.727 235.477C232.103 238.283 229.302 264.126 229.302 264.126H226.221Z" fill="#455A64"/>
<path d="M153.657 238.259C154.265 238.502 154.817 238.866 155.28 239.327C155.744 239.789 156.11 240.339 156.356 240.945C156.846 242.16 157.051 243.471 156.955 244.777C156.829 247.295 155.576 249.909 154.173 252.008C151.949 250.305 151.259 247.133 151.007 245.502C150.611 242.918 151.463 238.019 153.669 238.259" fill="#10A9FF"/>
<path d="M156.877 255.954C156.688 255.248 156.689 254.506 156.878 253.8C157.068 253.095 157.44 252.452 157.957 251.937C158.484 251.431 159.106 251.036 159.788 250.773C160.469 250.511 161.196 250.386 161.926 250.408C162.262 250.381 162.6 250.428 162.916 250.546C163.232 250.665 163.518 250.85 163.755 251.091C163.94 251.35 164.051 251.654 164.076 251.971C164.102 252.287 164.04 252.605 163.899 252.89C163.615 253.457 163.187 253.939 162.657 254.287C160.907 255.546 158.982 256.451 156.877 255.966" fill="#10A9FF"/>
<path d="M154.677 263.821C154.677 263.646 154.691 263.471 154.719 263.299L154.881 261.896C155.018 260.335 155.404 258.807 156.026 257.369C156.685 255.923 157.721 254.681 159.024 253.771C159.415 253.501 159.838 253.28 160.283 253.112C160.439 253.046 160.565 253.022 160.649 252.992C160.733 252.962 160.781 252.962 160.781 252.992C160.188 253.235 159.623 253.541 159.096 253.903C157.853 254.829 156.865 256.055 156.224 257.465C155.601 258.885 155.197 260.391 155.024 261.932C154.934 262.531 154.863 262.999 154.803 263.329C154.776 263.496 154.733 263.661 154.677 263.821Z" fill="#263238"/>
<path d="M153.339 242.055C153.364 242.127 153.378 242.201 153.381 242.277L153.459 242.918C153.525 243.476 153.615 244.285 153.711 245.317C153.903 247.313 154.137 250.077 154.311 253.111C154.485 256.145 154.599 258.945 154.647 260.954C154.647 261.955 154.689 262.753 154.689 263.352V263.994C154.696 264.07 154.696 264.146 154.689 264.222C154.682 264.148 154.682 264.074 154.689 264V263.352C154.689 262.753 154.635 261.961 154.593 260.954C154.509 258.945 154.383 256.157 154.203 253.117C154.023 250.077 153.807 247.289 153.639 245.287C153.561 244.303 153.495 243.488 153.453 242.888C153.453 242.625 153.417 242.409 153.405 242.241C153.377 242.181 153.355 242.119 153.339 242.055Z" fill="#263238"/>
<path d="M153.334 257.752C152.981 256.254 152.276 254.861 151.279 253.689C150.281 252.517 149.018 251.6 147.596 251.013C146.87 250.719 145.935 250.563 145.389 251.121C144.844 251.678 145.035 252.614 145.389 253.327C146.106 254.796 147.242 256.021 148.654 256.846C150.065 257.67 151.69 258.059 153.322 257.962" fill="#10A9FF"/>
<path d="M148.087 253.345C148.246 253.385 148.4 253.439 148.549 253.507C148.727 253.578 148.901 253.658 149.07 253.747C149.268 253.855 149.502 253.951 149.736 254.107C149.97 254.263 150.246 254.413 150.51 254.611C150.797 254.817 151.073 255.04 151.337 255.276C151.943 255.811 152.484 256.415 152.95 257.075C153.405 257.748 153.784 258.47 154.077 259.227C154.199 259.56 154.303 259.898 154.389 260.241C154.467 260.539 154.529 260.841 154.575 261.146C154.629 261.422 154.635 261.68 154.659 261.902C154.673 262.091 154.673 262.282 154.659 262.471C154.674 262.635 154.674 262.799 154.659 262.963C154.617 262.963 154.659 262.261 154.449 261.164C154.395 260.894 154.341 260.565 154.245 260.277C154.152 259.941 154.042 259.611 153.915 259.287C153.623 258.545 153.249 257.837 152.8 257.177C152.339 256.525 151.813 255.922 151.229 255.378C150.971 255.144 150.701 254.923 150.42 254.719C150.179 254.534 149.929 254.362 149.67 254.203C148.723 253.627 148.069 253.381 148.087 253.345Z" fill="#263238"/>
<path d="M48.2844 231.19L31.4178 245.023L48.5242 266.099C50.4369 264.342 45.6282 250.156 45.6282 250.156L56.7986 241.761L48.2844 231.19Z" fill="#455A64"/>
<g opacity="0.6">
<path d="M41.2514 242.901C41.0255 242.748 40.7509 242.684 40.4807 242.721C40.2105 242.759 39.9639 242.896 39.7884 243.104C39.6273 243.324 39.5568 243.597 39.5914 243.867C39.626 244.137 39.7631 244.384 39.9743 244.555C40.2166 244.711 40.5069 244.774 40.7921 244.734C41.0772 244.693 41.3381 244.551 41.5272 244.334C41.6705 244.087 41.7126 243.794 41.6443 243.516C41.5761 243.239 41.403 242.999 41.1615 242.847" fill="white"/>
</g>
<g opacity="0.6">
<path d="M31.4841 244.97L33.1809 243.561L48.8423 264.45C48.8423 264.45 49.1901 265.727 48.4406 266.153L31.4841 244.97Z" fill="white"/>
</g>
<path d="M46.0119 250.414C45.904 250.492 45.4423 250.018 44.6988 249.778C43.9553 249.538 43.3078 249.622 43.2718 249.496C43.2358 249.371 43.9553 249.035 44.8487 249.341C45.7421 249.646 46.1259 250.36 46.0119 250.414Z" fill="#263238"/>
<path d="M46.8939 253.364C46.8099 253.472 46.2943 253.166 45.5568 253.172C44.8193 253.178 44.2976 253.448 44.2197 253.34C44.1417 253.232 44.6694 252.698 45.5628 252.74C46.4562 252.782 46.9898 253.286 46.8939 253.364Z" fill="#263238"/>
<path d="M45.2445 256.769C45.1426 256.691 45.5443 256.128 46.3178 255.936C47.0912 255.744 47.7148 256.044 47.6609 256.158C47.6069 256.271 47.0612 256.217 46.4317 256.385C45.8021 256.553 45.3584 256.859 45.2445 256.769Z" fill="#263238"/>
<path d="M48.3444 248.213C48.2184 248.213 47.9726 247.655 47.463 247.11C46.9533 246.564 46.4017 246.252 46.4437 246.126C46.4856 246.001 47.2112 246.126 47.8047 246.798C48.3983 247.47 48.4643 248.195 48.3444 248.213Z" fill="#263238"/>
<path d="M50.4369 245.683C50.395 245.719 50.0052 245.359 49.5855 244.621C49.3476 244.185 49.1605 243.722 49.0279 243.242C48.9519 242.957 48.8958 242.666 48.86 242.373C48.8321 242.2 48.8321 242.024 48.86 241.851C48.8818 241.726 48.9429 241.611 49.0345 241.522C49.1261 241.434 49.2435 241.377 49.3697 241.36C49.4832 241.354 49.5964 241.376 49.7004 241.421C49.8044 241.467 49.8964 241.536 49.9693 241.623C50.0797 241.756 50.1706 241.903 50.2391 242.061C50.3663 242.331 50.4687 242.612 50.5449 242.901C50.6748 243.387 50.7254 243.891 50.6948 244.394C50.7177 244.858 50.5939 245.317 50.341 245.707C50.2691 245.707 50.401 245.191 50.341 244.388C50.3192 243.924 50.2407 243.465 50.1072 243.021C50.0261 242.759 49.9238 242.504 49.8014 242.259C49.6815 241.989 49.5256 241.797 49.3817 241.821C49.3277 241.821 49.3097 241.821 49.2797 241.941C49.2624 242.069 49.2624 242.198 49.2797 242.325C49.3097 242.607 49.3577 242.883 49.4117 243.14C49.5141 243.599 49.6607 244.047 49.8493 244.478C50.0784 244.862 50.2749 245.265 50.4369 245.683Z" fill="#263238"/>
<path d="M50.1792 245.665C50.1372 245.665 50.3411 245.138 50.9767 244.562C51.3527 244.227 51.7824 243.957 52.2478 243.764C52.5257 243.656 52.8126 243.571 53.1052 243.513C53.2911 243.457 53.4881 243.451 53.6771 243.494C53.8662 243.537 54.0409 243.628 54.1845 243.758C54.2629 243.851 54.3112 243.966 54.323 244.087C54.3348 244.208 54.3095 244.33 54.2505 244.436C54.1707 244.589 54.0698 244.731 53.9507 244.856C53.7447 245.091 53.5041 245.293 53.2372 245.455C52.7959 245.715 52.2977 245.864 51.7861 245.887C50.9047 245.917 50.4311 245.587 50.461 245.551C50.8922 245.582 51.325 245.582 51.7561 245.551C52.2058 245.489 52.6359 245.327 53.0153 245.078C53.2394 244.938 53.4415 244.767 53.6149 244.568C53.8128 244.352 53.9267 244.118 53.8368 244.052C53.7409 243.993 53.6336 243.955 53.522 243.941C53.4103 243.927 53.2969 243.936 53.1892 243.968C52.9212 244.01 52.6581 244.078 52.4037 244.172C51.9752 244.33 51.5714 244.548 51.2045 244.82C50.539 245.287 50.2452 245.707 50.1792 245.665Z" fill="#263238"/>
<path d="M40.6455 242.493L40.8493 264.3L67.9869 264.186C67.8191 261.596 53.7526 256.452 53.7526 256.452L54.1963 242.469L40.6455 242.493Z" fill="#455A64"/>
<g opacity="0.6">
<path d="M45.3584 255.312C45.0976 255.391 44.8754 255.565 44.7348 255.798C44.5942 256.032 44.5451 256.309 44.5969 256.577C44.6664 256.841 44.8347 257.068 45.0669 257.21C45.2991 257.353 45.5774 257.401 45.8441 257.345C46.1178 257.254 46.3498 257.068 46.4973 256.82C46.6449 256.572 46.6982 256.279 46.6476 255.996C46.5414 255.728 46.3363 255.513 46.0749 255.393C45.8134 255.273 45.516 255.259 45.2445 255.354" fill="white"/>
</g>
<g opacity="0.6">
<path d="M40.8435 264.217V262.017L66.9438 262.898C66.9438 262.898 68.143 263.426 68.0111 264.277L40.8435 264.217Z" fill="white"/>
</g>
<path d="M54.1965 256.314C54.1965 256.446 53.5249 256.506 52.8774 256.914C52.2298 257.321 51.8821 257.897 51.7621 257.849C51.6422 257.801 51.8341 257.028 52.6256 256.524C53.417 256.02 54.2385 256.188 54.1965 256.314Z" fill="#263238"/>
<path d="M57.0444 257.477C57.0744 257.603 56.5048 257.831 56.0551 258.394C55.6054 258.958 55.4554 259.551 55.3475 259.545C55.2396 259.539 55.1257 258.79 55.7013 258.1C56.2769 257.411 57.0444 257.351 57.0444 257.477Z" fill="#263238"/>
<path d="M58.6754 260.876C58.5554 260.876 58.3696 260.241 58.7053 259.515C59.0411 258.79 59.6587 258.496 59.7186 258.61C59.7786 258.724 59.3949 259.108 59.119 259.707C58.8432 260.307 58.8073 260.864 58.6754 260.876Z" fill="#263238"/>
<path d="M53.9386 253.112C53.8846 253.232 53.279 253.052 52.5295 253.112C51.78 253.172 51.1984 253.406 51.1265 253.292C51.0545 253.178 51.6181 252.692 52.4995 252.656C53.3809 252.62 54.0045 253.01 53.9386 253.112Z" fill="#263238"/>
<path d="M53.2791 249.898C52.8357 250.02 52.3675 250.02 51.924 249.898C51.4332 249.81 50.9542 249.665 50.497 249.466C50.2276 249.347 49.9671 249.209 49.7175 249.052C49.5638 248.969 49.4241 248.862 49.3038 248.735C49.2202 248.64 49.1688 248.52 49.1569 248.394C49.1451 248.268 49.1734 248.142 49.2378 248.033C49.3057 247.937 49.3956 247.86 49.5001 247.806C49.6045 247.753 49.7202 247.726 49.8374 247.727C50.0097 247.722 50.1817 247.745 50.3471 247.793C51.129 247.981 51.8521 248.36 52.4517 248.896C53.0513 249.496 53.2971 249.97 53.2551 250C53.2132 250.03 52.8894 249.628 52.2418 249.148C51.874 248.87 51.4707 248.642 51.0426 248.471C50.7883 248.37 50.5254 248.291 50.2572 248.237C49.9694 248.159 49.7295 248.159 49.6576 248.285C49.5856 248.411 49.6576 248.357 49.6875 248.441C49.7782 248.531 49.8811 248.607 49.9933 248.669C50.2239 248.82 50.4643 248.956 50.7129 249.076C51.1333 249.285 51.5731 249.451 52.026 249.574C52.4508 249.652 52.8696 249.76 53.2791 249.898Z" fill="#263238"/>
<path d="M53.1112 250.09C52.8522 249.703 52.7241 249.242 52.7455 248.777C52.7201 248.275 52.781 247.772 52.9253 247.29C53.0097 247.003 53.1243 246.725 53.2671 246.462C53.3382 246.282 53.4553 246.124 53.6068 246.003C53.7583 245.882 53.9389 245.802 54.1305 245.773C54.2508 245.775 54.3679 245.811 54.4686 245.877C54.5693 245.943 54.6496 246.036 54.7001 246.145C54.7689 246.304 54.8172 246.471 54.844 246.642C54.889 246.946 54.889 247.256 54.844 247.56C54.7656 248.072 54.5594 248.557 54.2444 248.969C53.7168 249.67 53.1652 249.832 53.1532 249.79C53.1412 249.748 53.5669 249.466 53.9686 248.789C54.2018 248.397 54.347 247.959 54.3943 247.506C54.4329 247.245 54.4329 246.981 54.3943 246.72C54.3524 246.432 54.2444 246.199 54.1365 246.229C54.0286 246.259 53.7707 246.45 53.6628 246.678C53.5312 246.915 53.4189 247.161 53.327 247.416C53.1771 247.855 53.0903 248.313 53.0692 248.777C53.0392 249.568 53.1832 250.066 53.1112 250.09Z" fill="#263238"/>
<path d="M42.9659 116.135C42.9659 116.135 39.1645 120.206 37.2998 124.109C35.4351 128.013 34.2359 137.3 34.2359 137.3C34.2359 137.3 28.9834 148.998 29.7809 154.982C30.5784 160.966 35.9267 201.901 35.9267 201.901C35.9267 201.901 35.6629 241.69 39.4523 248.789L40.2978 252.614L55.5934 249.898L55.5034 247.602L59.101 169.583L68.3107 116.465L42.9659 116.135Z" fill="#263238"/>
<path d="M76.7293 127.737C76.7293 127.737 85.8791 178.103 86.6886 186.845C87.498 195.587 56.3552 241.672 56.3552 241.672L42.1208 226.844L62.5549 188.859L55.9114 150.581L65.1512 116.758L74.8526 117.094L76.7293 127.737Z" fill="#263238"/>
<path d="M37.0779 236.425C37.0934 236.797 37.1294 237.167 37.1859 237.534C37.2818 238.266 37.4617 239.333 37.7135 240.724C38.2232 243.494 39.0506 247.518 40.1539 252.536V252.638H40.2618L55.5934 249.958H55.7073V249.844C56.133 239.339 56.6367 226.79 57.1823 213.329C57.7819 198.849 58.2736 185.418 58.7053 174.403C59.8565 165.553 60.8038 158.214 61.4694 153.112C61.7872 150.569 62.069 148.573 62.2129 147.194C62.2908 146.528 62.3508 145.995 62.3988 145.641C62.4467 145.287 62.4467 145.107 62.4467 145.107C62.4467 145.107 62.4047 145.287 62.3568 145.635C62.3088 145.983 62.2249 146.516 62.1289 147.188C61.9371 148.561 61.6612 150.551 61.3075 153.094C60.612 158.208 59.6226 165.523 58.4234 174.367C57.9797 185.388 57.4341 198.813 56.8465 213.293C56.3189 226.754 55.8272 239.303 55.4195 249.808L55.5394 249.67L40.2438 252.416L40.3757 252.506C39.2365 247.494 38.3791 243.482 37.8334 240.718C37.5636 239.339 37.3658 238.272 37.2338 237.546C37.1679 237.181 37.1319 236.905 37.1079 236.719C37.104 236.621 37.094 236.522 37.0779 236.425Z" fill="#455A64"/>
<path d="M19.3124 95.2928C19.3124 95.2928 28.786 74.8706 31.0224 73.7854C33.2589 72.7001 39.6865 72.3404 40.556 73.5575L23.5755 98.0089L19.3124 95.2928Z" fill="#455A64"/>
<path d="M19.8036 92.5349C19.3843 92.3061 18.8947 92.242 18.4306 92.355C15.4866 93.0925 4.72987 95.9526 3.53068 99.0285C2.13963 102.572 10.6479 148.627 11.7451 149.874C12.8424 151.121 29.7329 149.023 30.2785 147.062C30.8242 145.101 24.7743 95.4609 24.7743 95.4609L19.8036 92.5349Z" fill="#455A64"/>
<path d="M6.45085 123.906C6.45085 123.906 5.4915 123.96 4.53814 126.082C3.58479 128.205 5.26366 145.377 6.5288 147.14C7.79394 148.903 11.4814 149.263 11.4814 149.263L6.45085 123.906Z" fill="#455A64"/>
<path d="M25.3077 148.027C25.3077 148.027 25.2718 147.991 25.2238 147.913L24.9959 147.559C24.7145 147.103 24.4563 146.633 24.2225 146.15C23.3638 144.364 22.714 142.485 22.2858 140.55C21.6606 137.676 21.212 134.767 20.9427 131.838C20.5949 128.552 20.2112 124.943 19.8035 121.153C18.988 113.58 18.3105 106.703 18.1966 101.702C18.1306 99.2021 18.1966 97.1754 18.2625 95.7784C18.2985 95.0829 18.3405 94.5432 18.3764 94.1775C18.3764 94.0096 18.3764 93.8717 18.4184 93.7578C18.4089 93.7123 18.4089 93.6653 18.4184 93.6199C18.4251 93.6676 18.4251 93.716 18.4184 93.7638C18.4184 93.8717 18.4184 94.0096 18.4184 94.1775C18.4184 94.5732 18.4184 95.1069 18.3644 95.7844C18.3285 97.1814 18.3105 99.2021 18.4004 101.69C18.5683 106.679 19.2818 113.544 20.0973 121.123C20.493 124.913 20.8707 128.516 21.2125 131.808C21.4682 134.716 21.8927 137.607 22.4836 140.466C22.8809 142.39 23.4839 144.265 24.2824 146.06C24.5762 146.66 24.8221 147.176 25.0019 147.493L25.1998 147.859C25.2449 147.909 25.2814 147.965 25.3077 148.027Z" fill="#263238"/>
<path d="M19.9058 120.686C19.2467 120.853 18.5779 120.979 17.9032 121.064C16.662 121.28 14.9592 121.609 13.1065 122.065C11.2537 122.521 9.58085 123.036 8.38766 123.42C7.74832 123.658 7.09565 123.858 6.43298 124.02C6.58142 123.909 6.74768 123.823 6.92465 123.768C7.24843 123.618 7.72211 123.432 8.30971 123.21C9.85413 122.638 11.4296 122.154 13.0285 121.759C14.6267 121.362 16.2462 121.055 17.8792 120.842C18.4788 120.758 19.0125 120.71 19.3662 120.686C19.545 120.658 19.727 120.658 19.9058 120.686Z" fill="#263238"/>
<path d="M6.22895 121.999C6.26711 122.089 6.29137 122.184 6.3009 122.281C6.34287 122.503 6.39083 122.772 6.45079 123.102L6.94847 126.1C7.37418 128.643 7.99176 132.144 8.74725 135.994C9.50273 139.843 10.3062 143.309 10.8938 145.815C11.1816 147.014 11.4154 148.039 11.5953 148.783C11.6673 149.107 11.7212 149.382 11.7752 149.592C11.8025 149.686 11.8167 149.783 11.8172 149.88C11.8172 149.88 11.7692 149.79 11.7152 149.61L11.4754 148.813C11.2715 148.123 11.0017 147.116 10.6779 145.869C10.0364 143.375 9.21492 139.909 8.44145 136.054C7.66797 132.198 7.08037 128.684 6.71462 126.136C6.52874 124.859 6.39084 123.828 6.3069 123.108C6.27692 122.784 6.24693 122.509 6.22295 122.287C6.21107 122.191 6.2131 122.094 6.22895 121.999Z" fill="#263238"/>
<path d="M18.2629 101.259C18.237 100.831 18.2692 100.401 18.3588 99.9819C18.501 98.9719 18.7012 97.971 18.9584 96.984C19.2321 95.9932 19.5604 95.0184 19.9417 94.0639C20.0717 93.6547 20.2573 93.2654 20.4933 92.9067C20.5773 92.9367 19.8938 94.7595 19.2942 97.1039C18.6946 99.4483 18.3648 101.259 18.2629 101.259Z" fill="#263238"/>
<path d="M77.7065 57.5426C77.6105 55.8098 77.3947 47.3495 77.2927 46.0964C77.1849 44.3398 76.4285 42.6859 75.1702 41.4555C74.5489 40.8488 73.7636 40.4375 72.9111 40.2723C72.0586 40.1071 71.1763 40.1954 70.3734 40.5261C69.8675 40.6581 69.4049 40.9201 69.0315 41.2862C68.6581 41.6522 68.3869 42.1095 68.2449 42.6127C64.6953 55.2342 65.2469 68.6711 63.688 81.7242C68.3228 82.4737 74.5586 82.1679 79.2414 81.9221C79.2294 71.5011 78.348 68.797 77.7065 57.5426Z" fill="#263238"/>
<path d="M75.758 75.3385C75.7313 75.2287 75.7192 75.1158 75.722 75.0028C75.722 74.7449 75.692 74.4032 75.674 74.0314C75.674 73.15 75.6081 71.9448 75.5661 70.4698C75.5002 67.4299 75.4162 63.2747 75.3203 58.7238C75.2843 56.4334 75.2483 54.2508 75.2183 52.2542C75.2183 51.2649 75.2183 50.3175 75.1824 49.4361C75.1976 48.6213 75.1415 47.8067 75.0145 47.0018C74.9431 46.423 74.7449 45.8671 74.4339 45.3738C74.123 44.8804 73.7071 44.4618 73.2157 44.1477C72.8453 43.9439 72.4373 43.8174 72.0165 43.7759H72.1065C72.1901 43.7667 72.2746 43.7667 72.3583 43.7759C72.6875 43.8072 73.0074 43.9029 73.2996 44.0578C73.7597 44.3049 74.1575 44.6534 74.4629 45.0771C74.865 45.6422 75.1374 46.2892 75.2603 46.9718C75.4015 47.7876 75.4717 48.6141 75.4702 49.4421C75.4702 50.3295 75.5062 51.2709 75.5301 52.2662C75.5661 54.2568 75.6081 56.4633 75.6501 58.7298C75.716 63.2987 75.77 67.4359 75.8119 70.4818C75.8119 71.9508 75.8119 73.162 75.8119 74.0434C75.8119 74.4331 75.8119 74.7569 75.8119 75.0088C75.8035 75.12 75.7855 75.2304 75.758 75.3385Z" fill="#455A64"/>
<path d="M71.5426 70.5538C71.4982 70.3025 71.4801 70.0473 71.4886 69.7923C71.4886 69.3007 71.4886 68.5931 71.4886 67.7177C71.4886 65.9669 71.5246 63.5506 71.5905 60.8764C71.6565 58.2022 71.7284 55.8578 71.7824 54.041C71.7824 53.2136 71.8304 52.524 71.8484 51.9724C71.8433 51.7172 71.8633 51.4622 71.9083 51.2109C71.9571 51.4617 71.9772 51.7171 71.9683 51.9724C71.9683 52.4641 71.9683 53.1716 71.9683 54.047C71.9683 55.7978 71.9683 58.2142 71.8723 60.8884C71.7764 63.5626 71.7285 65.907 71.6805 67.7237C71.6485 68.5512 71.6245 69.2407 71.6085 69.7923C71.6155 70.0478 71.5933 70.3033 71.5426 70.5538Z" fill="#455A64"/>
<path d="M41.0112 73.7854C40.4116 73.7854 29.1033 74.5949 26.4771 86.7006C23.8508 98.8064 23.0953 115.781 23.0953 115.781L35.357 114.552L41.0112 73.7854Z" fill="#10A9FF"/>
<path d="M46.5636 71.1049L48.5543 67.4294L65.9425 66.9617L67.1416 70.0915L77.3887 73.785L76.5852 119.198L84.1701 161.11C84.1701 161.11 84.0981 167.142 63.8679 169.078L62.2669 147.163L52.1638 146.929L52.4396 168.329C52.4396 168.329 34.6077 168.035 28.9536 164C28.9536 164 27.2387 143.614 32.1074 128.936C36.3645 116.08 38.0314 112.747 38.0314 112.747L38.3971 74.2167L46.5636 71.1049Z" fill="#10A9FF"/>
<g opacity="0.3">
<path d="M41.1913 74.3069C37.6937 89.2687 34.1961 104.227 30.6984 119.18L34.254 122.946C36.0745 122.098 37.6171 120.751 38.7028 119.061C39.7885 117.371 40.3728 115.409 40.3879 113.4C40.3879 111.332 39.7283 109.305 39.6443 107.237C39.4525 102.56 42.0427 98.2426 43.2419 93.7397C44.8908 87.33 43.6856 80.4467 41.1913 74.3069Z" fill="black"/>
</g>
<path d="M75.1703 73.21C79.3375 73.9774 82.5993 78.4204 83.5647 83.1812C84.1223 85.9633 85.7472 99.4122 85.7472 99.4122L86.6406 104.335C86.6406 104.335 87.3901 121.279 83.7925 123.168C79.5954 125.375 77.197 122.952 75.8119 121.177C74.4269 119.403 72.9399 107.854 72.9399 107.854L74.5228 80.2252L75.1703 73.21Z" fill="#10A9FF"/>
<path d="M77.1549 80.0037C77.1537 80.1667 77.1376 80.3292 77.1069 80.4893C77.0589 80.8371 76.993 81.2988 76.9091 81.8744C76.7172 83.1096 76.4474 84.8364 76.1236 86.9589C75.7998 89.0815 75.3681 91.6598 74.9244 94.4898C74.6965 95.9109 74.4507 97.3979 74.2049 98.9388C73.959 100.48 73.6413 102.069 73.5094 103.706C73.4285 104.647 73.4285 105.594 73.5094 106.536C74.8105 112.352 76.0276 117.496 76.939 121.178C77.4067 122.977 77.7784 124.458 78.0482 125.507L78.354 126.676C78.3926 126.81 78.4227 126.946 78.444 127.084C78.3807 126.958 78.3324 126.825 78.3001 126.688L77.9404 125.537C77.6406 124.529 77.2208 123.06 76.7412 121.226C75.7698 117.556 74.5167 112.424 73.2096 106.602C73.1287 105.642 73.1287 104.677 73.2096 103.718C73.3415 102.057 73.6532 100.462 73.9111 98.9208C74.1689 97.3799 74.4207 95.8929 74.6546 94.4778C75.1342 91.6538 75.5659 89.1115 75.9257 86.9589L76.8131 81.8924L77.0709 80.5133C77.0824 80.3411 77.1105 80.1704 77.1549 80.0037Z" fill="#263238"/>
<path d="M32.6532 76.6391L35.843 119.162C35.843 119.162 41.791 92.0487 42.0308 85.1114C42.2136 81.1326 41.8096 77.1485 40.8317 73.2874C40.8317 73.2874 35.0516 72.382 32.6532 76.6391Z" fill="#455A64"/>
<path d="M30.8182 73.9238C31.2123 74.0419 31.575 74.2467 31.8795 74.5234C32.2283 74.817 32.4862 75.2038 32.623 75.6387C32.7892 76.1524 32.8958 76.6835 32.9407 77.2216C33.0427 78.3548 33.0367 79.3741 33.0367 80.1056C33.0628 80.5059 33.0467 80.9079 32.9887 81.3048C32.8695 80.9164 32.8108 80.5119 32.8149 80.1056C32.7549 79.3681 32.7309 78.3488 32.629 77.2396C32.5271 76.1303 32.2752 75.141 31.7356 74.6733C31.1959 74.2056 30.7882 73.9658 30.8182 73.9238Z" fill="#263238"/>
<path d="M52.8717 75.4763C52.8717 75.4763 52.7338 75.3564 52.5119 75.1046C52.2901 74.8528 51.9783 74.475 51.5886 73.9953H51.7684C51.3307 75.2485 50.6772 77.0653 49.9277 79.0979L49.8197 79.3857L49.6518 79.1398C49.5679 79.0079 49.46 78.87 49.3761 78.7201C48.874 77.8173 48.4565 76.8699 48.1289 75.8901C47.8171 75.0027 47.5293 74.1932 47.3314 73.5217C47.1336 72.8501 46.9237 72.3225 46.7858 71.9267C46.6998 71.7346 46.6354 71.5335 46.5939 71.3271C46.725 71.4889 46.8283 71.6713 46.8997 71.8668C47.0736 72.2266 47.2895 72.7662 47.5413 73.4317C47.7931 74.0973 48.0869 74.9187 48.4047 75.7821C48.7396 76.7359 49.1528 77.6605 49.6399 78.5463C49.7238 78.6902 49.8198 78.8161 49.9037 78.942L49.6339 78.978C50.3894 76.9453 51.0849 75.1406 51.5766 73.9114L51.6425 73.7375L51.7504 73.8814C52.1635 74.3843 52.5383 74.9174 52.8717 75.4763Z" fill="#263238"/>
<path d="M66.6621 72.5383C66.6131 72.7361 66.5407 72.9274 66.4462 73.1079C66.2904 73.4617 66.0565 73.9773 65.7567 74.6069C65.4569 75.2365 65.0852 75.98 64.6475 76.7954C64.1868 77.6974 63.6618 78.5651 63.0765 79.3917L62.8787 79.6615L62.8007 79.3317V79.1938C62.3091 77.0952 61.8834 75.1945 61.6016 73.7975L61.7934 73.8454C61.3765 74.2482 60.9137 74.6004 60.4143 74.8947C60.0966 75.1286 59.9467 75.2965 59.9227 75.2845C60.0254 75.0938 60.1687 74.928 60.3424 74.7988C60.8018 74.4718 61.2312 74.1046 61.6255 73.7015L61.7634 73.5337L61.8174 73.7495C62.1712 75.1226 62.6328 77.0113 63.1185 79.1099L63.1545 79.2478L62.8787 79.1878C63.4548 78.3752 63.9776 77.526 64.4436 76.6455L65.6068 74.493L66.3863 73.042C66.4571 72.8634 66.5498 72.6942 66.6621 72.5383Z" fill="#263238"/>
<path d="M53.1711 75.2906C53.1711 75.2906 51.4863 97.1817 51.0486 99.9938C50.6109 102.806 52.1099 146.93 52.1099 146.93L61.9672 147.56C61.9672 147.56 62.0691 111.134 61.9672 110.882C61.8653 110.631 62.0151 85.1659 62.0151 85.1659L59.7727 75.0208L55.9653 79.5357L53.1711 75.2906Z" fill="white"/>
<path d="M64.1738 96.0965C64.1738 96.1445 63.826 96.2225 63.6521 96.6961C63.6011 96.8232 63.5785 96.9598 63.5857 97.0965C63.593 97.2332 63.63 97.3666 63.6941 97.4876C63.7904 97.6151 63.9203 97.7134 64.0692 97.7715C64.2181 97.8296 64.3802 97.8452 64.5374 97.8166C64.6947 97.788 64.841 97.7164 64.9599 97.6096C65.0788 97.5028 65.1658 97.3651 65.211 97.2118C65.2288 97.076 65.2165 96.9379 65.1751 96.8074C65.1337 96.6768 65.0641 96.557 64.9712 96.4563C64.6355 96.0785 64.2637 96.1325 64.2697 96.0785C64.2757 96.0246 64.3476 96.0186 64.5095 96.0246C64.7355 96.0437 64.9476 96.1413 65.1091 96.3004C65.2411 96.4193 65.3435 96.5675 65.408 96.733C65.4726 96.8985 65.4975 97.0769 65.4809 97.2538C65.4322 97.4706 65.321 97.6683 65.1609 97.8224C65.0008 97.9764 64.7989 98.08 64.5804 98.1203C64.3619 98.1605 64.1363 98.1357 63.9319 98.0488C63.7274 97.9618 63.5529 97.8168 63.4303 97.6315C63.3497 97.4737 63.3077 97.299 63.3077 97.1218C63.3077 96.9447 63.3497 96.77 63.4303 96.6122C63.5286 96.4008 63.6985 96.2309 63.9099 96.1325C64.0778 96.0666 64.1678 96.0846 64.1738 96.0965Z" fill="#263238"/>
<path d="M64.1738 115.205C64.1738 115.247 63.8261 115.331 63.6522 115.805C63.6016 115.932 63.5792 116.069 63.5864 116.205C63.5937 116.342 63.6304 116.475 63.6942 116.597C63.7856 116.73 63.9155 116.832 64.0665 116.89C64.2174 116.948 64.3824 116.958 64.5396 116.92C64.6998 116.902 64.8504 116.835 64.9707 116.727C65.0909 116.62 65.1749 116.478 65.2111 116.321C65.2285 116.185 65.216 116.047 65.1746 115.917C65.1332 115.786 65.0638 115.666 64.9713 115.565C64.7805 115.373 64.5358 115.244 64.2697 115.193C64.2697 115.193 64.3477 115.134 64.5096 115.134C64.7348 115.156 64.946 115.253 65.1092 115.409C65.2417 115.529 65.3443 115.678 65.4088 115.845C65.4734 116.012 65.4981 116.191 65.4809 116.369C65.4323 116.586 65.321 116.783 65.1609 116.937C65.0008 117.091 64.799 117.195 64.5804 117.235C64.3619 117.275 64.1364 117.251 63.9319 117.164C63.7274 117.077 63.553 116.932 63.4303 116.746C63.3497 116.588 63.3077 116.412 63.3077 116.234C63.3077 116.056 63.3497 115.88 63.4303 115.721C63.5287 115.51 63.6986 115.34 63.91 115.241C64.0779 115.176 64.1678 115.188 64.1738 115.205Z" fill="#263238"/>
<path d="M65.0311 138.314C65.0311 138.362 64.6834 138.439 64.5035 138.913C64.4554 139.041 64.4348 139.178 64.443 139.314C64.4513 139.45 64.4883 139.583 64.5515 139.705C64.6483 139.832 64.7786 139.93 64.9278 139.988C65.0771 140.046 65.2395 140.061 65.3969 140.031C65.5542 140.002 65.7003 139.93 65.8189 139.822C65.9375 139.715 66.0239 139.577 66.0684 139.423C66.0858 139.287 66.0733 139.149 66.0319 139.019C65.9905 138.888 65.9211 138.768 65.8286 138.667C65.6378 138.475 65.3932 138.346 65.1271 138.296C65.1271 138.296 65.205 138.236 65.3669 138.236C65.5921 138.258 65.8033 138.355 65.9665 138.511C66.0991 138.631 66.2014 138.78 66.265 138.947C66.3285 139.114 66.3516 139.293 66.3323 139.471C66.2836 139.688 66.1724 139.885 66.0123 140.039C65.8522 140.193 65.6503 140.297 65.4318 140.337C65.2133 140.378 64.9877 140.353 64.7832 140.266C64.5788 140.179 64.4043 140.034 64.2817 139.849C64.2011 139.69 64.1591 139.514 64.1591 139.336C64.1591 139.158 64.2011 138.982 64.2817 138.823C64.38 138.612 64.5499 138.442 64.7613 138.344C64.9532 138.284 65.0311 138.296 65.0311 138.314Z" fill="#263238"/>
<g opacity="0.3">
<path d="M77.8263 95.9288C77.6105 94.184 77.1488 92.4691 77.0289 90.7123C76.891 88.6198 77.2507 86.4852 76.843 84.4226C75.416 86.821 75.0922 89.681 75.0802 92.4572C75.0682 95.2333 75.3381 98.0274 74.9423 100.774C74.6725 102.65 74.0609 104.917 73.8331 106.799C73.6052 108.682 74.1449 109.731 74.6965 112.562C76.5972 107.189 78.5219 101.583 77.8263 95.9288Z" fill="black"/>
</g>
<path d="M74.4988 91.4675C75.6301 94.703 75.9963 98.1565 75.5688 101.557C75.1412 104.958 73.9315 108.213 72.0345 111.068" fill="#10A9FF"/>
<path d="M72.0343 111.068C71.9803 111.038 72.6339 110.091 73.4254 108.424C73.8796 107.452 74.2682 106.45 74.5886 105.426C74.9613 104.159 75.2379 102.867 75.416 101.559C75.5693 100.247 75.6214 98.9263 75.5719 97.6072C75.522 96.528 75.3937 95.4539 75.1882 94.3934C74.8404 92.5946 74.4387 91.5033 74.4986 91.4854C74.6292 91.7204 74.7318 91.97 74.8044 92.2288C74.9191 92.5249 75.0172 92.8272 75.0982 93.1342C75.1942 93.488 75.3201 93.8897 75.41 94.3334C75.6439 95.3994 75.7942 96.4819 75.8597 97.5712C75.9268 98.9077 75.8827 100.247 75.7278 101.576C75.5498 102.904 75.2589 104.214 74.8584 105.492C74.5254 106.532 74.1125 107.544 73.6232 108.52C73.4254 108.939 73.2035 109.299 73.0237 109.623C72.8732 109.899 72.705 110.166 72.52 110.42C72.3809 110.653 72.2181 110.87 72.0343 111.068Z" fill="#263238"/>
<path d="M44.7169 120.404C44.2942 120.14 43.9056 119.826 43.5597 119.468C41.812 117.839 40.2751 115.998 38.9848 113.988C38.6955 113.585 38.4578 113.148 38.2773 112.687C38.6083 113.061 38.9072 113.462 39.1707 113.886C39.6983 114.629 40.4538 115.631 41.3412 116.698C42.2286 117.765 43.086 118.683 43.7396 119.336C44.0952 119.664 44.4221 120.021 44.7169 120.404Z" fill="#263238"/>
<path d="M40.7654 121.046C40.5154 120.697 40.3137 120.315 40.1658 119.912C39.7424 118.971 39.3799 118.004 39.0805 117.016C38.7787 116.033 38.5384 115.032 38.361 114.018C38.2655 113.6 38.2232 113.171 38.2351 112.741C38.331 112.741 38.6788 114.648 39.3803 116.938C40.0818 119.229 40.8554 120.98 40.7654 121.046Z" fill="#263238"/>
<path d="M60.0545 109.605C59.7264 109.485 59.4059 109.345 59.0951 109.185C58.3232 108.883 57.4938 108.756 56.6668 108.814C55.8411 108.875 55.0388 109.117 54.3164 109.521C54.0302 109.722 53.734 109.908 53.429 110.079C53.429 110.079 53.6509 109.719 54.2025 109.335C54.9313 108.849 55.7747 108.562 56.6488 108.502C57.5214 108.441 58.395 108.606 59.1851 108.982C59.521 109.116 59.8193 109.33 60.0545 109.605Z" fill="#263238"/>
<path d="M26.7589 108.178C26.7589 108.178 22.3579 112.975 22.6937 116.315C23.0295 119.654 24.5884 127.023 28.7196 126.802C32.8508 126.58 36.5803 119.942 37.1139 114.678C37.6475 109.413 37.1139 97.0317 37.1139 97.0317L31.2319 98.3568L26.7589 108.178Z" fill="#FFBE9D"/>
<path d="M18.011 77.4731C21.057 81.3645 28.6058 90.7481 28.6058 90.7481L35.711 88.9493C35.9635 88.8856 36.1912 88.7475 36.3643 88.5529C36.5375 88.3584 36.6483 88.1163 36.6823 87.8581C36.7038 87.6873 36.6909 87.514 36.6446 87.3483C36.5983 87.1825 36.5194 87.0276 36.4126 86.8927L26.4533 74.3013C26.0811 73.8296 25.5687 73.4884 24.99 73.3267C24.4113 73.1651 23.7962 73.1914 23.2335 73.4019L18.6826 75.1107C18.4593 75.1951 18.2588 75.3306 18.0973 75.5064C17.9357 75.6821 17.8176 75.8933 17.7523 76.1229C17.687 76.3526 17.6764 76.5943 17.7213 76.8287C17.7663 77.0632 17.8655 77.2839 18.011 77.4731Z" fill="#263238"/>
<path d="M35.9272 87.3548C35.6754 87.1613 35.4444 86.9422 35.2376 86.7013C34.8179 86.2636 34.2123 85.622 33.4868 84.8065C32.0358 83.1816 30.0931 80.8732 28.0905 78.211C27.5928 77.5455 27.1131 76.8919 26.6574 76.2563C26.284 75.6259 25.7763 75.0855 25.1704 74.6734C24.8779 74.5356 24.5585 74.4641 24.2351 74.4641C23.9117 74.4641 23.5923 74.5356 23.2997 74.6734L21.6149 75.243L19.1745 76.0765C18.8782 76.187 18.5734 76.2732 18.2631 76.3343C18.5402 76.1825 18.8314 76.058 19.1325 75.9625L21.5309 75.0572L23.2038 74.4576C23.5235 74.3329 23.8581 74.2503 24.1991 74.2117C24.5771 74.1825 24.9556 74.2616 25.2903 74.4396C25.9422 74.8657 26.4894 75.4334 26.8913 76.1005L28.3303 78.0491C30.3209 80.7053 32.2277 83.0257 33.6367 84.6866L35.3096 86.6413C35.5332 86.8631 35.7397 87.1017 35.9272 87.3548Z" fill="#455A64"/>
<path d="M22.0403 76.1657C22.1112 76.1309 22.1882 76.1104 22.2669 76.1054C22.3457 76.1005 22.4247 76.1111 22.4993 76.1367C22.574 76.1624 22.6428 76.2025 22.702 76.2548C22.7611 76.3071 22.8093 76.3705 22.8438 76.4415C22.9005 76.5819 22.9019 76.7385 22.8478 76.88C22.7938 77.0214 22.6882 77.1371 22.5523 77.2039C22.4164 77.2707 22.2603 77.2836 22.1153 77.2401C21.9703 77.1965 21.8471 77.0997 21.7705 76.9691C21.6998 76.8268 21.6886 76.6622 21.7391 76.5115C21.7897 76.3609 21.8981 76.2365 22.0403 76.1657Z" fill="white"/>
<path d="M28.1378 84.674L24.8521 85.2257L23.6529 86.2989C23.4857 86.4469 23.3573 86.6335 23.279 86.8426C23.2006 87.0516 23.1745 87.2767 23.2032 87.4981C23.2966 88.0889 23.5542 88.6416 23.9467 89.093C24.3679 89.6202 24.8465 90.0989 25.3737 90.5201C25.3737 90.5201 24.2165 92.3908 26.0093 93.3381C26.0093 93.3381 25.8894 95.2808 27.7661 95.4787C27.7661 95.4787 28.3117 97.3194 29.7268 97.4154L31.1838 98.8604L30.7401 99.7478L37.2577 99.9457C37.2909 98.2068 37.2027 96.4678 36.9938 94.7412C36.8882 94.0394 36.7176 93.3489 36.4842 92.6786C36.82 90.8378 35.4469 90.0764 35.237 90.2023C35.237 90.2023 38.3489 89.3868 37.9532 87.2463L34.9553 88.0138L29.481 89.159L32.9826 86.8026C33.1616 86.6458 33.3171 86.4641 33.4443 86.2629C33.7441 85.7893 34.1878 84.9318 33.81 84.4342C33.6481 84.2183 29.3311 86.0231 29.3311 86.0231L26.6569 88.4934L25.8174 87.2942C25.8174 87.2942 28.5696 86.7306 28.1378 84.674Z" fill="#FFBE9D"/>
<path d="M35.6511 90.2327C35.6511 90.3226 34.4939 90.4905 33.1088 90.8982C31.7238 91.306 30.6445 91.7736 30.6025 91.6957C31.3205 91.173 32.1361 90.7999 33.0009 90.5984C33.8493 90.2937 34.7519 90.1692 35.6511 90.2327Z" fill="#EB996E"/>
<path d="M34.146 95.8628C34.5387 95.5051 34.9016 95.1161 35.2313 94.6996L35.3392 94.5497L35.4231 94.7236C35.5297 94.9531 35.7177 95.1347 35.9508 95.2332C36.076 95.2927 36.2143 95.3195 36.3527 95.3111C36.4911 95.3027 36.6251 95.2594 36.7422 95.1853C36.7919 95.1453 36.8286 95.0915 36.8478 95.0307C36.867 94.9699 36.8678 94.9048 36.8502 94.8435C36.8222 94.6676 36.7922 94.4877 36.7602 94.3039C36.7152 93.9309 36.641 93.562 36.5384 93.2006C36.4894 93.0457 36.3918 92.9107 36.26 92.8157C36.1282 92.7206 35.9693 92.6706 35.8069 92.673C35.468 92.6877 35.1329 92.7503 34.8115 92.8588L33.0547 93.2905C32.5206 93.4502 31.9725 93.5587 31.4178 93.6143C31.9276 93.3871 32.4576 93.2085 33.0008 93.0807L34.7276 92.583C35.0785 92.4567 35.4463 92.3839 35.8189 92.3672C36.0324 92.3708 36.2404 92.4353 36.4185 92.5531C36.603 92.6865 36.7429 92.8725 36.8202 93.0867C36.928 93.4698 37.0062 93.8607 37.054 94.2559C37.054 94.4418 37.108 94.6276 37.138 94.8075C37.1559 94.9192 37.1437 95.0337 37.1026 95.1391C37.0615 95.2445 36.993 95.337 36.9041 95.4071C36.7471 95.5103 36.5654 95.5697 36.3778 95.5792C36.1902 95.5887 36.0034 95.5479 35.8368 95.4611C35.5513 95.3286 35.3264 95.093 35.2073 94.8015H35.3932C35.1457 95.119 34.8503 95.3962 34.5177 95.623C34.2959 95.8268 34.152 95.8928 34.146 95.8628Z" fill="#EB996E"/>
<path d="M28.3841 86.8264C27.952 87.5046 27.4625 88.1445 26.9211 88.7391C26.4648 89.4026 25.9534 90.0264 25.3922 90.6039C26.0952 89.1356 27.1198 87.8445 28.3901 86.8264H28.3841Z" fill="#EB996E"/>
<path d="M29.7388 89.0751C29.7388 89.159 29.0552 89.3749 28.5396 90.0764C28.271 90.5224 28.069 91.0051 27.94 91.5094C27.898 91.5094 27.832 91.3296 27.85 91.0238C27.8831 90.6165 28.0284 90.2263 28.2697 89.8965C28.5045 89.5634 28.8288 89.3036 29.2051 89.147C29.5349 89.0331 29.7268 89.0391 29.7388 89.0751Z" fill="#EB996E"/>
<path d="M64.9113 40.7662C64.4076 39.4471 64.6055 37.9781 64.4076 36.569C63.9759 33.4931 61.4996 31.0228 58.6335 29.8176C55.9654 28.6964 52.7096 28.9362 49.4897 29.9735C47.2587 30.6469 45.266 31.9428 43.7456 33.709C42.7744 34.9062 42.1043 36.3187 41.7913 37.8283C41.4783 39.3378 41.5317 40.9004 41.9469 42.3851L57.7042 40.1006C59.1732 41.2998 60.7021 42.5649 62.5009 43.2425C63.0154 43.4748 63.5825 43.5658 64.1438 43.5063C64.4189 43.47 64.6778 43.3559 64.8902 43.1775C65.1027 42.999 65.2598 42.7636 65.343 42.499C65.4809 41.9294 65.1271 41.3418 64.9113 40.7662Z" fill="#263238"/>
<path d="M55.1257 29.038C58.5733 28.4384 61.6013 29.7875 64.5033 31.7302C67.3997 33.7344 69.6151 36.5752 70.853 39.8727C72.1781 43.3084 72.5139 48.267 71.4526 51.8106C70.9964 53.4757 70.1441 55.0057 68.9684 56.2701C67.7928 57.5345 66.3287 58.4957 64.7012 59.0717C59.9584 60.7445 54.5081 60.5407 50.4788 57.5007C46.4496 54.4608 44.1831 49.4482 43.9972 44.4236C43.818 40.9356 44.7433 37.48 46.6414 34.5483C47.5961 33.0979 48.8395 31.86 50.2942 30.9119C51.7488 29.9638 53.3834 29.3259 55.0957 29.038" fill="#263238"/>
<path d="M49.6516 66.5247L49.7775 69.3308L55.9653 80.2734L64.9592 68.7552L65.265 40.0047C65.2544 39.3605 65.0018 38.7439 64.5574 38.2773C64.1131 37.8108 63.5096 37.5285 62.8667 37.4864L49.124 34.5604C44.7469 34.2606 42.0547 39.7349 41.9288 44.1539C41.8029 49.0226 41.8449 54.9465 42.5584 58.5801C43.9915 65.8292 49.6156 66.5487 49.6156 66.5487" fill="#FFBE9D"/>
<path d="M43.9376 50.1734C43.9439 50.4167 44.0454 50.6479 44.2203 50.8172C44.3952 50.9865 44.6296 51.0804 44.873 51.0788C44.9923 51.0844 45.1115 51.0661 45.2236 51.0248C45.3357 50.9836 45.4384 50.9203 45.5256 50.8387C45.6128 50.7571 45.6827 50.6588 45.7313 50.5497C45.7799 50.4405 45.8061 50.3228 45.8083 50.2034C45.8006 49.9589 45.6979 49.7271 45.5222 49.557C45.3465 49.3869 45.1115 49.2919 44.867 49.292C44.7477 49.2872 44.6286 49.3063 44.5168 49.3483C44.405 49.3903 44.3028 49.4543 44.2162 49.5364C44.1295 49.6186 44.0602 49.7173 44.0124 49.8267C43.9645 49.9361 43.9391 50.054 43.9376 50.1734Z" fill="#263238"/>
<path d="M43.3739 46.9355C43.4938 47.0554 44.1834 46.5038 45.1727 46.4678C46.162 46.4318 46.9355 46.9115 47.0434 46.7856C47.1514 46.6597 46.9655 46.5098 46.6357 46.2879C46.1895 46.0025 45.6659 45.8622 45.1367 45.8862C44.6132 45.9046 44.1091 46.0895 43.6977 46.4138C43.4099 46.6597 43.314 46.8875 43.3739 46.9355Z" fill="#263238"/>
<path d="M53.0693 49.9998C53.0771 50.2432 53.1789 50.4741 53.3533 50.6441C53.5277 50.814 53.7612 50.9098 54.0047 50.9112C54.1241 50.9152 54.2431 50.8955 54.3549 50.8533C54.4667 50.8111 54.5689 50.7472 54.6559 50.6652C54.7428 50.5833 54.8127 50.485 54.8615 50.3759C54.9103 50.2668 54.937 50.1492 54.9401 50.0298C54.9353 49.7854 54.8345 49.5527 54.6594 49.3821C54.4844 49.2115 54.2491 49.1168 54.0047 49.1184C53.8851 49.1136 53.7658 49.1327 53.6536 49.1746C53.5415 49.2165 53.4389 49.2804 53.3517 49.3625C53.2646 49.4446 53.1948 49.5432 53.1463 49.6527C53.0978 49.7621 53.0716 49.8801 53.0693 49.9998Z" fill="#263238"/>
<path d="M52.9253 46.6962C53.0512 46.8101 53.7408 46.2585 54.7241 46.2225C55.7074 46.1865 56.4869 46.6662 56.5948 46.5403C56.7028 46.4144 56.5229 46.2645 56.1871 46.0426C55.7406 45.758 55.2172 45.6177 54.6881 45.6409C54.1649 45.661 53.6613 45.8456 53.2491 46.1686C52.9673 46.4264 52.8714 46.6542 52.9253 46.6962Z" fill="#263238"/>
<path d="M49.8977 54.3526C49.3612 54.2108 48.8096 54.1343 48.2548 54.1248C47.997 54.1248 47.7511 54.0648 47.7031 53.8909C47.6663 53.627 47.7147 53.3581 47.8411 53.1235L48.5306 51.1328C49.4779 48.3087 50.1615 45.9883 50.0476 45.9523C49.9337 45.9164 49.0642 48.1768 48.1169 51.0009C47.889 51.6964 47.6672 52.362 47.4633 52.9975C47.3121 53.3132 47.2781 53.6724 47.3674 54.0109C47.4075 54.1006 47.468 54.1798 47.5439 54.2422C47.6199 54.3046 47.7093 54.3486 47.8051 54.3706C47.9486 54.4035 48.0957 54.4176 48.2428 54.4126C48.7947 54.4654 49.3511 54.4452 49.8977 54.3526Z" fill="#263238"/>
<path d="M49.6516 66.5242C53.0936 66.2935 56.4201 65.1895 59.3171 63.3164C59.3171 63.3164 57.0566 68.4609 49.7236 68.0532L49.6516 66.5242Z" fill="#EB996E"/>
<path d="M50.6709 56.5173C50.8552 56.3188 51.0858 56.1689 51.3421 56.081C51.5984 55.9931 51.8725 55.97 52.1399 56.0137C52.3315 56.0317 52.516 56.0956 52.6778 56.1999C52.8396 56.3043 52.9738 56.4461 53.0692 56.6133C53.2076 56.8158 53.289 57.0517 53.3048 57.2965C53.3207 57.5412 53.2703 57.7857 53.1592 58.0043C53.006 58.1933 52.7989 58.3313 52.5654 58.3998C52.3319 58.4684 52.0832 58.4643 51.8521 58.3881C51.4153 58.292 51.0056 58.0994 50.6529 57.8245C50.539 57.716 50.4597 57.5762 50.425 57.4227C50.4015 57.2618 50.414 57.0975 50.4617 56.942C50.5094 56.7864 50.5911 56.6434 50.7008 56.5233" fill="#EB996E"/>
<path d="M52.9852 44.3453C53.0991 44.6151 54.1005 44.4533 55.2816 44.5492C56.4628 44.6451 57.4342 44.9329 57.5841 44.6811C57.6501 44.5612 57.4762 44.3094 57.0804 44.0815C56.5552 43.7752 55.9662 43.5946 55.3596 43.5539C54.7465 43.4976 54.1289 43.5923 53.5608 43.8297C53.1531 43.9976 52.9432 44.2194 52.9852 44.3453Z" fill="#263238"/>
<path d="M43.4995 42.5289C43.6854 42.7507 44.3689 42.4869 45.2023 42.4449C46.0358 42.403 46.7493 42.5409 46.8992 42.295C46.9651 42.1751 46.8452 41.9473 46.5334 41.7434C46.1076 41.5016 45.6199 41.3909 45.1314 41.425C44.6429 41.4591 44.1754 41.6366 43.7873 41.9353C43.5055 42.1811 43.4455 42.4209 43.4995 42.5289Z" fill="#263238"/>
<path d="M67.4296 38.6493C66.0085 34.4522 59.7907 28.7501 55.3897 29.1398L48.4344 33.5048C48.6867 34.7011 49.2572 35.8071 50.0856 36.7062C50.914 37.6053 51.9696 38.2642 53.1412 38.6134C54.3944 38.9731 55.8934 39.0451 56.6549 40.1064C57.4164 41.1677 57.0206 42.7865 57.7401 43.8958C58.7475 45.4427 61.4096 45.3168 62.1771 46.9957C62.5069 47.7272 62.357 48.6146 62.7048 49.3401C63.1664 50.3114 65.6607 51.4986 66.6741 51.1389C67.6874 50.7791 67.6634 49.0583 67.9812 48.1409C68.3807 47.1034 68.4104 45.9599 68.0651 44.9031C67.5854 42.8585 68.1131 40.646 67.4296 38.6493Z" fill="#263238"/>
<path d="M63.676 52.0924C63.676 51.5528 64.2396 50.2456 64.7673 50.1437C66.1943 49.8679 68.7786 49.8859 68.9644 53.5194C69.1863 58.49 64.1677 57.7166 64.1317 57.5427C64.0957 57.3688 63.742 53.9451 63.676 52.0924Z" fill="#FFBE9D"/>
<path d="M65.5467 55.5693C65.5467 55.5693 65.6367 55.6233 65.7806 55.6833C65.9883 55.7673 66.2205 55.7673 66.4281 55.6833C66.9498 55.4674 67.3515 54.616 67.3395 53.7166C67.3296 53.29 67.2274 52.8707 67.0397 52.4874C66.987 52.3344 66.8977 52.1965 66.7796 52.0858C66.6616 51.975 66.5183 51.8947 66.3622 51.8519C66.2613 51.8295 66.1559 51.843 66.0639 51.8901C65.972 51.9371 65.8993 52.0148 65.8585 52.1097C65.7986 52.2536 65.8585 52.3495 65.8105 52.3615C65.7626 52.3735 65.6966 52.2836 65.7266 52.0737C65.7537 51.9509 65.8187 51.8397 65.9125 51.7559C66.0445 51.6456 66.2147 51.5917 66.3862 51.606C66.5922 51.6363 66.7867 51.7196 66.9507 51.8479C67.1147 51.9761 67.2425 52.1449 67.3215 52.3375C67.5533 52.7584 67.6769 53.2302 67.6813 53.7106C67.6813 54.7119 67.2256 55.6713 66.5181 55.9111C66.3866 55.9571 66.2465 55.9724 66.1082 55.9557C65.97 55.9391 65.8374 55.891 65.7206 55.8152C65.5587 55.6893 65.5287 55.5753 65.5467 55.5693Z" fill="#EB996E"/>
<path d="M71.9384 45.269C72.0849 44.7875 72.1497 44.2849 72.1303 43.782C72.1303 42.5579 71.9277 41.3423 71.5307 40.1844C71.1444 39.029 70.5667 37.9466 69.8218 36.9826C69.5344 36.5671 69.1798 36.2023 68.7725 35.9033C68.6766 35.9693 70.3435 37.6242 71.2189 40.2923C71.7143 41.9041 71.957 43.5829 71.9384 45.269Z" fill="#10A9FF"/>
<path d="M49.8795 31.994C49.4178 34.0207 46.3419 36.6109 44.9868 38.1818C42.4085 41.1798 41.9229 41.6295 41.9409 50.6833C40.6039 47.872 39.8979 44.8024 39.8723 41.6895C39.931 39.0424 40.9569 36.5085 42.7563 34.5663C43.6616 33.6128 44.7769 32.8838 46.0135 32.4373C47.2501 31.9907 48.5739 31.839 49.8795 31.994Z" fill="#263238"/>
<path d="M69.9657 38.5894C69.6901 38.6811 69.4073 38.7492 69.1203 38.7932C68.7908 38.8735 68.4563 38.9316 68.119 38.9671C67.7232 39.0211 67.2736 39.099 66.7699 39.123C65.5971 39.2211 64.4188 39.2331 63.2443 39.159C60.3622 38.9618 57.5361 38.2659 54.892 37.1024C53.8141 36.6284 52.7738 36.0732 51.7801 35.4415C51.3424 35.1897 50.9826 34.9138 50.6528 34.686C50.3231 34.4582 50.0532 34.2483 49.8434 34.0864C49.6072 33.9074 49.3884 33.7067 49.1898 33.4868C49.4464 33.6255 49.6893 33.7881 49.9153 33.9725C50.1372 34.1344 50.413 34.3322 50.7487 34.5421C51.0845 34.752 51.4503 35.0218 51.888 35.2616C52.8901 35.8557 53.9296 36.3845 54.9999 36.8445C56.3135 37.3945 57.6663 37.8454 59.0471 38.1936C60.4272 38.5234 61.8302 38.7479 63.2443 38.8652C64.4062 38.9422 65.572 38.9422 66.7339 38.8652C67.2316 38.8652 67.6753 38.7932 68.071 38.7572C68.4667 38.7213 68.8025 38.6793 69.0783 38.6313C69.3719 38.5872 69.6692 38.5731 69.9657 38.5894Z" fill="#455A64"/>
<path d="M70.4817 42.1506C70.2903 42.229 70.0881 42.2775 69.8821 42.2945C69.3523 42.3884 68.8179 42.4545 68.2811 42.4924C64.7053 42.7519 61.1254 42.0479 57.9142 40.4538C57.4333 40.2119 56.965 39.9457 56.5111 39.6563C56.3375 39.5607 56.1763 39.4438 56.0314 39.3085C56.0314 39.2606 56.7809 39.6983 58.0101 40.2619C61.2216 41.7381 64.7377 42.4307 68.2692 42.2825C69.6422 42.2286 70.4757 42.1026 70.4817 42.1506Z" fill="#455A64"/>
<path d="M71.7405 42.2773C71.824 42.5198 71.8784 42.7715 71.9024 43.0268C72.0107 43.714 72.0807 44.4065 72.1122 45.1014C72.1542 45.9828 72.1662 47.0381 72.1122 48.2013C72.0621 49.4718 71.8914 50.7346 71.6026 51.9728C71.0177 54.2436 69.6503 56.2353 67.7412 57.5969C67.1654 57.9943 66.5482 58.328 65.9004 58.5923C65.6679 58.6995 65.4247 58.7819 65.1749 58.8381C65.3878 58.6969 65.6149 58.5784 65.8525 58.4843C66.4715 58.182 67.0633 57.827 67.6213 57.4231C68.4393 56.8181 69.1524 56.0828 69.7319 55.2465C70.4614 54.2371 70.9961 53.1004 71.3088 51.8948C71.5928 50.6755 71.7693 49.4335 71.8364 48.1833C71.9083 47.0321 71.9204 45.9888 71.9024 45.1134C71.8844 44.238 71.8424 43.5245 71.7945 43.0388C71.7534 42.7872 71.7353 42.5323 71.7405 42.2773Z" fill="#455A64"/>
<path d="M51.9121 58.3821C52.1815 58.3804 52.4466 58.3147 52.6855 58.1902C52.8023 58.1184 52.9024 58.0223 52.9789 57.9085C53.0555 57.7948 53.1067 57.6659 53.1293 57.5306C53.1561 57.3659 53.1463 57.1972 53.1007 57.0366C53.0551 56.876 52.9748 56.7274 52.8654 56.6013C52.6329 56.3462 52.3105 56.1914 51.9661 56.1696C51.6808 56.1516 51.3962 56.2139 51.1446 56.3494C50.7009 56.5893 50.515 56.8771 50.473 56.8411C50.4311 56.8051 50.563 56.4874 51.0307 56.1636C51.3109 55.9722 51.6449 55.8755 51.984 55.8877C52.1944 55.8914 52.4018 55.938 52.5936 56.0246C52.7853 56.1112 52.9574 56.236 53.0993 56.3914C53.2408 56.5534 53.3426 56.7461 53.3967 56.9542C53.4509 57.1623 53.4558 57.3802 53.4111 57.5906C53.3782 57.7603 53.3071 57.9203 53.2032 58.0585C53.0993 58.1966 52.9654 58.3093 52.8115 58.3881C52.2478 58.6399 51.8821 58.4 51.9121 58.3821Z" fill="#263238"/>
<path d="M82.5752 99.3168L85.2494 93.6147C85.6931 91.8159 87.5038 91.2163 89.7283 91.0784L92.0727 90.119C92.0727 90.119 93.7816 87.6547 95.3645 87.6847C95.4886 87.6889 95.6083 87.7316 95.7071 87.8068C95.8059 87.8819 95.879 87.9859 95.9161 88.1044C95.9409 88.1863 95.9478 88.2726 95.9364 88.3574C95.925 88.4422 95.8956 88.5236 95.8502 88.5961L93.9255 91.5521L92.3905 92.3135C92.3905 92.3135 93.8295 92.6613 94.3932 92.1217C94.9568 91.582 96.8935 90.0651 96.8935 90.0651C96.8935 90.0651 98.3625 87.4209 100.269 87.6187C100.326 87.6253 100.38 87.6453 100.427 87.6772C100.474 87.709 100.513 87.7518 100.54 87.8018C100.567 87.8518 100.581 87.9076 100.582 87.9644C100.583 88.0213 100.57 88.0775 100.545 88.1284L99.082 90.9525C99.082 90.9525 101.75 86.9472 104.292 88.4402L101.474 91.5041C101.474 91.5041 105.564 89.1897 107.194 91.1264L96.8395 95.4015L90.8795 96.6006L88.793 102.255L86.9582 101.212L82.5752 99.3168Z" fill="#FFBE9D"/>
<path d="M88.7808 106.727C88.7808 106.727 89.0926 116.86 87.2219 119.655C85.3512 122.449 81.8795 126.25 77.5745 123.204L74.8823 113.011C74.8823 113.011 79.2653 108.214 80.0627 106.23C82.0474 101.325 85.2492 93.6382 85.2492 93.6382L90.9634 96.1805L88.7808 106.727Z" fill="#FFBE9D"/>
<path d="M80.7106 105.306C80.5333 105.75 80.3165 106.178 80.063 106.583C79.6433 107.363 79.0797 108.442 78.5221 109.665C77.9645 110.888 77.5088 112.016 77.197 112.843C77.0584 113.301 76.8756 113.745 76.6514 114.168C76.7069 113.691 76.8196 113.222 76.9871 112.771C77.3356 111.667 77.7521 110.586 78.2343 109.533C78.7126 108.479 79.2594 107.458 79.8712 106.475C80.0961 106.049 80.3786 105.656 80.7106 105.306Z" fill="#EB996E"/>
<path d="M93.9256 91.5518C93.5168 91.914 93.0427 92.1949 92.5285 92.3792C92.0587 92.6519 91.5423 92.8349 91.0056 92.9188C91.4127 92.5574 91.8848 92.2766 92.3967 92.0914C92.8688 91.819 93.3871 91.6361 93.9256 91.5518Z" fill="#EB996E"/>
<path d="M94.783 94.2318C94.783 94.1958 95.0468 94.0099 95.5385 93.8061L96.4018 93.4523L96.8995 93.2364C97.068 93.1778 97.2158 93.0716 97.3252 92.9306C97.8409 92.3311 98.2726 91.7315 98.6144 91.3297C98.9561 90.928 99.214 90.6762 99.214 90.7302C99.1881 90.803 99.1517 90.8717 99.106 90.934L98.7643 91.4617C98.3931 92.0519 97.9803 92.6149 97.5291 93.1465C97.4549 93.2284 97.3748 93.3045 97.2893 93.3744C97.1984 93.4319 97.1019 93.4801 97.0014 93.5183C96.8215 93.5962 96.6477 93.6622 96.4798 93.7221C96.15 93.836 95.8442 93.932 95.5924 94.0099C95.3334 94.1189 95.0613 94.1935 94.783 94.2318Z" fill="#EB996E"/>
</svg>
