<svg width="21" height="21" viewBox="0 0 21 21" fill="none" xmlns="http://www.w3.org/2000/svg">
<path d="M0.271743 10.0528C0.281138 4.52989 4.74874 0.0579081 10.2567 0.0622924C11.5741 0.0587283 12.8793 0.31584 14.0969 0.818819C15.3146 1.3218 16.4207 2.0607 17.3516 2.99299C18.2825 3.92527 19.0197 5.0325 19.5209 6.25092C20.022 7.46933 20.2772 8.77486 20.2716 10.0923C20.2579 15.6478 15.7715 20.0735 10.1702 20.0578C4.71804 20.0428 0.262348 15.5395 0.271743 10.0528ZM2.26472 10.0528C2.26472 14.4603 5.84293 18.0542 10.2454 18.0698C14.6767 18.0836 18.2912 14.4697 18.2787 10.0378C18.2668 5.64726 14.6723 2.0584 10.2874 2.05715C5.86673 2.05339 2.26472 5.64475 2.26472 10.0522V10.0528Z" fill="#121619"/>
<path d="M9.27772 7.55077C9.27772 6.70711 9.27083 5.86345 9.27772 5.01978C9.28008 4.81081 9.35043 4.60829 9.47813 4.44286C9.60582 4.27742 9.78391 4.15806 9.98547 4.10284C10.3982 3.97757 10.8579 4.11662 11.0747 4.48678C11.1914 4.69563 11.2542 4.93025 11.2575 5.16947C11.2744 6.47349 11.2701 7.77813 11.2613 9.08277C11.2613 9.27944 11.3164 9.36274 11.5081 9.42224C12.1933 9.63519 12.8722 9.86756 13.5512 10.0993C14.1462 10.3022 14.4412 10.8171 14.2783 11.352C14.1123 11.8975 13.5549 12.1975 12.963 12.0115C11.944 11.6908 10.9312 11.3495 9.92283 10.9962C9.4844 10.8434 9.27396 10.5002 9.27271 10.0367C9.27271 9.20804 9.27271 8.38003 9.27271 7.55203L9.27772 7.55077Z" fill="#121619"/>
</svg>
