<svg width="25" height="20" viewBox="0 0 25 20" fill="none" xmlns="http://www.w3.org/2000/svg">
<path d="M24.0653 7.20025L24.0653 7.20018C24.1401 7.12132 24.2003 7.02394 24.2591 6.91452C24.2796 6.87633 24.3007 6.83519 24.3222 6.79299C24.3554 6.72818 24.3898 6.66091 24.4255 6.59809L24.4271 6.13846C24.3872 6.06967 24.3488 5.9955 24.3119 5.9241C24.2881 5.87817 24.265 5.83338 24.2423 5.7919C24.1773 5.67259 24.1104 5.56747 24.0264 5.48511L24.0261 5.48475C23.5778 5.04058 23.1047 4.62225 22.609 4.23178C19.673 1.9439 16.3296 0.812937 12.617 0.793547L24.0653 7.20025ZM24.0653 7.20025C23.6402 7.6493 22.97 7.66413 22.4835 7.24786C22.3147 7.10335 22.147 6.95317 21.9783 6.80211C21.6667 6.52317 21.3519 6.24123 21.0209 5.98647C19.1972 4.56748 17.0355 3.64766 14.7485 3.3175C11.2832 2.80672 8.06521 3.49023 5.09897 5.36698L5.09896 5.36698M24.0653 7.20025L5.09896 5.36698M5.09896 5.36698L5.098 5.3676M5.09896 5.36698L5.098 5.3676M5.098 5.3676C4.29952 5.88575 3.5556 6.48348 2.87766 7.15165C2.67428 7.34706 2.46095 7.47153 2.23831 7.52096C2.01651 7.5702 1.77751 7.54678 1.51855 7.43331L1.5185 7.43329M5.098 5.3676L1.5185 7.43329M1.5185 7.43329C0.74562 7.09519 0.579371 6.10812 1.20805 5.48795L1.20827 5.48774M1.5185 7.43329L1.20827 5.48774M1.20827 5.48774C2.60378 4.10268 4.24032 2.98388 6.03747 2.18632L6.03787 2.18614M1.20827 5.48774L6.03787 2.18614M6.03787 2.18614C8.10626 1.25737 10.3496 0.782519 12.6169 0.793547L6.03787 2.18614Z" fill="#878D9C" stroke="#1E2026" stroke-width="0.2"/>
<path d="M4.64012 8.92063C4.32938 9.2265 4.16731 9.59451 4.23373 10.032C4.38727 11.0513 5.51811 11.4888 6.31933 10.8399L4.64012 8.92063ZM4.64012 8.92063C6.03529 7.53273 7.77091 6.53611 9.67285 6.03077L4.64012 8.92063ZM18.9779 10.8691L19.0402 10.7909C18.8786 10.6624 18.7229 10.5259 18.5652 10.3877L18.54 10.3656C18.3744 10.2205 18.2064 10.074 18.0304 9.93727C16.9523 9.09676 15.6889 8.52611 14.3456 8.27287C13.3139 8.06918 12.2541 8.05146 11.2161 8.22054C9.68695 8.46284 8.24791 9.10141 7.04223 10.0727C6.90296 10.1833 6.77183 10.3032 6.64372 10.4207L6.63202 10.4315C6.50707 10.5462 6.38482 10.6583 6.25645 10.7621L6.25639 10.7622C5.51508 11.3626 4.4746 10.9597 4.33261 10.0171L4.33259 10.017C4.27197 9.61764 4.41731 9.28027 4.71027 8.9919L4.71065 8.99153C6.09338 7.61599 7.81353 6.62826 9.69853 6.12742L9.69933 6.1272C10.6549 5.86481 11.642 5.73481 12.633 5.74082C15.6838 5.78382 18.3192 6.83989 20.5163 8.96749L20.5163 8.96755C21.1645 9.59409 21.0313 10.5515 20.2632 10.9229C19.8335 11.1307 19.4164 11.0889 19.04 10.7907L18.9779 10.8691ZM18.9779 10.8691C18.8144 10.7391 18.6571 10.6012 18.4998 10.4634C18.3255 10.3105 18.1512 10.1578 17.9689 10.0161M18.9779 10.8691C19.3849 11.1915 19.8431 11.2372 20.3068 11.0129C21.1433 10.6084 21.2792 9.56587 20.5858 8.89565L17.9689 10.0161M17.9689 10.0161C16.9033 9.18534 15.6545 8.62131 14.3266 8.37106C13.3064 8.16959 12.2584 8.15205 11.232 8.31927L17.9689 10.0161Z" fill="#878D9C" stroke="#1E2026" stroke-width="0.2"/>
<path d="M17.103 12.4505L17.103 12.4505L17.1046 12.4519C17.2174 12.5564 17.3086 12.682 17.3729 12.8217C17.4372 12.9614 17.4734 13.1124 17.4793 13.2661C17.4853 13.4198 17.4609 13.5731 17.4075 13.7173C17.3542 13.8616 17.273 13.9939 17.1685 14.1068L17.1674 14.108C17.0662 14.2212 16.9435 14.3131 16.8065 14.3785C16.6695 14.4439 16.5208 14.4815 16.3692 14.489C16.2176 14.4966 16.0659 14.474 15.9231 14.4225C15.7802 14.3711 15.649 14.2918 15.537 14.1893L15.5363 14.1887C14.949 13.6611 14.3058 13.233 13.5052 13.0684L13.5051 13.0684C12.2071 12.8029 11.0379 13.0805 10.0129 13.9295L10.0128 13.9296C9.96268 13.9712 9.91221 14.0162 9.86334 14.0598C9.83601 14.0841 9.80919 14.108 9.78322 14.1307C9.70838 14.1958 9.63508 14.2554 9.55717 14.3046L9.55678 14.3049C9.31404 14.4598 9.02226 14.5187 8.73842 14.4701C8.45458 14.4215 8.19906 14.2688 8.02176 14.0418L8.02177 14.0418L8.02067 14.0405C7.83669 13.8133 7.74493 13.5253 7.76364 13.2336C7.78236 12.9419 7.91017 12.6679 8.12166 12.4661L8.12166 12.4661L8.12234 12.4654C9.14357 11.4725 10.3505 10.8613 11.767 10.676L11.7671 10.6762L11.7734 10.675C11.8601 10.6578 11.9477 10.6452 12.0357 10.6371C12.1813 10.6323 12.3261 10.633 12.4732 10.6337C12.526 10.6339 12.5791 10.6342 12.6327 10.6342C14.3659 10.6342 15.8552 11.2465 17.103 12.4505Z" fill="#878D9C" stroke="#1E2026" stroke-width="0.2"/>
<path d="M12.6226 18.5932C11.7508 18.5893 11.0172 17.854 11.0212 16.9876C11.0252 16.1195 11.7609 15.3815 12.6266 15.3866C13.4942 15.3918 14.2327 16.1245 14.2289 16.9917C14.223 17.4155 14.0517 17.8202 13.7515 18.1194C13.4514 18.4185 13.0463 18.5885 12.6226 18.5932Z" fill="#878D9C" stroke="#1E2026" stroke-width="0.2"/>
<circle cx="18.0533" cy="12.5618" r="5.82388" fill="#878D9C" stroke="#1E2026" stroke-width="1.3"/>
<path d="M16.962 11.0083H17.1652C18.0511 11.0118 18.9374 10.9949 19.8222 11.0241C20.6383 11.0509 21.288 11.7416 21.3002 12.56C21.3112 13.3176 21.3112 14.0754 21.3002 14.8333C21.2876 15.6466 20.6099 16.3483 19.795 16.3621C18.6337 16.3813 17.4723 16.3813 16.3108 16.3621C15.4896 16.3483 14.8166 15.6435 14.8052 14.8187C14.7949 14.0692 14.7969 13.3225 14.8052 12.575C14.8097 12.2252 14.9304 11.8868 15.1483 11.613C15.3661 11.3393 15.6688 11.1457 16.0087 11.0627C16.1159 11.0363 16.1337 10.9941 16.1369 10.8959C16.1479 10.5578 16.1282 10.2111 16.1976 9.88409C16.3948 8.95832 17.2579 8.3347 18.1971 8.40136C19.1288 8.46723 19.8841 9.22023 19.9697 10.1586C20.0143 10.6481 19.709 10.6848 19.3741 10.6284C19.2289 10.604 19.1556 10.4746 19.1461 10.2896C19.1385 10.0386 19.0451 9.79788 18.8815 9.6074C18.7179 9.41692 18.4941 9.28822 18.2472 9.24272C17.6275 9.11965 17.009 9.58313 16.964 10.2166C16.9455 10.4714 16.962 10.7278 16.962 11.0083ZM18.0511 15.5445C18.5824 15.5445 19.1134 15.5445 19.6447 15.5445C20.1575 15.5445 20.4766 15.2289 20.4782 14.7204C20.4803 14.032 20.4803 13.3437 20.4782 12.6555C20.4782 12.1628 20.1598 11.8386 19.6688 11.837C18.5919 11.8336 17.5149 11.8336 16.4378 11.837C15.9455 11.837 15.6284 12.1613 15.6268 12.6535C15.625 13.342 15.625 14.0303 15.6268 14.7185C15.6268 15.2265 15.9471 15.5433 16.4579 15.5445C16.9893 15.5448 17.5202 15.5441 18.0499 15.5441L18.0511 15.5445Z" fill="#1E2026"/>
<path d="M18.0499 12.4487C18.2478 12.449 18.4407 12.5119 18.6008 12.6283C18.7609 12.7448 18.8801 12.9089 18.9413 13.0972C19.0048 13.2876 19.0039 13.4936 18.9388 13.6835C18.8738 13.8733 18.7481 14.0366 18.5812 14.148C18.5396 14.1706 18.506 14.2054 18.4848 14.2477C18.4636 14.2901 18.456 14.3379 18.4628 14.3847C18.4698 14.4777 18.4665 14.5713 18.453 14.6636C18.4389 14.76 18.3903 14.848 18.3161 14.9112C18.2419 14.9745 18.1473 15.0085 18.0499 15.0071C17.9532 15.0058 17.8602 14.9699 17.7878 14.9058C17.7154 14.8418 17.6684 14.7538 17.6554 14.658C17.6425 14.5606 17.6399 14.4621 17.6475 14.3642C17.6542 14.2656 17.6211 14.2088 17.5347 14.1528C17.3688 14.0445 17.2427 13.8851 17.1754 13.6988C17.1081 13.5125 17.1032 13.3094 17.1616 13.1201C17.2182 12.9278 17.335 12.7588 17.495 12.6379C17.6549 12.517 17.8494 12.4507 18.0499 12.4487ZM18.0499 13.5844C18.1021 13.5841 18.1524 13.564 18.1905 13.5283C18.2286 13.4925 18.2518 13.4436 18.2554 13.3915C18.2554 13.3395 18.2361 13.2893 18.2011 13.2508C18.1662 13.2123 18.1182 13.1882 18.0664 13.1832C18.0391 13.1821 18.0118 13.1865 17.9862 13.1961C17.9606 13.2058 17.9371 13.2204 17.9172 13.2391C17.8973 13.2579 17.8814 13.2804 17.8703 13.3054C17.8592 13.3304 17.8532 13.3574 17.8526 13.3848C17.8546 13.4367 17.876 13.4859 17.9125 13.5229C17.949 13.5598 17.998 13.5817 18.0499 13.5844Z" fill="#1E2026"/>
</svg>
